<svg width="120" height="120" viewBox="0 0 120 120" fill="none" xmlns="http://www.w3.org/2000/svg">
<path opacity="0.3" fill-rule="evenodd" clip-rule="evenodd" d="M44.085 67L29 67L66.7124 29.2876L74.2548 36.8301L74.2548 36.8301L67.0406 74.2128L104.423 66.9985L104.424 67.0011L104.425 67L111.967 74.5425L74.2548 112.255L74.2548 97.1699L90.9816 80.4431L62.9409 85.8545L62.9411 85.8562L55.3986 78.3137L55.4052 78.3146L55.3986 78.3137L60.8095 50.2755L44.085 67Z" fill="#36AF42"/>
<path fill-rule="evenodd" clip-rule="evenodd" d="M46.0938 26.2656C47.7969 26.25 48.7969 26.3281 50.0781 26.5781C51.0312 26.7656 52.4375 27.1094 53.2031 27.3594C53.9688 27.625 55.25 28.125 56.0156 28.5156C56.7812 28.8906 57.875 29.4844 58.4375 29.8594C59 30.2188 59.9531 30.9219 60.5469 31.4063C61.1562 31.9063 62 32.6875 62.4531 33.1563C62.8906 33.6094 63.75 34.6563 64.3594 35.4688C64.9688 36.2813 65.8594 37.7344 66.3281 38.6719C66.7969 39.6094 67.3594 40.9531 67.5938 41.6406C67.8125 42.3281 68.125 43.5313 68.2969 44.2969C68.4531 45.0625 68.6406 46.6094 68.6875 47.7344C68.75 48.9219 68.7188 50.3438 68.6094 51.1719C68.5156 51.9375 68.25 53.3125 68.0312 54.2188C67.7969 55.125 67.3438 56.5313 67 57.3438C66.6719 58.1563 66.1562 59.2344 65.3125 60.625L66.2812 61.125C66.9688 61.4844 67.3125 61.7656 67.4219 62.0625C67.5469 62.3906 67.5156 62.7188 67.2969 63.3906C67.1406 63.8906 67.0312 64.3125 67.0625 64.3438C67.0938 64.375 67.4844 64.3281 68.75 64.0625V63.0469C68.75 62.1719 68.8125 61.9688 69.1406 61.6406C69.5 61.2656 69.6094 61.25 71.25 61.25C72.9375 61.25 72.9844 61.2656 73.5156 61.7188C74.0469 62.1719 74.0781 62.1719 74.5312 61.9531C74.9844 61.7188 75 61.6875 75 60.625C75 59.6719 75.0469 59.4844 75.3906 59.1406C75.75 58.7656 75.8594 58.75 79.2188 58.75L79.7656 57.6563C80.0625 57.0625 80.4531 56.5 80.625 56.4063C80.7969 56.3125 81.3906 56.25 82.9688 56.25L83.5938 55L83.0469 53.9063C82.75 53.3125 82.5 52.625 82.5 52.375C82.5 52.0469 82.8594 51.6094 85.7188 48.75H87.3906C88.3125 48.75 89.2031 48.8125 89.375 48.9063C89.5469 49 90.0469 49.7656 90.4688 50.625C91.0938 51.875 91.25 52.3438 91.25 53.75H92.0781C92.625 53.7344 93 53.8281 93.25 54.0156C93.4844 54.2031 93.8281 54.9844 94.2969 56.4063C94.6875 57.5625 95 58.6406 95 58.7813C95 58.9375 94.7031 59.6406 93.7031 61.6406L93.9531 62.3438C94.0938 62.7344 94.3906 63.2344 94.6094 63.4688C94.8281 63.7188 95.5312 64.25 96.1719 64.6875C97.1562 65.3438 97.3594 65.5625 97.4844 66.0469C97.5781 66.375 97.8906 67.6406 98.1875 68.8594C98.5 70.0938 98.75 71.2344 98.75 71.4063C98.75 71.5781 98.5781 71.8906 98.3594 72.1094C98.1562 72.3281 97.7969 72.5 97.5781 72.5C97.3594 72.5 95.9219 71.8594 91.5625 69.6875L90.0781 66.7969L90.0312 67.8125C90.0156 68.375 89.9688 68.9844 89.9219 69.1719C89.875 69.4219 89.25 69.9375 86.2344 71.9531L86.25 74.0938C86.25 76.2188 86.25 76.25 86.6094 76.25C86.7969 76.2344 87.25 75.9531 88.2812 75H91.2188C93.8125 74.9844 94.1719 75.0156 94.4688 75.2656C94.6562 75.4219 95.6875 77.0469 96.7812 78.8594C97.8906 80.75 98.75 82.3594 98.75 82.5781C98.75 82.7969 98.5781 83.1406 98.3594 83.3594C98 83.7344 97.9219 83.75 95.6719 83.75C93.5938 83.7656 93.3125 83.7344 92.9375 83.4375C92.6562 83.2344 92.5 83.1875 92.5 83.3125C92.5 83.4219 92.7812 84.3594 93.125 85.3906C93.4688 86.4219 93.75 87.4063 93.75 87.5781C93.75 87.75 93.0938 88.8594 92.2969 90.0625C91.5156 91.25 90.7344 92.2813 90.5938 92.3594C90.4375 92.4375 90.1562 92.5 89.9688 92.5C89.7656 92.5156 89.4531 92.3906 89.25 92.2344C89.0156 92.0469 88.6719 91.2656 88.2031 89.8438C87.8125 88.6875 87.5 87.6094 87.5 87.4531C87.5 87.3125 87.375 87.125 87.2344 87.0469C87.0469 86.9531 86.6667 87.0052 86.0938 87.2031C85.625 87.375 85.1094 87.5 84.9688 87.5C84.8125 87.5 83.9844 87.1406 81.5625 85.9375L81.0156 84.8438C80.7031 84.2188 80.3906 83.7656 80.2812 83.7969C80.1406 83.8438 80.0625 84.4688 80 85.9844C79.9375 87.5938 79.8594 88.1719 79.6875 88.3438C79.5625 88.4844 78.6094 88.875 75.7031 89.8594L73.0469 92.4844L69.6875 92.5L66.25 90.7812V91.25C66.25 91.5312 66.1094 91.875 65.8594 92.1094C65.5 92.4844 65.4062 92.5 63.4844 92.5C61.5469 92.5 61.4219 92.5156 59.6562 93.125C57.9375 93.7031 57.6875 93.75 54.4531 93.7344L51.4062 90.7031L50.3594 87.5781L48.6562 87.5C47.7188 87.4531 46.8594 87.375 46.75 87.2969C46.6562 87.2344 46.3125 86.7031 45.4688 85H42.5V86.4844C42.5 87.8438 42.4688 88 42.1094 88.3594C41.9062 88.5781 41.5781 88.75 41.375 88.75C41.1719 88.75 40.0469 88.4375 36.7188 87.3438L35.625 85.7031C35.0312 84.7969 34.4375 84.0625 34.3281 84.0781C34.2344 84.0781 33.7969 84.2031 32.5781 84.6406L32.5 86.375C32.4375 87.7656 32.3594 88.1719 32.1406 88.3906C31.9531 88.5938 31.5312 88.6875 29.6406 88.8281L29.1094 90.3906C28.7812 91.3906 28.4688 92.0625 28.25 92.2344C28.0469 92.3906 27.7344 92.5156 27.5312 92.5C27.3438 92.5 27.0625 92.4375 26.9062 92.3594C26.7656 92.2813 26.0781 91.375 24.1406 88.4688L22.9062 87.8594C22.2344 87.5313 21.5781 87.125 21.4687 86.9531C21.2969 86.7188 21.25 86.0625 21.25 84.4063C21.25 83.1875 21.3125 82.0469 21.4062 81.875C21.4844 81.7031 22.2656 81.2031 23.125 80.7813C23.9844 80.3438 24.8594 80 25.0781 80C25.4531 80 25.4688 79.9844 25.2344 79.5313C25.0469 79.1719 25 78.4375 25 73.4375L26.25 70.9375V68.9844C26.25 67.125 26.2656 67.0156 26.6406 66.6406C27 66.2656 27.0938 66.25 28.9375 66.25C30.3594 66.25 30.9375 66.1875 31.1719 66.0313C31.4688 65.8125 31.4219 65.75 30.1562 64.4063C29.4219 63.6406 28.4219 62.4688 27.9375 61.7813C27.4531 61.1094 26.6719 59.8125 26.2188 58.9063C25.75 58 25.1875 56.7031 24.9688 56.0156C24.7344 55.3281 24.4062 54.0313 24.2188 53.125C24.0312 52.2188 23.8438 50.6406 23.7969 49.6094C23.75 48.5469 23.7969 47.0938 23.8906 46.25C24 45.4375 24.25 44.0625 24.4688 43.2031C24.6875 42.3438 25.125 41 25.4375 40.2344C25.7656 39.4531 26.3125 38.2969 26.6875 37.6563C27.0469 37.0156 27.7188 36 28.1719 35.3906C28.625 34.7969 29.4688 33.7813 30.0781 33.1406C30.6719 32.5156 31.9062 31.4375 32.8125 30.7656C33.7188 30.0781 35.2344 29.1406 36.1719 28.6719C37.1094 28.2031 38.4531 27.6406 39.1406 27.4063C39.8281 27.1875 41.1562 26.8281 42.1094 26.6406C43.4219 26.3594 44.375 26.2813 46.0938 26.2656ZM40 29.7813C39.0938 30.0781 37.7344 30.6563 36.9531 31.0625C36.1719 31.4688 35.0156 32.1875 34.375 32.6563C33.7344 33.1406 32.7188 34.0156 32.125 34.625C31.5156 35.2188 30.6406 36.2344 30.1562 36.875C29.6875 37.5156 28.9688 38.6719 28.5625 39.4531C28.1719 40.2188 27.6562 41.3906 27.4219 42.0313C27.1875 42.6719 26.875 43.7969 26.7031 44.5313C26.5469 45.2656 26.3594 46.7344 26.3125 47.8125C26.2344 49.2656 26.2812 50.2344 26.4688 51.5625C26.625 52.5469 26.9688 54.0625 27.25 54.9219C27.5469 55.7813 28.0312 57.0156 28.3594 57.6563C28.6875 58.2969 29.2969 59.3594 29.7344 60C30.1719 60.6406 31.2656 61.9219 32.1719 62.8281C33.0781 63.7344 34.3906 64.8594 35.0781 65.3125C35.7656 65.7813 36.9531 66.4531 37.7344 66.8125C38.5 67.1875 39.8125 67.6719 40.625 67.8906C41.4375 68.125 42.3594 68.3906 42.6562 68.4844C43.1719 68.6563 43.3125 68.875 44.6875 71.5938C45.5 73.2188 46.2031 74.5313 46.25 74.5313C46.2969 74.5313 47 73.2188 47.8125 71.5938C49.1875 68.875 49.3281 68.6563 49.8438 68.4844C50.1406 68.3906 51.0625 68.1094 51.875 67.8906C52.6875 67.6719 53.9219 67.2188 54.6094 66.8906C55.2969 66.5781 56.5 65.9063 57.2656 65.4063C58.1406 64.8438 59.2969 63.8594 60.3281 62.8281C61.3281 61.8438 62.3438 60.6406 62.8594 59.8438C63.3281 59.1094 63.9375 58.0625 64.2188 57.5C64.5 56.9375 64.9531 55.7813 65.2344 54.9219C65.5156 54.0625 65.8594 52.625 66 51.7188C66.1406 50.8125 66.25 49.4844 66.25 48.75C66.25 48.0156 66.1406 46.6875 66 45.7813C65.875 44.875 65.5156 43.4063 65.2188 42.5C64.9062 41.5938 64.3438 40.2188 63.9375 39.4531C63.5313 38.6719 62.8125 37.5156 62.3438 36.875C61.8594 36.2344 60.9844 35.2188 60.375 34.625C59.7812 34.0156 58.7656 33.1406 58.125 32.6563C57.4844 32.1875 56.25 31.4375 55.3906 30.9844C54.5312 30.5469 53.125 29.9688 52.2656 29.6875C51.4062 29.4219 50.0312 29.0938 49.2188 28.9688C48.4062 28.8594 47 28.7656 46.0938 28.7656C45.1875 28.7813 43.8125 28.875 43.0469 29C42.2812 29.125 40.9062 29.4688 40 29.7813ZM85.2969 52.7344C86.0312 54.25 86.25 54.8281 86.25 55C86.25 55.1719 85.9062 56.0156 85.4688 56.875C85.0469 57.7344 84.5469 58.5 84.375 58.5938C84.2031 58.6875 83.6094 58.75 83.0469 58.75H82.0312C81.1875 60.4531 80.7969 61 80.625 61.0938C80.4531 61.1875 79.6875 61.25 78.9062 61.25H77.5C77.5 62.4531 77.4375 62.9531 77.3438 63.125C77.2656 63.2969 76.4844 63.7813 75.625 64.2188C74.7656 64.6406 73.8906 65 73.6719 65C73.4375 65 73.0312 64.7656 72.625 64.375C72.25 64.0469 71.7969 63.7656 71.6094 63.75C71.2812 63.75 71.25 63.8281 71.25 64.6094C71.25 65.2969 71.1719 65.5469 70.9062 65.8281C70.6406 66.0781 69.8281 66.3438 67.6875 66.875C65.0156 67.5313 64.8125 67.5625 64.4062 67.3438C64.1719 67.2031 63.9219 66.9063 63.8281 66.6719C63.7031 66.3281 63.7656 65.9688 64.125 64.875C64.375 64.125 64.5938 63.4219 64.625 63.3125C64.6562 63.2188 64.5156 63.0313 64.2969 62.9219C63.9219 62.75 63.8594 62.7969 62.7031 64.0469C62.0312 64.7656 60.8594 65.8594 60.0781 66.4531C59.3125 67.0469 58.1875 67.8281 57.5781 68.1719C56.9844 68.5156 55.8594 69.0781 55.0781 69.4219C54.3125 69.75 53.0781 70.1875 52.375 70.3594L51.0625 70.7031C47.4219 77.8906 47.0469 78.5469 46.6875 78.6719C46.3958 78.776 46.1094 78.776 45.8281 78.6719C45.4531 78.5469 45.0781 77.9063 43.4375 74.6406L41.4844 70.75C39.4219 70.1563 38.2656 69.75 37.5781 69.4844C36.8906 69.2031 35.7344 68.625 35 68.1875L33.6719 67.3906L31.6406 68.75H28.75C28.75 71.4844 28.7188 71.625 28.125 72.8125L27.5 74.0625V78.4375C28.4688 80.375 28.75 81.1094 28.75 81.3281C28.75 81.5469 28.5781 81.8906 28.3594 82.1094C28.0156 82.4688 27.8594 82.5 26.6406 82.5C25.5312 82.5 25.1875 82.5625 24.5312 82.8906L23.75 83.2813V85.4688C25.6719 86.4219 25.9688 86.6875 26.4531 87.4063C26.7656 87.8906 27.0625 88.2813 27.1094 88.2813C27.1562 88.2813 27.2969 87.9219 27.4219 87.5C27.5625 87.0469 27.8125 86.625 28.0156 86.4844C28.2031 86.3438 28.7031 86.25 29.1875 86.25H30C30 83.7344 30.0625 83.2656 30.25 83.0156C30.4062 82.7812 31.1719 82.4531 32.7031 81.9375C34.2656 81.4219 35.0469 81.2344 35.3594 81.2969C35.6875 81.375 36.0781 81.8438 37.0781 83.3125C38.3125 85.1406 38.3906 85.2188 39.1875 85.5L40 85.7813C40 83.4219 40.0469 83.2344 40.3906 82.8906C40.7656 82.5 40.7812 82.5 43.6719 82.5C45.2812 82.5 46.7031 82.5625 46.875 82.6563C47.0469 82.7344 47.4375 83.2969 47.7344 83.9063L48.2812 85C51.3438 84.9844 51.7031 85.0313 52 85.2656C52.2188 85.4531 52.5625 86.1875 52.9688 87.4219C53.5625 89.2031 53.6406 89.3438 54.5781 90.2812C55.5312 91.2344 55.5625 91.25 56.4062 91.25C57 91.25 57.8594 91.0469 59.1406 90.625C60.7656 90.0781 61.2031 90 62.3906 90H63.75C63.75 88.4375 63.8125 88.2031 64.1406 87.8906C64.3438 87.6719 64.7031 87.5 64.9219 87.5C65.1406 87.5 66.4375 88.0625 67.8125 88.75C69.9844 89.8438 70.4219 90 71.1406 90C71.9375 90 71.9688 89.9844 73.125 88.8281C74.2344 87.7188 74.375 87.6406 75.8594 87.1406L77.4219 86.6094C77.5625 83.7188 77.6719 83.0469 77.8594 82.6875C78 82.4219 78.3125 82.0469 78.5625 81.875C78.7969 81.6875 79.2344 81.4688 79.5312 81.375C79.8281 81.2812 80.3594 81.25 80.7031 81.2969C81.0469 81.3594 81.5781 81.5625 81.875 81.7656C82.2031 81.9844 82.625 82.5156 82.9375 83.0938C83.3594 83.9219 83.5625 84.125 84.2656 84.4688C85 84.8438 85.1406 84.8594 85.7031 84.6875C86.0469 84.5781 86.6562 84.5 87.0781 84.5156C87.5156 84.5313 88.0625 84.6719 88.4375 84.875C88.7812 85.0781 89.2031 85.4063 89.3594 85.625C89.5156 85.8438 89.7969 86.5313 89.9844 87.1406C90.1562 87.7656 90.3438 88.2813 90.3906 88.2813C90.4375 88.2813 90.6094 88.0625 90.7812 87.8125L91.0938 87.3438C90.0312 84.0625 90 83.875 90 81.75C90 79.6094 90.0156 79.5156 90.3906 79.1406C90.6406 78.875 90.9375 78.75 91.2812 78.75C91.7188 78.7656 92 78.9688 93.0469 80C94.0938 81.0313 94.375 81.25 94.8125 81.25H95.3125L93.0469 77.5L89.2969 77.5156L87.9688 78.75C84.625 78.75 84.5156 78.7344 84.1406 78.3594L83.75 77.9688C83.75 72.5156 83.8125 70.8125 83.8906 70.6563C83.9688 70.5156 84.8125 69.8594 85.7656 69.2188L87.5156 68.0469C87.5156 65.7031 87.5156 65.7031 88.1719 65.0625C88.5625 64.6563 89.0469 64.3594 89.375 64.2969C89.6719 64.2344 90.1875 64.2344 90.5156 64.2813C90.8438 64.3281 91.3281 64.5938 91.6562 64.875C91.9688 65.1563 92.5 65.9375 92.8281 66.5938C93.4062 67.7344 93.5 67.8438 94.375 68.2813C94.8906 68.5313 95.3906 68.75 95.4688 68.75C95.5625 68.75 95.5938 68.6563 95.5469 68.5469C95.5156 68.4531 95.4062 68.0625 95.3125 67.6875C95.1875 67.1406 95.0156 66.9375 94.2656 66.4219C93.7656 66.0938 93.0938 65.5313 92.7812 65.1719C92.4531 64.8281 92.0781 64.2969 91.9219 64.0156C91.7812 63.75 91.5781 63.1563 91.4688 62.7344C91.3438 62.2969 91.25 61.7188 91.25 61.4375C91.25 61.1719 91.5 60.4219 91.8125 59.7969L92.3906 58.6719L91.6094 56.3281C89.5 56.1875 89.2969 56.1094 89.0469 55.7813C88.7969 55.4688 88.7344 55.1563 88.75 54.0938C88.75 53.0313 88.6875 52.6875 88.3594 52.0313C88 51.2969 87.9375 51.25 87.375 51.25C86.875 51.25 86.6719 51.375 86.0312 51.9844L85.2969 52.7344ZM46.1094 31.2656C46.9219 31.2656 48.2188 31.3594 49 31.5C49.7656 31.625 50.9688 31.9219 51.6562 32.1406C52.3438 32.3594 53.5938 32.8906 54.4531 33.3438C55.2969 33.7813 56.5625 34.6094 57.25 35.1563C57.9375 35.7188 58.9375 36.6719 59.4531 37.2656C59.9688 37.875 60.6094 38.7188 60.875 39.1406C61.1562 39.5781 61.625 40.4219 61.9219 41.0156C62.2344 41.625 62.625 42.5781 62.8125 43.125C63 43.6875 63.2656 44.6406 63.3906 45.2344C63.5156 45.8438 63.6719 47.1094 63.7188 48.0469C63.7812 49.3281 63.7344 50.2031 63.5312 51.4063C63.375 52.3125 63.0938 53.5781 62.875 54.2188C62.6719 54.875 62.125 56.0938 61.6875 56.9375C61.2344 57.7969 60.4219 59.0469 59.8594 59.75C59.2969 60.4375 58.3438 61.4219 57.75 61.9375C57.1406 62.4531 56.2656 63.125 55.7969 63.4219C55.3281 63.7188 54.2969 64.2656 53.5312 64.6406C52.75 65 51.5625 65.4375 50.875 65.625C50.1875 65.7969 49.125 66.0156 48.5312 66.0938C47.9219 66.1875 46.9062 66.25 46.2656 66.25C45.625 66.25 44.5938 66.1875 44 66.0938C43.3906 66.0156 42.3438 65.7969 41.6562 65.625C40.9688 65.4375 39.7344 64.9844 38.9219 64.5938C38.1094 64.2031 36.9375 63.5625 36.3438 63.1563C35.75 62.7656 34.6562 61.8281 33.9219 61.0938C33.1875 60.375 32.2656 59.2813 31.8594 58.6719C31.4531 58.0781 30.8125 56.9219 30.4219 56.0938C30.0312 55.2813 29.5781 54.0469 29.4062 53.3594C29.2188 52.6719 29.0156 51.625 28.9219 51.0156C28.8438 50.4219 28.7656 49.3594 28.7656 48.6719C28.7656 47.9844 28.8594 46.7969 28.9844 46.0156C29.125 45.25 29.3906 44.0781 29.6094 43.4063C29.8281 42.7344 30.2656 41.6875 30.5781 41.0625C30.8906 40.4375 31.375 39.5781 31.6406 39.1406C31.9219 38.7188 32.5938 37.8438 33.1562 37.2031C33.7031 36.5625 34.7188 35.5938 35.4062 35.0469C36.0938 34.5 37.3906 33.6875 38.2969 33.2188C39.2031 32.7656 40.4688 32.2344 41.1094 32.0469C41.75 31.8438 42.8125 31.5938 43.4531 31.4844C44.0938 31.375 45.2969 31.2813 46.1094 31.2656ZM42.3594 34.2813C41.7969 34.4375 40.6406 34.8906 39.7812 35.3125C38.9219 35.7344 37.7656 36.4219 37.2031 36.8438C36.6406 37.2656 35.7969 38.0313 35.3281 38.5469C34.8594 39.0469 34.2031 39.8594 33.8906 40.3281L33.3281 41.1719C43.2969 41.25 49.1094 41.25 52.6875 41.2188L59.2031 41.1719C58.3125 39.8594 57.6406 39.0156 57.125 38.4688C56.6094 37.9219 55.7344 37.1406 55.1719 36.7188C54.6094 36.3125 53.625 35.7188 52.9844 35.3906C52.3438 35.0625 51.5313 34.7031 51.1875 34.5938C50.8438 34.4688 50.1094 34.2656 49.5469 34.125C48.9844 34 47.7188 33.8594 46.7344 33.8281C45.75 33.7969 44.5781 33.8281 44.1562 33.9063C43.7188 33.9688 42.9219 34.1406 42.3594 34.2813ZM31.8281 44.6875C31.6875 45.2188 31.5 46.1406 31.4062 46.7656C31.2969 47.3906 31.2656 48.5938 31.3125 49.4531C31.3594 50.3125 31.5312 51.6406 31.7188 52.3906L32.0469 53.75H60.4844C61.1094 51.1875 61.1875 50.4063 61.1875 48.75C61.1875 47.1094 61.1094 46.3281 60.8281 45.2031L60.4844 43.75H32.0938L31.8281 44.6875ZM33.5469 56.6875C33.6875 56.9219 34.1094 57.5 34.4688 57.9688C34.8281 58.4531 35.5312 59.2188 36.0469 59.6875C36.5469 60.1719 37.3438 60.8125 37.8125 61.125C38.2969 61.4375 39.0938 61.8906 39.6094 62.1562C40.125 62.4063 40.9688 62.7656 41.4844 62.9531C42 63.1406 43.0625 63.3906 43.8281 63.5313C44.6094 63.6563 45.6875 63.7656 46.25 63.7656C46.8125 63.7656 47.9375 63.6406 48.75 63.5156C49.5625 63.375 50.875 63.0156 51.6406 62.7031C52.4219 62.3906 53.4062 61.9375 53.8281 61.6875C54.2656 61.4219 54.8906 61 55.2344 60.75C55.5781 60.4844 56.2031 59.9375 56.625 59.5469C57.0312 59.1563 57.6719 58.4531 58.0312 57.9688C58.3906 57.5 58.8125 56.9219 58.9531 56.6875L59.2188 56.25H33.2656L33.5469 56.6875Z" fill="#16191C"/>
</svg>
