<svg width="120" height="120" viewBox="0 0 120 120" fill="none" xmlns="http://www.w3.org/2000/svg">
<path opacity="0.3" fill-rule="evenodd" clip-rule="evenodd" d="M44.085 67L29 67L66.7124 29.2876L74.2548 36.8301L74.2548 36.8301L67.0406 74.2128L104.423 66.9985L104.424 67.0011L104.425 67L111.967 74.5425L74.2548 112.255L74.2548 97.1699L90.9816 80.4431L62.9409 85.8545L62.9411 85.8562L55.3986 78.3137L55.4052 78.3146L55.3986 78.3137L60.8095 50.2755L44.085 67Z" fill="#36AF42"/>
<path fill-rule="evenodd" clip-rule="evenodd" d="M80 21.7188L86.8438 25.1406C92.2031 27.8125 93.7812 28.6719 94.1875 29.125C94.4531 29.4375 94.75 29.9531 94.8438 30.2812C94.9219 30.5938 95 31.0312 95 31.25C95 31.4688 94.9219 31.9063 94.8438 32.2344C94.75 32.5469 94.4531 33.0625 94.1875 33.375C93.7812 33.8281 92.1719 34.6875 80 40.7812V36.25H68.75V33.75H82.5V36.7188L87.375 34.2656C90.0625 32.9063 92.3281 31.6719 92.4219 31.5312C92.5312 31.3281 92.5312 31.1719 92.4219 30.9844C92.3281 30.8281 90.0625 29.5938 82.5 25.7812V28.75H66.25V26.25H80V21.7188ZM43.6719 33.7656C61.7969 33.75 63.0938 33.7656 63.8125 34.0156C64.3333 34.2031 64.8021 34.5365 65.2188 35.0156C65.5781 35.4062 65.9375 36 66.0469 36.3438C66.2031 36.8125 66.25 40.7656 66.25 69.4531L67.2188 69.9531C67.7656 70.2344 68.8281 70.875 69.6094 71.3906C70.375 71.9062 71.5781 72.7812 72.2656 73.3281C72.9531 73.8906 74.1562 75 74.9375 75.7969C75.7031 76.6094 76.9062 78.0156 77.5938 78.9375C78.2656 79.8594 79.1563 81.2031 79.5625 81.9062C79.9688 82.625 80.6562 83.9844 81.0781 84.9219C81.5 85.875 82.0938 87.4531 82.3906 88.4375C82.6875 89.4219 83.0938 91.1094 83.2656 92.1875C83.4531 93.2656 83.6562 95.1719 83.8281 98.75H21.25V97.3438C21.25 96.5781 21.3281 95.25 21.4062 94.4219C21.5 93.5781 21.7188 92.1562 21.8906 91.25C22.0781 90.3438 22.5 88.7656 22.8281 87.7344C23.1719 86.7031 23.9062 84.9531 24.4531 83.8281C25 82.7188 25.8438 81.2031 26.3281 80.4688C26.8125 79.7344 27.7188 78.5156 28.3594 77.7344C28.9844 76.9688 30.0938 75.75 32.1875 73.75H28.3125C25.7656 73.75 24.2344 73.6875 23.8281 73.5625C23.4375 73.4375 22.8906 73.0625 22.4219 72.5781C21.9375 72.1094 21.5625 71.5469 21.4375 71.1719C21.2969 70.7031 21.25 66.3594 21.25 53.75C21.25 41.1406 21.2969 36.7969 21.4375 36.3281C21.5625 35.9531 21.9375 35.3906 22.4219 34.9219C22.8438 34.4844 23.4531 34.0469 23.75 33.9531C24.1406 33.8281 30.0312 33.7812 43.6719 33.7656ZM23.7656 37.0156L23.75 70.4688L24.5312 71.25H35.5469C37.3594 70.1719 38.5781 69.5469 39.4062 69.1562C40.25 68.7656 41.7656 68.1562 42.7656 67.8281C43.7812 67.4844 45.3438 67.0781 46.25 66.8906C47.1562 66.7188 48.6562 66.5 49.6094 66.3906C50.6406 66.2812 52.2188 66.25 53.5938 66.2969C54.8438 66.3594 56.6719 66.5312 57.6562 66.7031C58.6406 66.875 60.2969 67.2656 61.3281 67.5781C62.3594 67.8906 63.3281 68.1719 63.4688 68.2031C63.7344 68.2812 63.75 67.4688 63.75 52.6562V37.0312L62.9688 36.25H52.5V46.25H35V36.25H24.5156L23.7656 37.0156ZM37.5 43.75H40V38.75H42.5V43.75H45V38.75H47.5V43.75H50V36.25H37.5V43.75ZM46.875 69.3125C46.1406 69.4531 44.6406 69.8594 43.5156 70.2344C42.4062 70.5938 40.75 71.2656 39.8438 71.7188C38.9375 72.1719 37.6094 72.9219 36.875 73.4062C36.1406 73.875 35.0156 74.6875 34.375 75.2188C33.7344 75.7344 32.7188 76.6562 32.1094 77.2656C31.5156 77.875 30.5469 78.9531 29.9844 79.6875C29.4062 80.4219 28.625 81.5 28.25 82.1094C27.8594 82.7031 27.1875 83.9062 26.7656 84.7656C26.3281 85.625 25.75 86.9531 25.4844 87.7344C25.2031 88.5 24.8125 89.8125 24.6094 90.625C24.4062 91.4375 24.1719 92.6406 24.0781 93.2812C24 93.9219 23.8906 94.8594 23.8438 95.3438L23.75 96.25L26.3281 96.1719C26.5 94.2344 26.6719 93.0781 26.8125 92.3438C26.9531 91.6094 27.2969 90.2812 27.5938 89.375C27.8906 88.4688 28.5 87 28.9219 86.0938C29.3594 85.1875 30.0781 83.8906 30.5312 83.2031C30.9844 82.5156 31.9062 81.2969 32.5938 80.4844C33.2656 79.6719 34.4219 78.4844 35.1562 77.8438C35.8906 77.2188 37.0781 76.2812 37.8125 75.7812C38.5469 75.2969 39.9219 74.5 40.8594 74.0156C41.8125 73.5469 43.2188 72.9531 43.9844 72.6875C44.7656 72.4219 46.0312 72.0625 46.7969 71.8906C47.5781 71.7188 48.8906 71.5156 49.7344 71.4219C50.5625 71.3281 51.8281 71.25 52.5469 71.25C53.25 71.25 54.4688 71.3281 55.2344 71.4062C56.0156 71.5 57.2031 71.6719 57.8906 71.8125C58.5781 71.9531 59.875 72.3125 60.7812 72.6094C61.6875 72.9062 63.2031 73.5469 64.1406 74.0156C65.0938 74.5 66.4844 75.3125 67.25 75.8438C68.0312 76.3594 69.2188 77.2969 69.9062 77.9062C70.6094 78.5 71.7344 79.6719 72.4062 80.4844C73.0938 81.2812 74.0156 82.5156 74.4688 83.2031C74.9219 83.8906 75.6406 85.1875 76.0781 86.0938C76.5156 87 77.1094 88.4688 77.4062 89.375C77.7031 90.2812 78.0625 91.6094 78.1875 92.3438C78.3281 93.0781 78.5 94.2344 78.5625 94.9219L78.6719 96.1719L81.25 96.25C81.1094 94.8594 81 93.9219 80.9219 93.2812C80.8281 92.6406 80.6562 91.6562 80.5156 91.0938C80.3906 90.5312 80.0469 89.3438 79.7656 88.4375C79.4688 87.5312 78.7344 85.8125 78.1406 84.6094C77.5312 83.4062 76.5938 81.8125 76.0625 81.0625C75.5156 80.3125 74.5781 79.125 73.9531 78.4062C73.3281 77.6875 72.25 76.6094 71.5625 76.0156C70.8594 75.4062 69.6875 74.4844 68.9375 73.9531C68.1875 73.4062 66.625 72.4844 65.4688 71.8906C64.3125 71.3125 62.5469 70.5625 61.5625 70.2344C60.5781 69.9219 59.1406 69.5312 58.3594 69.375C57.5938 69.2031 56.2656 69 55.4375 68.9219C54.5938 68.8281 53.1562 68.7656 52.2344 68.7656C51.2969 68.7812 50.0156 68.8438 49.375 68.9219C48.7344 69 47.6094 69.1719 46.875 69.3125ZM48.9062 74.0781C48.2656 74.1719 47.0469 74.4219 46.2031 74.6562C45.375 74.8906 44.6875 75.1406 44.6875 75.2344C44.6875 75.3125 44.8594 75.7969 45.0781 76.2812C45.2969 76.7813 45.4688 77.2344 45.4688 77.2969C45.4688 77.375 45 77.6094 44.4219 77.8594C43.8281 78.0938 43.3281 78.2812 43.2812 78.2812C43.2344 78.2812 43 77.7969 42.7344 77.2031L42.2656 76.1094C40.9375 76.7969 39.9219 77.4219 39.1406 77.9531C38.375 78.4688 37.4844 79.1094 37.1875 79.375L36.6406 79.8438L38.3594 81.5625L36.5625 83.3594L34.8438 81.6406C34.125 82.4844 33.4844 83.3594 32.9531 84.1406C32.4219 84.9062 31.7969 85.9375 31.5625 86.4062L31.1094 87.2656C32.7969 87.9375 33.2812 88.1719 33.2812 88.2344C33.2812 88.3125 33.0938 88.8281 32.8594 89.4062C32.625 90 32.375 90.4688 32.3125 90.4688C32.2344 90.4688 31.7812 90.2969 31.2969 90.0781C30.7969 89.8594 30.3281 89.6719 30.2344 89.6719C30.1562 89.6719 29.8906 90.3594 29.6562 91.2031C29.4375 92.0469 29.1719 93.2656 29.0781 93.9062C28.9844 94.5469 28.8906 95.3438 28.875 95.6562L28.8281 96.25C44.5469 96.25 46.4062 96.2031 46.4062 96.0469C46.4062 95.9531 46.625 95.4062 46.8906 94.8438C47.2031 94.2031 47.7031 93.5156 48.2656 92.9688C49.1094 92.1406 49.2031 91.9844 50.9219 87.8906C51.8906 85.5781 52.9219 83.3125 53.2031 82.8906C53.4844 82.4531 54.1875 81.6719 54.75 81.125C55.4688 80.4531 56.2188 79.9531 57.2344 79.4531C58.5781 78.7969 58.6875 78.7656 58.875 79.0156C58.9844 79.1719 59.25 79.8594 59.4844 80.5469C59.7188 81.2969 59.9062 82.3281 59.9531 83.125C60 83.9844 59.9531 84.8438 59.7969 85.5469C59.6719 86.1406 58.9688 88.0781 58.2344 89.8438L56.8906 93.0469C57.5156 93.7656 57.9062 94.4062 58.1562 94.9219C58.3906 95.4375 58.5938 95.9531 58.5938 96.0469C58.5938 96.2031 60.4688 96.25 67.4219 96.25H76.25C76.1406 95.4688 76.0312 94.6719 75.9375 93.9844C75.8438 93.2969 75.5781 92.0469 75.3438 91.2031C75.1094 90.3594 74.8594 89.6719 74.7656 89.6719C74.6875 89.6719 74.2031 89.8594 73.7188 90.0781C73.2187 90.2969 72.7656 90.4688 72.7031 90.4688C72.625 90.4688 72.3906 90 72.1562 89.4062C71.9062 88.8281 71.7188 88.3281 71.7188 88.2812C71.7188 88.2344 72.2031 87.9844 72.7969 87.7344L73.8906 87.2656C73.2031 85.9375 72.5781 84.9062 72.0469 84.1406C71.5312 83.3594 70.8906 82.4844 70.625 82.1875L70.1562 81.6406L68.4375 83.3594L66.6406 81.5625L68.3594 79.8438C67.5156 79.1094 66.6406 78.4688 65.8594 77.9531C65.0938 77.4219 64.0625 76.7969 63.5938 76.5469L62.7344 76.1094C62.0156 77.7969 61.7656 78.2812 61.7188 78.2812C61.6719 78.2812 61.1719 78.0938 60.5938 77.8594C60.0156 77.6094 59.5312 77.375 59.5312 77.2969C59.5312 77.2344 59.7031 76.7813 59.9219 76.2812C60.1406 75.7969 60.3281 75.3125 60.3281 75.2344C60.3281 75.1406 59.6406 74.8906 58.7969 74.6562C57.9531 74.4219 56.7344 74.1719 56.0938 74.0781C55.4531 73.9844 54.6562 73.8906 54.3438 73.875L53.75 73.8281V76.25H51.25C51.25 74.3125 51.2031 73.7656 51.1406 73.7656C51.0625 73.7812 50.8125 73.8281 50.5469 73.8438C50.2969 73.875 49.5469 73.9844 48.9062 74.0781ZM55.4844 83.9844C55.1875 84.4062 54.3281 86.2031 53.5781 87.9688L52.2344 91.1719C53.3438 91.3281 53.9219 91.4219 54.2188 91.4844L54.7656 91.5938C56.625 87.1406 57.2344 85.5469 57.3281 85.1562C57.4219 84.7656 57.5 84.0312 57.5 83.5156C57.5 83 57.4375 82.5 57.3594 82.3906C57.2812 82.2656 57.0625 82.3594 56.6406 82.7031C56.3125 82.9844 55.7969 83.5469 55.4844 83.9844ZM50.2344 94.5625C49.9375 94.8125 49.5469 95.2344 49.375 95.5C49.2031 95.7812 49.0625 96.0625 49.0625 96.125C49.0625 96.2031 50.6094 96.25 52.5 96.25C54.3906 96.25 55.9375 96.2188 55.9375 96.1719C55.9375 96.125 55.8438 95.9062 55.7188 95.6562C55.6094 95.4219 55.2344 94.9844 54.8906 94.6875C54.5469 94.3906 53.9844 94.0469 53.6562 93.9531C53.3281 93.8438 52.7656 93.7656 52.4219 93.7656C52.0781 93.7656 51.5625 93.8594 51.2969 93.9531C51.0156 94.0625 50.5312 94.3281 50.2344 94.5625ZM83.75 41.7188L90.5156 45.0938C94.2344 46.9531 97.4688 48.6562 97.7188 48.875C97.9531 49.1094 98.2969 49.5625 98.4531 49.875C98.625 50.2344 98.75 50.7969 98.75 51.25C98.75 51.7031 98.625 52.2812 98.4531 52.6094C98.2969 52.9375 97.9375 53.4062 97.6406 53.6562C97.3438 53.9062 94.1094 55.6094 83.75 60.7812V56.25H71.25V53.75H86.25V56.7188L91.125 54.25C93.8125 52.9062 96.0781 51.6719 96.1719 51.5156C96.2812 51.3281 96.2812 51.1719 96.1719 50.9688C96.0781 50.8281 93.8125 49.5938 86.25 45.7812V48.75H68.75V46.25H83.75V41.7188ZM56.25 26.25H58.75V28.75H56.25V26.25ZM61.25 26.25H63.75V28.75H61.25V26.25ZM26.25 61.25H28.75V63.75H26.25V61.25ZM31.25 61.25H33.75V63.75H31.25V61.25ZM36.25 61.25H38.75V63.75H36.25V61.25ZM26.25 66.25H38.75V68.75H26.25V66.25Z" fill="#16191C"/>
</svg>
