<svg width="120" height="120" viewBox="0 0 120 120" fill="none" xmlns="http://www.w3.org/2000/svg">
<path opacity="0.3" fill-rule="evenodd" clip-rule="evenodd" d="M44.085 67L29 67L66.7124 29.2876L74.2548 36.8301L74.2548 36.8301L67.0406 74.2128L104.423 66.9985L104.424 67.0011L104.425 67L111.967 74.5425L74.2548 112.255L74.2548 97.1699L90.9816 80.4431L62.9409 85.8545L62.9411 85.8562L55.3986 78.3137L55.4052 78.3146L55.3986 78.3137L60.8095 50.2755L44.085 67Z" fill="#36AF42"/>
<path fill-rule="evenodd" clip-rule="evenodd" d="M55.3125 20.0156C56.3281 20 56.875 20.0781 57.6562 20.3594C58.2188 20.5625 58.9531 20.9063 59.2969 21.125C59.6406 21.3438 60.25 21.875 60.6719 22.3281C61.0781 22.7656 61.5625 23.4375 62.1094 24.5313H65.625C68.9219 24.5156 69.1719 24.5469 69.5781 24.8438C69.9219 25.1094 70 25.2813 70 26.5625L76.6094 26.6094C81.4062 26.6406 83.3594 26.7031 83.75 26.8594C84.0469 26.9688 84.6406 27.3125 85.0625 27.625C85.5156 27.9688 86.0312 28.5469 86.7969 29.9219L86.8438 35.9375C86.8594 39.25 86.9219 42.0625 86.9531 42.1875C87.0156 42.375 87.0938 42.3594 87.3906 42.0781C87.5781 41.8906 88.0469 41.5938 88.4375 41.4219C88.9375 41.1875 89.4688 41.0938 90.2812 41.0938C91.2969 41.0938 91.5312 41.1563 92.6875 41.75C93.4062 42.125 94.2969 42.7344 94.6875 43.125C95.1719 43.5938 95.5156 44.1406 95.75 44.7656C95.9375 45.2813 96.0938 45.9844 96.0938 46.3281C96.0938 46.6719 95.9688 47.2656 95.8281 47.6563C95.6875 48.0469 93.6094 51.75 86.875 63.4375V96.3281L86.4375 97.2656C86.1875 97.7812 85.7344 98.4375 85.4219 98.7188C85.0938 98.9844 84.4688 99.3906 83.2031 100H27.6562L26.75 99.5469C26.2656 99.2969 25.5781 98.7969 25.2188 98.4219C24.875 98.0469 24.4531 97.375 24.2812 96.9531C23.9844 96.1875 23.9844 95.4688 23.9844 63.3594C23.9844 32.7969 24 30.5 24.25 29.7656C24.4063 29.3281 24.8281 28.6406 25.1875 28.2344C25.5781 27.7813 26.2188 27.2969 27.5781 26.6406L40.7812 26.5625V26.0938C40.7812 25.8438 40.8594 25.4688 40.9688 25.2656C41.0625 25.0781 41.25 24.8438 41.3906 24.7344C41.5781 24.5938 42.6406 24.5469 48.75 24.5313L49 24.0156C49.1406 23.75 49.5156 23.1719 49.8281 22.75C50.1406 22.3281 50.7344 21.7344 51.1719 21.4219C51.5938 21.1094 52.4062 20.6719 52.9688 20.4375C53.7812 20.1094 54.25 20.0156 55.3125 20.0156ZM52.1719 23.8906C51.6875 24.375 51.3438 24.9375 51.0781 25.6094C50.875 26.1563 50.5625 26.7031 50.3906 26.8281C50.1562 26.9844 49.2812 27.0313 46.6719 27.0313H43.2812V33.5938H67.5V27.0313C61.1562 27.0469 60.8281 27.0156 60.4688 26.75C60.25 26.5781 59.9844 26.1406 59.8594 25.7656C59.75 25.3906 59.4531 24.7969 59.2188 24.4531C58.9844 24.1094 58.5156 23.6406 58.1875 23.4063C57.8438 23.1563 57.2188 22.8594 56.7969 22.7344C56.3594 22.6094 55.7031 22.5 55.3125 22.5C54.9219 22.5156 54.2188 22.6719 53.75 22.8438C53.2344 23.0469 52.6094 23.4688 52.1719 23.8906ZM27 29.9219C26.6875 30.3125 26.5312 30.7031 26.4844 31.2813C26.4375 31.7344 26.4062 46.4531 26.4375 63.9844C26.4844 95.5312 26.4844 95.8594 26.7969 96.3906C26.9688 96.6719 27.3594 97.0469 27.6562 97.2031C28.1875 97.4844 29.1563 97.5 55.4375 97.5C78.5 97.5 82.7188 97.4688 83.0781 97.2812C83.3281 97.1562 83.6875 96.875 83.9062 96.6406L84.2969 96.2188C84.3594 80.4375 84.3594 74.0625 84.3438 71.875L84.2969 67.8906L82.0469 71.7969L82.0312 94.5312C81.1719 95.1719 81.0781 95.1719 55.3438 95.1562H29.5312L28.75 94.2188L28.8281 32.2031C29.5469 31.4844 29.5469 31.4844 35.1562 31.4375L40.7812 31.4063V29.0625C31.2812 29.0781 28.2812 29.1563 27.9844 29.2344C27.6719 29.3125 27.2656 29.6094 27 29.9219ZM69.9688 30.3438L70 31.4063L81.4375 31.4844C82.0312 32.25 82.0469 32.5625 82.0312 41.2031C82.0312 47.0781 82.0781 50.1563 82.1875 50.1563C82.2656 50.1563 82.7969 49.3438 83.3594 48.3594L84.375 46.5625C84.375 30.9844 84.3594 30.6875 84.0625 30.1875C83.8906 29.9219 83.5625 29.5625 83.3281 29.4063C82.9531 29.1719 82.2969 29.1406 76.5625 29.0938C73.0781 29.0625 70.1562 29.0938 70.0781 29.1563C70.0156 29.2188 69.9531 29.75 69.9688 30.3438ZM31.2188 63.3906L31.25 92.6562H79.5312C79.5312 80 79.4844 76.3906 79.4219 76.4531C79.3594 76.5312 79.0156 77.0469 78.6719 77.6094L78.0469 78.6406C72.2344 81.9844 70.3906 82.9688 70.1875 82.9688C70 82.9688 69.6563 82.7969 69.4062 82.5938L68.9844 82.2188V73.2031L79.5312 55L79.4688 33.9063L70.0781 33.9844C69.9531 35.125 69.7969 35.5781 69.6406 35.7344C69.375 36 68.5938 36.0156 55.5469 36.0469L41.7188 36.0938C40.8906 35.2656 40.7812 35.0156 40.7812 34.5313V33.9063C33.5625 33.9063 31.4062 33.9531 31.3281 34.0156C31.25 34.0625 31.2031 47.2813 31.2188 63.3906ZM80.3594 58.5156C75.8438 66.3281 72.125 72.8594 72.0938 73C72.0469 73.2031 72.2188 73.375 72.6562 73.5938L73.2812 73.9062C74.2188 72.2656 78.0625 65.6094 82.4219 58.0469C86.7812 50.4844 90.4375 44.1406 90.5625 43.9375C90.7812 43.6094 90.7656 43.5938 90.1875 43.5938C89.8281 43.5938 89.3906 43.7344 89.0781 43.9375C88.6719 44.2188 86.75 47.4375 80.3594 58.5156ZM84.1719 60C79.4844 68.125 75.6094 74.875 75.5625 75C75.5 75.1562 75.6719 75.3438 76.0938 75.5781C76.4375 75.7812 76.75 75.9219 76.7656 75.8906C76.7969 75.875 80.5469 69.3906 85.1094 61.4844C89.6719 53.5781 93.4375 46.8906 93.4844 46.6406C93.5312 46.375 93.5 45.9375 93.3906 45.6406C93.2812 45.3438 93.125 45.0781 93.0312 45.0469C92.9375 45.0156 92.8125 45.0469 92.7812 45.1094C92.7344 45.1719 88.8594 51.875 84.1719 60ZM71.5938 79.375C71.7031 79.375 72.4219 79 73.1719 78.5469C73.9219 78.0938 74.5469 77.7031 74.5469 77.6562C74.5312 77.6094 73.9062 77.2031 73.125 76.75C72.3594 76.3125 71.6406 75.9375 71.5625 75.9375C71.4688 75.9375 71.4062 76.6094 71.4062 77.6562C71.4062 78.9375 71.4531 79.375 71.5938 79.375ZM55.5 24.5313C55.7917 24.5313 56.1198 24.7135 56.4844 25.0781C56.8594 25.4531 57.0312 25.7656 57.0312 26.0938C57.0312 26.4219 56.8594 26.7344 56.5 27.1094C56.1562 27.4531 55.8281 27.6563 55.5625 27.6563C55.3438 27.6563 54.9687 27.5625 54.75 27.4531C54.5156 27.3594 54.2344 27.0781 54.125 26.8281C54 26.5938 53.9062 26.25 53.9062 26.0469C53.9219 25.8594 54.0312 25.5313 54.1562 25.3281C54.2969 25.125 54.5625 24.8594 54.7344 24.75C54.9219 24.6406 55.2656 24.5469 55.5 24.5313ZM47.0312 40.4688L47.8125 41.25V45.1875C47.8125 49.0625 47.7969 49.1406 47.4531 49.5C47.1094 49.8438 47.0625 49.8594 39.2188 49.8438L38.4375 49.0625V45.3125C38.4375 42.625 38.5 41.4531 38.625 41.1719C38.7344 40.9531 38.9688 40.7188 39.1406 40.6406C39.3125 40.5625 41.1562 40.4844 47.0312 40.4688ZM40.9375 47.3438H45.3125V42.9688H40.9375V47.3438ZM63.6719 40.7813C63.8906 40.7813 64.2656 40.9844 64.5312 41.25C64.7812 41.5 65 41.8438 65 41.9844C64.9844 42.1406 64.9062 42.4219 64.7969 42.5938C64.6875 42.7813 63.3438 44.0781 61.7969 45.4844C60.25 46.875 58.6094 48.3594 58.1562 48.7813C57.5156 49.375 57.2344 49.5313 56.7969 49.5313C56.3125 49.5313 56.0625 49.3438 54.6719 48C53.7969 47.1719 53 46.2969 52.875 46.0469C52.75 45.8125 52.6562 45.5156 52.6562 45.3906C52.6562 45.2656 52.8594 44.9375 53.1094 44.6875C53.4219 44.375 53.7188 44.2188 54.0156 44.2188C54.3438 44.2344 54.7344 44.5156 56.8594 46.6406L59.4062 44.3125C60.8125 43.0156 62.25 41.7031 62.6094 41.375C63.0156 41.0156 63.4375 40.7813 63.6719 40.7813ZM43.1562 53.4531C45.8594 53.4375 46.8281 53.4844 47.1406 53.6562C47.3906 53.7656 47.625 53.9844 47.6875 54.125C47.7656 54.2656 47.8125 56.125 47.8125 58.2813C47.8125 61.9844 47.7969 62.2031 47.5 62.5C47.3281 62.6719 46.9531 62.8594 46.6719 62.9062C46.4062 62.9531 44.5938 62.9688 39.1875 62.8906L38.8125 62.4531C38.4375 62.0312 38.4375 62.0156 38.4375 58.2344C38.4375 55.0156 38.4688 54.4062 38.6875 54.0938C38.8281 53.8906 39.0938 53.6719 39.2812 53.5938C39.4531 53.5156 41.2031 53.4531 43.1562 53.4531ZM40.9375 60.4688H45.3125V55.9375H40.9375V60.4688ZM63.9844 53.8594C64.1562 53.9063 64.3906 54.0312 64.5156 54.125C64.625 54.2188 64.7969 54.4531 64.8594 54.6406C64.9375 54.8438 64.9688 55.1562 64.9219 55.3438C64.875 55.5625 63.3281 57.0781 61.2344 58.9844C59.2656 60.7813 57.4531 62.3438 57.2188 62.4375C56.9375 62.5625 56.6667 62.5729 56.4062 62.4688C56.1875 62.3906 55.3281 61.6406 54.5 60.8125C53.6562 59.9844 52.8906 59.125 52.7969 58.9063C52.6719 58.6094 52.6719 58.4063 52.8438 58.0469C52.9531 57.7969 53.2344 57.5 53.4688 57.3906C53.7188 57.2813 54.0625 57.2344 54.25 57.2813C54.4531 57.3438 55.125 57.8906 56.875 59.6094L57.4688 59.0469C57.7812 58.75 59.1406 57.5 60.4688 56.2969C61.7969 55.0781 63.0625 54.0156 63.2812 53.9375C63.5 53.8438 63.8125 53.8125 63.9844 53.8594ZM39.0781 66.5625H43.0938C47.0312 66.5625 47.1094 66.5781 47.4688 66.9219C47.8125 67.2656 47.8281 67.3125 47.8281 71.1719C47.8281 74.8125 47.8125 75.1094 47.2188 75.8594L43.4062 75.9062C41.0781 75.9375 39.4531 75.8906 39.2188 75.7969C39 75.7031 38.7344 75.4531 38.625 75.2344C38.5 74.9531 38.4375 73.75 38.4219 71.1094C38.4062 67.5 38.4219 67.375 38.75 66.9688L39.0781 66.5625ZM40.9219 73.4375H45.2969V69.0625H40.9219V73.4375ZM55.2969 66.9688C55.5156 67.0156 56.2344 67.5938 58.1094 69.4531L59.3281 68.2656C59.9844 67.6094 60.6875 67.0312 60.8906 66.9688C61.0781 66.9219 61.4375 66.9688 61.6719 67.0938C61.9062 67.2031 62.1562 67.4219 62.2188 67.5625C62.2813 67.7031 62.3281 68.0156 62.3281 68.25C62.3281 68.5781 62.0625 68.9531 61.1562 69.8438C60.5156 70.5 59.9844 71.0938 59.9844 71.1719C60 71.2656 60.5156 71.8594 61.1562 72.5C62.1094 73.4688 62.3125 73.7656 62.3281 74.1875C62.3281 74.5156 62.2031 74.8281 61.9531 75.0781C61.7031 75.3281 61.3906 75.4688 61.0938 75.4688C60.7031 75.4688 60.3594 75.2344 58.0312 73L56.7812 74.2344C55.9219 75.0781 55.4219 75.4688 55.1406 75.4688C54.9375 75.4844 54.5625 75.3438 54.3281 75.1719C53.9844 74.9219 53.8906 74.7188 53.8906 74.2656C53.8906 73.7344 54.0312 73.5469 56.3125 71.2656L55.1094 70.0156C54.1094 68.9688 53.8906 68.6719 53.8906 68.25C53.8906 67.9688 53.9844 67.625 54.0938 67.4844C54.2031 67.3438 54.4219 67.1563 54.5938 67.0625C54.7656 66.9688 55.0938 66.9219 55.2969 66.9688ZM39.1875 79.5312H43.0625C46.7188 79.5312 46.9687 79.5469 47.7969 80.1562V88.2812L47.375 88.6094C46.9688 88.9062 46.7188 88.9219 39.2031 88.9062L38.4219 88.125L38.4375 80.2969L39.1875 79.5312ZM40.9219 86.4062H45.2969V82.0312H40.9219V86.4062ZM63.7188 79.8438C63.9375 79.8438 64.2813 79.9844 64.4844 80.1562C64.6719 80.3281 64.875 80.6406 64.9219 80.8281C64.9688 81.0156 64.9375 81.3437 64.8438 81.5312C64.75 81.7188 63.1406 83.2656 61.2812 84.9688C59.4062 86.6719 57.7031 88.1875 57.4844 88.3281C57.2656 88.4844 56.9219 88.5938 56.7031 88.5938C56.4219 88.5938 55.8281 88.1094 54.5469 86.8438C53.5781 85.875 52.75 84.9375 52.7031 84.7656C52.6562 84.5938 52.7188 84.25 52.8438 83.9844C52.9688 83.7344 53.1875 83.4688 53.3281 83.4062C53.4688 83.3437 53.7656 83.2969 54.0156 83.2969C54.3281 83.2969 54.7344 83.5938 56.7812 85.6406L59.5938 83.0938C61.1406 81.7031 62.6094 80.3906 62.8594 80.2031C63.1094 80.0156 63.5 79.8438 63.7188 79.8438Z" fill="#16191C"/>
</svg>
