<svg width="20" height="20" viewBox="0 0 20 20" fill="none" xmlns="http://www.w3.org/2000/svg">
<path d="M17.6667 7.83333C18.0833 8.15 18.3333 8.64167 18.3333 9.16667V16.6667C18.3333 17.1087 18.1577 17.5326 17.8452 17.8452C17.5326 18.1577 17.1087 18.3333 16.6667 18.3333H3.33333C2.89131 18.3333 2.46738 18.1577 2.15482 17.8452C1.84226 17.5326 1.66667 17.1087 1.66667 16.6667V9.16667C1.66667 8.90792 1.72691 8.65274 1.84262 8.42131C1.95834 8.18988 2.12634 7.98858 2.33333 7.83333L9 2.83333C9.28849 2.61696 9.63938 2.5 10 2.5C10.3606 2.5 10.7115 2.61696 11 2.83333" stroke="white" stroke-linecap="round" stroke-linejoin="round"/>
<path d="M18.3333 9.16663L10.8583 13.9166C10.6011 14.0778 10.3036 14.1633 10 14.1633C9.6964 14.1633 9.39894 14.0778 9.14167 13.9166L1.66667 9.16663" stroke="white" stroke-linecap="round" stroke-linejoin="round"/>
<path d="M13.3333 8.33329L16.6667 4.99996L13.3333 1.66663" stroke="white" stroke-linecap="round" stroke-linejoin="round"/>
<path d="M10 10V8.33333C10 7.44928 10.3512 6.60143 10.9763 5.97631C11.6014 5.35119 12.4493 5 13.3333 5L15.8333 5" stroke="white" stroke-linecap="round" stroke-linejoin="round"/>
</svg>
