<svg width="20" height="20" viewBox="0 0 20 20" fill="none" xmlns="http://www.w3.org/2000/svg">
<g clip-path="url(#clip0_35_309)">
<path d="M14.5703 16.3141L10.6353 14.1344C12.0978 12.9837 12.495 10.7225 12.495 9.45466V6.8156C12.495 5.0681 10.1731 3.12185 7.84096 3.12185C5.50939 3.12185 3.12596 5.06841 3.12596 6.8156V9.45466C3.12596 10.6075 3.61375 12.9397 5.09127 14.1244L1.05469 16.3141C1.05469 16.3141 0 16.7841 0 17.37V18.9537C0 19.5366 0.473105 20.0097 1.05469 20.0097H14.5703C15.1525 20.0097 15.6256 19.5366 15.6256 18.9537V17.37C15.6256 16.7488 14.5703 16.3141 14.5703 16.3141L14.5703 16.3141ZM14.3756 18.7597H1.25004V17.6422C1.33973 17.5769 1.46504 17.5013 1.56379 17.456C1.59314 17.4425 1.62252 17.4285 1.65033 17.4125L5.68721 15.2232C6.05533 15.0235 6.29939 14.6532 6.33658 14.2363C6.37377 13.8194 6.19971 13.411 5.87346 13.1491C4.82533 12.3088 4.37627 10.4475 4.37627 9.45472V6.81565C4.37627 5.91784 6.06877 4.3719 7.84127 4.3719C9.64658 4.3719 11.2453 5.89661 11.2453 6.81565V9.45472C11.2453 10.4338 10.9413 12.3032 9.86283 13.1516C9.70027 13.2796 9.57197 13.4459 9.4894 13.6356C9.40684 13.8253 9.37258 14.0326 9.38971 14.2388C9.40711 14.4449 9.4753 14.6434 9.58818 14.8167C9.70106 14.99 9.85512 15.1327 10.0366 15.2319L13.9716 17.4116C14.0063 17.4307 14.0504 17.4513 14.0869 17.4672C14.1791 17.5063 14.2925 17.5716 14.3756 17.6291V18.7597ZM18.9447 13.2019L14.9513 11.0222C16.4138 9.87157 16.8697 7.61032 16.8697 6.34249V3.70343C16.8697 1.95593 14.4894 -0.0100098 12.1572 -0.0100098C10.6416 -0.0100098 9.09191 0.814053 8.19002 1.86938C8.70441 1.90124 9.2716 1.90188 9.7616 2.05813C10.42 1.54532 11.2532 1.24032 12.1572 1.24032C13.9625 1.24032 15.6197 2.78437 15.6197 3.70376V6.34282C15.6197 7.32187 15.2572 9.19126 14.1788 10.0397C14.0162 10.1677 13.8879 10.334 13.8053 10.5237C13.7228 10.7135 13.6885 10.9207 13.7056 11.1269C13.7231 11.333 13.7912 11.5315 13.9041 11.7048C14.017 11.8781 14.1711 12.0208 14.3525 12.12L18.346 14.2997C18.3807 14.3188 18.4247 14.3394 18.4613 14.3553C18.5535 14.3944 18.6669 14.4597 18.75 14.5172V15.6288H16.2269C16.6078 15.9163 16.7231 16.3275 16.871 16.8788H18.945C19.5272 16.8788 20.0003 16.4056 20.0003 15.8228V14.2584C20 13.6366 18.9447 13.2019 18.9447 13.2019L18.9447 13.2019Z" fill="#36AF42"/>
</g>
<defs>
<clipPath id="clip0_35_309">
<rect width="20" height="20" fill="white"/>
</clipPath>
</defs>
</svg>
