<svg width="238" height="77" viewBox="0 0 238 77" fill="none" xmlns="http://www.w3.org/2000/svg">
<g clip-path="url(#clip0_163_7319)">
<path fill-rule="evenodd" clip-rule="evenodd" d="M0 0H5.33333V10.6667L8 13.3333H21.3333V0L26.6667 5.33333V13.3333V18.6667V26.6667L21.3333 32V18.6667H5.33333L0 13.3333V0Z" fill="#16191C"/>
<path fill-rule="evenodd" clip-rule="evenodd" d="M34.1334 5.33333L28.8 0H55.4667V5.33333L39.6994 15.9995L55.4667 26.6656L55.4659 26.6667H55.4667V32H28.8L34.1334 26.6667H45.961L34.1339 18.666L34.1334 18.6667V18.6656V13.3333L45.9595 5.33333H34.1334Z" fill="#36AF42"/>
<path fill-rule="evenodd" clip-rule="evenodd" d="M65.0667 32L59.7334 28.0533V3.94666L65.0667 0L75.7328 15.7674L86.399 0H86.4001L91.7334 0V32H86.4001V9.50571L78.399 21.3333H73.0667L65.0667 9.50726V32Z" fill="#16191C"/>
<path fill-rule="evenodd" clip-rule="evenodd" d="M102.508 12.3783L112 6.20142e-06L118.72 0L106.256 16.224L121.629 32L114.162 32L101.333 18.6614V32H96V4.8L99.3066 3.03984e-06H101.333V11.1724L102.508 12.3783Z" fill="#16191C"/>
</g>
<path d="M8.176 42.2V52H6.552V50.04H2.184L0.784 48.64V42.2H2.408V48.64H6.552V42.2H8.176ZM10.5791 52V42.2H17.3551V43.6H12.2031V46.288H16.6551V47.66H12.2031V50.6H17.4951V52H10.5791ZM21.1642 48.528H25.3362V43.572H21.1642V48.528ZM26.9602 43.516V48.584L25.6442 49.9H21.1642V52H19.5402V42.2H25.6442L26.9602 43.516ZM29.0892 52V42.2H35.8652V43.6H30.7132V46.288H35.1652V47.66H30.7132V50.6H36.0052V52H29.0892ZM38.0503 52V42.2H40.0523L42.7263 47.114L45.4003 42.2H47.4023V52H45.8063V44.23L43.1743 49.032H42.2783L39.6463 44.23V52H38.0503ZM49.2541 52L51.6621 46.82L49.4641 42.2H51.2141L53.0481 46.232H54.2521L56.0861 42.2H57.8361L55.6381 46.82L58.0461 52H56.2821L54.3781 47.688H52.9221L51.0181 52H49.2541ZM59.7182 50.684V43.516L61.0342 42.2H66.3822L67.6982 43.516V50.684L66.3822 52H61.0342L59.7182 50.684ZM61.3702 43.628V50.572H66.0462V43.628H61.3702ZM71.7118 46.274H75.8978V43.572H71.7118V46.274ZM71.7118 50.628H76.1638V47.562H71.7118V50.628ZM77.5358 43.488V46.134L76.8218 46.764L77.8158 47.632V50.712L76.5278 52H70.0878V42.2H76.2478L77.5358 43.488ZM79.9236 50.684V43.516L81.2396 42.2H86.3356V43.684H81.5756V50.516H86.4756V52H81.2396L79.9236 50.684ZM88.5022 52V42.2H90.1262V46.316H92.1282L94.5222 42.2H96.3702L93.5982 46.82L96.5802 52H94.7322L92.2962 47.744H90.1262V52H88.5022ZM106.222 52H104.612V44.174L100.202 52H98.2699V42.2H99.8799V50.026L104.29 42.2H106.222V52ZM116.578 52H114.968V44.174L110.558 52H108.626V42.2H110.236V50.026L114.646 42.2H116.578V52ZM113.666 39.568H115.458L114.478 41.332H110.726L109.746 39.568H111.538L111.678 40.408H113.526L113.666 39.568ZM0.784 72V62.2H2.786L5.46 67.114L8.134 62.2H10.136V72H8.54V64.23L5.908 69.032H5.012L2.38 64.23V72H0.784ZM12.5478 72V62.2H19.3238V63.6H14.1718V66.288H18.6238V67.66H14.1718V70.6H19.4638V72H12.5478ZM23.8609 72V63.628H21.0049V62.2H28.3409V63.628H25.4849V72H23.8609ZM28.7756 72L31.1976 62.2H35.0056L37.4276 72H35.7336L35.1736 69.62H31.0296L30.4696 72H28.7756ZM31.3096 68.332H34.8936L33.7456 63.544H32.4576L31.3096 68.332ZM47.1204 62.2V72H45.4964V63.642H42.4304L40.4424 72H38.7484L41.1424 62.2H47.1204ZM57.353 62.2V72H55.729V63.642H52.663L50.675 72H48.981L51.375 62.2H57.353ZM67.7115 72H66.1015V64.174L61.6915 72H59.7595V62.2H61.3695V70.026L65.7795 62.2H67.7115V72ZM77.5072 62.2V72H75.8832V70.04H71.5152L70.1152 68.64V62.2H71.7392V68.64H75.8832V62.2H77.5072ZM79.9103 72V62.2H86.6863V63.6H81.5343V66.288H85.9863V67.66H81.5343V70.6H86.8263V72H79.9103ZM88.8573 70.684V63.516L90.1733 62.2H95.2693V63.684H90.5093V70.516H95.4093V72H90.1733L88.8573 70.684ZM97.436 72V62.2H99.06V66.316H101.062L103.456 62.2H105.304L102.532 66.82L105.514 72H103.666L101.23 67.744H99.06V72H97.436ZM115.156 72H113.546V64.174L109.136 72H107.204V62.2H108.814V70.026L113.224 62.2H115.156V72ZM116.999 72L119.407 66.82L117.209 62.2H118.959L120.793 66.232H121.997L123.831 62.2H125.581L123.383 66.82L125.791 72H124.027L122.123 67.688H120.667L118.763 72H116.999ZM132.118 72V62.2H133.742V66.316H135.744L138.138 62.2H139.986L137.214 66.82L140.196 72H138.348L135.912 67.744H133.742V72H132.118ZM141.599 70.684V63.516L142.915 62.2H148.263L149.579 63.516V70.684L148.263 72H142.915L141.599 70.684ZM143.251 63.628V70.572H147.927V63.628H143.251ZM151.968 72V62.2H153.592V66.232H158.1V62.2H159.724V72H158.1V67.688H153.592V72H151.968ZM162.118 70.684V63.516L163.434 62.2H168.53V63.684H163.77V70.516H168.67V72H163.434L162.118 70.684ZM173.049 72V63.628H170.193V62.2H177.529V63.628H174.673V72H173.049ZM181.063 68.528H185.235V63.572H181.063V68.528ZM186.859 63.516V68.584L185.543 69.9H181.063V72H179.439V62.2H185.543L186.859 63.516ZM188.778 72V70.6H192.376L192.88 68.92H190.472L188.344 62.2H189.996L191.648 67.548H193.244L194.826 62.2H196.464L193.524 72H188.778ZM198.223 72V62.2H199.847V66.316H201.849L204.243 62.2H206.091L203.319 66.82L206.301 72H204.453L202.017 67.744H199.847V72H198.223ZM215.523 62.2V70.572H216.447V73.96H214.991V72H207.991V62.2H209.615V70.572H213.899V62.2H215.523ZM226.161 72H224.551V64.174L220.141 72H218.209V62.2H219.819V70.026L224.229 62.2H226.161V72ZM236.517 72H234.907V64.174L230.497 72H228.565V62.2H230.175V70.026L234.585 62.2H236.517V72ZM233.605 59.568H235.397L234.417 61.332H230.665L229.685 59.568H231.477L231.617 60.408H233.465L233.605 59.568Z" fill="#16191C"/>
<path d="M129.478 52H123.038V50.6H129.114V47.66H124.438V46.288H128.834V43.6H123.234V42.2H129.198L130.486 43.488V46.246L129.66 46.876L130.766 47.744V50.712L129.478 52ZM132.242 52L134.664 42.2H138.472L140.894 52H139.2L138.64 49.62H134.496L133.936 52H132.242ZM134.776 48.332H138.36L137.212 43.544H135.924L134.776 48.332ZM144.385 46.274H148.571V43.572H144.385V46.274ZM144.385 50.628H148.837V47.562H144.385V50.628ZM150.209 43.488V46.134L149.495 46.764L150.489 47.632V50.712L149.201 52H142.761V42.2H148.921L150.209 43.488ZM152.597 50.684V43.516L153.913 42.2H159.261L160.577 43.516V50.684L159.261 52H153.913L152.597 50.684ZM154.249 43.628V50.572H158.925V43.628H154.249ZM162.392 53.96V50.572H163.358L165.402 42.2H171.198V50.572H172.052V53.96H170.596V52H163.848V53.96H162.392ZM164.996 50.628H169.574V43.572H166.634L164.996 50.628Z" fill="#36AF42"/>
<path d="M191.15 36.3521V47.15H177.85V33.85H188.648L191.15 36.3521Z" stroke="#36AF42" stroke-width="1.7"/>
<path d="M180.224 43V42.132L182.373 39.08H180.245V38.1H183.696V38.968L181.547 42.02H183.717V43H180.224ZM184.7 43V39.08H187.528L188.368 39.92V43H187.192V40.102H185.876V43H184.7Z" fill="#16191C"/>
<defs>
<clipPath id="clip0_163_7319">
<rect width="121.6" height="32" fill="white"/>
</clipPath>
</defs>
</svg>
