<svg width="156" height="30" viewBox="0 0 156 30" fill="none" xmlns="http://www.w3.org/2000/svg">
<g clip-path="url(#clip0_182_2349)">
<path d="M16.1961 21.8361L21.0199 17.4631C23.4264 19.6851 25.8152 20.1785 28.3495 18.457C28.9784 18.0032 29.4955 17.412 29.8615 16.7284L24.1611 16.8136V13.5907L30.0319 13.6262C29.7891 13.0001 29.3982 12.4423 28.8925 12.0005C26.699 10.1974 23.7813 10.0803 21.3925 12.5436L16.3275 8.01448C16.3949 7.908 16.4624 7.80506 16.5369 7.70568C17.6017 6.33204 19.3765 5.54051 21.176 5.08618C24.4202 4.2627 28.3353 4.73123 29.9574 5.34174C26.841 2.38504 22.3615 0.532227 17.3923 0.532227C7.9827 0.532227 0.354919 7.15551 0.354919 15.3264C0.354919 23.4972 7.9827 30.1205 17.3923 30.1205C22.6455 30.1205 27.3308 28.0547 30.4685 24.7963C28.3246 25.382 19.1173 26.926 16.1961 21.8361ZM3.16964 17.6442H1.8173V12.3519H3.15544V17.6442H3.16964ZM5.29931 17.6442H3.90792V12.3555H5.29931V17.6584V17.6442ZM9.47347 17.6761L6.0447 17.6513V12.3697L9.47347 12.391V17.6903V17.6761ZM15.4543 17.7471L10.2295 17.708V12.3945L15.6176 12.4229C15.5099 11.6089 15.5099 10.7842 15.6176 9.97023L20.8317 14.9714L15.5785 19.9974C15.4703 19.2525 15.4287 18.4994 15.4543 17.7471Z" fill="#2162AF"/>
<path d="M43.7932 7.66309C43.6015 7.83346 43.7222 7.69503 43.7932 7.66309V7.66309Z" fill="#2162AF"/>
<path d="M43.9494 7.52128L43.7968 7.6668C43.85 7.64551 43.8713 7.6668 43.7151 7.96141L48.2726 12.1782C50.5407 9.56221 54.5978 10.1976 55.9182 13.5979H50.6969L50.7324 16.4375H55.6555C55.5317 17.0239 55.2002 17.5458 54.722 17.907C53.9505 18.5284 53.0284 18.9349 52.0492 19.0854C51.0786 19.2014 50.0989 18.9618 49.2913 18.411C48.8157 18.1271 48.4607 17.6798 47.9532 17.3L43.2643 21.5239C48.908 28.9103 62.3604 24.6616 62.5166 14.8722C62.6657 5.53358 50.4946 1.25649 43.9494 7.52128Z" fill="#2162AF"/>
<path d="M72.9413 15.3446H70.375L70.4105 10.3008L64.813 10.2334L64.8485 24.669H70.4105V19.824L72.8384 19.8915L72.9768 24.701L78.4678 24.598L78.5352 10.4393L72.8739 10.4712L72.9413 15.3446Z" fill="#2162AF"/>
<path d="M90.1562 10.2326C89.3223 10.0566 88.4739 9.9592 87.6218 9.94154C86.5945 9.93525 85.5778 10.1495 84.6403 10.5698C83.7432 10.9723 82.9358 11.5504 82.2657 12.27C81.593 12.9936 81.061 13.8362 80.6969 14.7546C80.3202 15.7146 80.1276 16.7369 80.1289 17.7681C80.1292 18.7712 80.3371 19.7634 80.7395 20.6822C81.1237 21.5838 81.6891 22.3969 82.4006 23.071C83.5315 24.0732 84.9117 24.7518 86.396 25.0354C87.8802 25.319 89.4134 25.1971 90.8341 24.6824C91.7563 24.3415 92.6179 23.8549 93.3862 23.2414C94.0251 22.6819 94.5401 21.9952 94.8982 21.2253L90.8377 19.6067C87.9626 22.3078 85.8152 20.1462 85.4673 18.6626L95.8637 18.6271C96.4422 15.0137 93.8192 10.9283 90.1562 10.2326ZM85.2295 16.437C86.447 13.5336 89.8048 13.5975 90.827 16.3696L85.2295 16.437Z" fill="#2162AF"/>
<path d="M110.558 11.9227C109.872 11.2515 109.056 10.7284 108.159 10.3858C107.242 10.0324 106.263 9.86815 105.28 9.90303C103.002 9.90303 99.9811 10.9288 98.7033 12.9946C98.256 13.6183 97.8888 14.2956 97.61 15.0107C97.3844 15.7474 97.2789 16.5156 97.2977 17.2859L97.2161 29.9575L102.934 30L102.828 17.8325C102.828 16.5121 103.421 15.7987 104.393 15.4792C104.716 15.365 105.059 15.3199 105.4 15.3468C105.741 15.3737 106.073 15.472 106.374 15.6354C106.685 15.7645 106.953 15.9796 107.147 16.2555C107.34 16.5315 107.451 16.8569 107.467 17.1936C107.722 19.5753 105.82 19.8593 103.712 19.2878L105.245 25.0486C106.26 25.0418 107.267 24.8753 108.23 24.5552C112.617 22.855 114.498 17.8325 112.241 14.0949C111.771 13.3045 111.206 12.5749 110.558 11.9227Z" fill="#2162AF"/>
<path d="M114.715 16.1997L114.736 24.5231L120.479 24.5657V16.079C120.479 15.7773 120.454 14.9148 121.189 14.9041L124.029 14.8651L124.068 10.4708L120.348 10.4495C115.638 10.4247 114.704 11.8232 114.715 16.1997Z" fill="#2162AF"/>
<path d="M133.587 18.9079C133.587 19.4971 133.342 20.1112 132.377 20.1005C131.312 20.1005 131.12 19.5078 131.113 18.8866L131.053 10.4531L125.207 10.4744L125.267 20.3206C125.296 25.2011 130.702 26.1027 133.371 23.9659L133.41 24.7858L139.316 24.7468L139.437 10.549L133.612 10.4673L133.587 18.9079Z" fill="#2162AF"/>
<path d="M155.892 24.6301L155.771 16.871C155.743 15.0537 155.157 12.7146 153.415 11.3232C152.286 10.4181 150.525 10.1093 149.34 9.9744C146.369 9.61946 142.518 11.2238 141.485 14.2657C140.729 16.4877 141.946 20.2998 143.59 20.5092L141.197 24.7366L147.437 24.7117L149.162 21.2972L149.638 17.8932C149.321 18.1304 148.948 18.2812 148.556 18.331C148.163 18.3808 147.764 18.3278 147.398 18.1772C146.575 17.8222 146.458 17.1301 146.44 16.5373C146.44 16.0775 146.618 15.6355 146.937 15.3045C147.256 14.9734 147.691 14.7792 148.151 14.7626C148.861 14.7626 150.202 14.7626 150.192 17.0946L150.163 24.6443L155.892 24.6301Z" fill="#2162AF"/>
</g>
<defs>
<clipPath id="clip0_182_2349">
<rect width="155.892" height="30" fill="white"/>
</clipPath>
</defs>
</svg>
