<svg width="673" height="454" viewBox="0 0 673 454" fill="none" xmlns="http://www.w3.org/2000/svg">
<g opacity="0.2">
<mask id="path-1-inside-1_163_7463" fill="white">
<path fill-rule="evenodd" clip-rule="evenodd" d="M134.519 75.6672L6.10352e-05 0.000488281L672.593 0.000488281L672.593 75.6665L672.593 75.6672H672.591L274.907 226.992L672.593 378.317L672.572 378.333H672.592V454L-0.000488281 454L134.518 378.333H432.841L134.532 264.823L134.518 264.833L134.518 189.166L134.519 189.166L432.797 75.6672L134.519 75.6672Z"/>
</mask>
<path d="M6.10352e-05 0.000488281L6.10352e-05 -2.99951L-11.4525 -2.99951L-1.47072 2.61521L6.10352e-05 0.000488281ZM134.519 75.6672L133.048 78.2819L133.733 78.6672H134.519V75.6672ZM672.593 0.000488281L675.593 0.000482231V-2.99951H672.593V0.000488281ZM672.593 75.6665L675.526 76.2972L675.593 75.9854V75.6665L672.593 75.6665ZM672.593 75.6672V78.6672H675.016L675.526 76.2979L672.593 75.6672ZM672.591 75.6672V72.6672H672.04L671.524 72.8633L672.591 75.6672ZM274.907 226.992L273.84 224.188L266.471 226.992L273.84 229.796L274.907 226.992ZM672.593 378.317L674.393 380.718L678.751 377.451L673.66 375.513L672.593 378.317ZM672.572 378.333L670.772 375.933L663.568 381.333H672.572V378.333ZM672.592 378.333H675.592V375.333H672.592V378.333ZM672.592 454V457H675.592V454H672.592ZM-0.000488281 454L-1.47127 451.385L-11.453 457H-0.000488281L-0.000488281 454ZM134.518 378.333V375.333H133.732L133.047 375.719L134.518 378.333ZM432.841 378.333V381.333L433.908 375.53L432.841 378.333ZM134.532 264.823L135.599 262.019L134.067 261.435L132.748 262.411L134.532 264.823ZM134.518 264.833H131.518V270.784L136.302 267.245L134.518 264.833ZM134.518 189.166L136.283 186.74L131.518 183.275V189.166H134.518ZM134.519 189.166L132.754 191.593L134.068 192.548L135.586 191.97L134.519 189.166ZM432.797 75.6672L433.864 78.4711L432.797 72.6672V75.6672ZM-1.47072 2.61521L133.048 78.2819L135.989 73.0525L1.47084 -2.61424L-1.47072 2.61521ZM672.593 -2.99951L6.10352e-05 -2.99951L6.10352e-05 3.00049L672.593 3.00049V-2.99951ZM675.593 75.6665L675.593 0.000482231L669.593 0.000494331L669.593 75.6665L675.593 75.6665ZM675.526 76.2979L675.526 76.2972L669.66 75.0357L669.66 75.0365L675.526 76.2979ZM672.591 78.6672H672.593V72.6672H672.591V78.6672ZM275.973 229.796L673.658 78.4711L671.524 72.8633L273.84 224.188L275.973 229.796ZM673.66 375.513L275.973 224.188L273.84 229.796L671.526 381.121L673.66 375.513ZM674.371 380.734L674.393 380.718L670.794 375.917L670.772 375.933L674.371 380.734ZM672.572 381.333H672.592V375.333H672.572V381.333ZM669.592 378.333V454H675.592V378.333H669.592ZM672.592 451L-0.000488281 451L-0.000488281 457L672.592 457V451ZM1.4703 456.615L135.989 380.948L133.047 375.719L-1.47127 451.385L1.4703 456.615ZM134.518 381.333H432.841V375.333H134.518V381.333ZM133.465 267.626L431.774 381.137L433.908 375.53L135.599 262.019L133.465 267.626ZM136.302 267.245L136.316 267.234L132.748 262.411L132.734 262.421L136.302 267.245ZM131.518 189.166L131.518 264.833H137.518L137.518 189.166H131.518ZM136.283 186.74L136.283 186.74L132.754 191.592L132.754 191.593L136.283 186.74ZM431.73 72.8633L133.452 186.363L135.586 191.97L433.864 78.4711L431.73 72.8633ZM134.519 78.6672L432.797 78.6672V72.6672L134.519 72.6672V78.6672Z" fill="white" mask="url(#path-1-inside-1_163_7463)"/>
</g>
</svg>
