<svg width="120" height="120" viewBox="0 0 120 120" fill="none" xmlns="http://www.w3.org/2000/svg">
<path opacity="0.3" fill-rule="evenodd" clip-rule="evenodd" d="M44.0857 67L29.0007 67L66.7131 29.2876L74.2556 36.8301L74.2538 36.8319L67.0399 74.2131L104.424 66.9985L104.424 67.0005L111.967 74.5425L74.2541 112.255L74.2541 97.1699L90.9806 80.4435L62.9409 85.8547L62.9411 85.8562L55.3987 78.3138L55.3979 78.3137L60.8085 50.2772L44.0857 67Z" fill="#36AF42"/>
<path fill-rule="evenodd" clip-rule="evenodd" d="M48.4375 20H61.25V32.9688H58.75V35.4688H62.1562C64.0156 35.4688 65.9219 35.5312 66.3594 35.625C66.8125 35.7031 67.5781 35.9688 68.0625 36.2188C68.5469 36.4531 69.3125 37.0312 69.7656 37.5C70.2188 37.9688 70.7969 38.7812 71.4844 40.2344L71.6406 53.5156L76.7188 53.5938V50.9375H74.2188V38.125H87.0312V50.9375H84.5312V53.5938H88.25C91.2188 53.5938 92.125 53.6406 92.8125 53.8438C93.2812 53.9844 94.0312 54.3281 94.4531 54.5938C94.8906 54.875 95.5 55.4062 95.8281 55.7969C96.1562 56.1719 96.6094 56.875 96.8438 57.3438C97.2656 58.1875 97.2656 58.25 97.2656 64.2969L96.7656 65.3125C96.5 65.875 95.9531 66.6406 94.875 67.7344L95.6406 68.5625C96.0625 69 96.5781 69.75 96.7969 70.2031C97.0312 70.6875 97.25 71.5469 97.3438 72.3438C97.4531 73.1875 97.5 77.5 97.4688 84.2188C97.4219 94.6875 97.4219 94.7656 97.0781 95.625C96.8906 96.0938 96.5 96.8281 96.2188 97.25C95.9375 97.6719 95.3438 98.2969 94.9219 98.6094C94.4844 98.9375 93.6875 99.3906 92.1094 100H80.625C69.5156 100 69.1094 99.9844 68.3125 99.6875C67.875 99.5156 67.2344 99.2031 66.9062 99.0156C66.5938 98.8125 65.9531 98.2188 65.5 97.7188C65.0156 97.1875 64.5156 96.4375 64.3281 95.9375C64.0313 95.1562 63.9844 94.6875 63.8281 87.1094H51.0156L50.9375 91.6406C50.8594 95.7812 50.8281 96.2344 50.5312 96.875C50.3594 97.2656 49.9062 97.9219 49.5156 98.3281C49.1094 98.7812 48.4375 99.2812 46.9531 99.9844L26.7188 100L25.7344 99.5625C25.2031 99.3125 24.4688 98.8125 24.0938 98.4219C23.7188 98.0469 23.2656 97.4219 23.0937 97.0312C22.9062 96.6406 22.7031 95.8438 22.6406 95.2344C22.5625 94.625 22.5156 89.4844 22.5 83.7812C22.5 74.6875 22.5313 73.3281 22.75 72.5312C22.8906 72.0469 23.1406 71.375 23.2969 71.0469C23.4688 70.7344 23.8906 70.1406 24.25 69.75C24.625 69.3438 25.1719 68.8594 25.4688 68.6719C25.7656 68.4844 26.5469 68.1094 27.1875 67.8438C27.8281 67.5781 28.625 67.1094 28.9375 66.7969C29.2656 66.5 29.6719 65.9844 29.8281 65.6562C29.9844 65.3438 30.1719 64.8125 30.2188 64.4844C30.3125 63.9531 30.2812 63.9062 29.875 63.8281C29.6406 63.7812 29.2188 63.6094 28.9375 63.4375C28.6719 63.2656 28.2969 62.8906 28.125 62.6094C27.8594 62.1719 27.8125 61.8281 27.8125 60C27.7969 58.0625 27.8281 57.8438 28.1562 57.3438C28.3594 57.0469 28.8281 56.6406 29.2188 56.4375C29.8125 56.1562 30.1719 56.0938 32.9688 56.0938V53.5938H30.3125V40.625H34.2969C37.9844 40.625 38.2812 40.6094 38.2812 40.3438C38.2812 40.2031 38.4844 39.6562 38.7344 39.1406C38.9844 38.625 39.5469 37.8438 39.9688 37.4219C40.3906 36.9844 41.125 36.4531 41.5781 36.2188C42.0469 36 42.7344 35.7344 43.125 35.6406C43.5156 35.5469 45.4219 35.4688 50.9375 35.4688V32.9688H48.4375V20ZM50.9375 30.3125H58.75V22.6562H50.9375V30.3125ZM53.5938 35.4688H56.0938V32.9688H53.5938V35.4688ZM41.8281 39.1875C41.5781 39.4219 41.2812 39.7969 41.1562 40.0312C41.0312 40.2812 40.9375 40.5 40.9375 40.5469C40.9375 40.5938 41.4688 40.625 42.1094 40.625H43.2812V43.2812H69.0625C69.0625 42.0156 68.9531 41.2656 68.8281 40.8125C68.7031 40.3594 68.3594 39.7344 68.0781 39.4062C67.7813 39.0938 67.2188 38.6719 66.8281 38.4688L66.0938 38.125C43.8281 38.1406 43.5 38.1406 42.8906 38.4531C42.5469 38.625 42.0625 38.9531 41.8281 39.1875ZM76.7969 48.3594L84.5312 48.4375V40.625H76.7188L76.7969 48.3594ZM32.9688 50.9375H40.625V43.2812H32.9688V50.9375ZM43.2031 53.5156L40.625 53.5938V56.0938C43.4375 56.0938 43.7656 56.1406 44.375 56.4531C44.8125 56.6875 45.2031 57.0469 45.4219 57.4375C45.7344 57.9688 45.7656 58.2656 45.7656 59.9531C45.7812 61.5625 45.7188 61.9688 45.4688 62.5C45.2969 62.8438 44.9219 63.2656 44.6406 63.4219C44.3594 63.5938 43.9375 63.7812 43.6875 63.8594C43.2813 63.9688 43.25 64.0312 43.3281 64.5312C43.3906 64.8281 43.5938 65.3906 43.7812 65.7656C43.9844 66.1562 44.4219 66.6875 44.7656 66.9688C45.1094 67.2344 45.9062 67.6875 46.5625 67.9375C47.2031 68.2031 48.0469 68.6562 48.4375 68.9531C48.8125 69.25 49.3437 69.75 49.5938 70.0938C49.8438 70.4219 50.2344 71.0938 50.4531 71.5625L50.8594 72.4219L50.9375 84.5312H63.9062C63.9062 72.1875 63.9219 71.8281 64.2344 70.8906C64.4062 70.3594 64.75 69.6406 65 69.2969C65.2344 68.9531 65.6562 68.4531 65.9219 68.2031L66.4062 67.7344C65.4688 66.7656 65.0625 66.2656 64.875 66.0156C64.7031 65.7656 64.4062 65.0938 64.2188 64.5312C63.9062 63.6094 63.875 63.2656 63.9219 60.9375C63.9844 58.3906 63.9844 58.3438 64.4844 57.2969C64.7812 56.7031 65.3281 55.9219 65.7812 55.4688C66.2031 55.0312 67 54.4844 67.5312 54.2188C68.0781 53.9688 68.6406 53.75 68.7812 53.75C69.0313 53.75 69.0625 53.4531 69.0625 49.7656V45.7812H43.2812L43.2031 53.5156ZM79.375 53.5938H81.875V50.9375H79.375V53.5938ZM35.4688 56.0938H38.125V53.5938H35.4688V56.0938ZM68.5156 56.5938C68.25 56.7344 67.8281 57.0781 67.5625 57.375C67.2812 57.6562 66.9375 58.1406 66.7812 58.4375C66.5781 58.8438 66.4844 59.4688 66.4375 60.8594C66.3906 62.2812 66.4219 62.9375 66.6094 63.5938C66.75 64.0625 67.0938 64.7344 67.375 65.0625C67.6562 65.4062 68.2344 65.8438 68.6719 66.0469L69.4531 66.4062C88.9062 66.4062 91.7969 66.3594 92.25 66.2031C92.5781 66.1094 93.1406 65.7656 93.4844 65.4688C93.8281 65.1719 94.25 64.6406 94.4375 64.2969C94.7031 63.7812 94.7656 63.3125 94.8125 61.6406C94.875 60.0781 94.8281 59.4219 94.6406 58.8281C94.5 58.375 94.1406 57.7812 93.7969 57.4219C93.4688 57.0781 92.9219 56.6562 92.5781 56.4844C91.9688 56.1875 91.5938 56.1719 80.9375 56.1406C74.875 56.1406 69.7031 56.1719 69.4531 56.2344C69.1875 56.2969 68.7656 56.4688 68.5156 56.5938ZM30.3125 61.25H43.2812V58.75H30.3125V61.25ZM32.75 65C32.7031 65.3906 32.4375 66.1562 32.1562 66.7188C31.875 67.2812 31.2969 68.0938 30.875 68.5312C30.4375 68.9688 29.6562 69.5312 29.1406 69.7969C28.625 70.0625 27.9531 70.3437 27.6562 70.4375C27.3594 70.5469 26.8594 70.8281 26.5625 71.0781L26.0156 71.5469L47.4219 71.5781C46.8125 70.9531 46.1094 70.5469 45.4688 70.2812C44.8281 70.0156 44.0156 69.6094 43.6719 69.375C43.3281 69.1406 42.75 68.6094 42.375 68.1875C42 67.7656 41.5312 67.0625 41.3281 66.6406C41.125 66.2031 40.875 65.4219 40.75 64.875L40.5469 63.9062C33.8594 63.9062 32.9531 63.9531 32.8906 64.0938C32.8594 64.2031 32.7969 64.6094 32.75 65ZM68.6094 69.4844C68.1406 69.7344 67.5625 70.1719 67.3125 70.4688C67.0625 70.7656 66.7656 71.3594 66.6406 71.7969C66.4375 72.4531 66.4062 74.2812 66.4062 83.2031C66.4062 92.0781 66.4375 93.9531 66.625 94.6094C66.7656 95.0312 67.0938 95.6719 67.3906 96.0156C67.6719 96.3594 68.1562 96.7656 68.4531 96.9062L68.9844 97.1719L69.1406 83.5156C69.8281 81.5781 70.3125 80.5312 70.6719 79.9219C71.0312 79.3125 71.75 78.375 72.2656 77.8281C72.7812 77.2812 73.6562 76.5312 74.2188 76.1562C74.7812 75.7969 75.6719 75.3125 76.2031 75.0938C76.75 74.875 77.7344 74.5781 78.3906 74.4375C79.2812 74.25 80.0625 74.2031 81.25 74.2656C82.4062 74.3125 83.25 74.4688 84.1406 74.75C84.8281 74.9688 85.7969 75.3906 86.2812 75.6562C86.7656 75.9375 87.5469 76.4844 88 76.8594C88.4531 77.25 89.1719 77.9531 89.5781 78.4219C89.9844 78.9062 90.6406 79.9375 91.0156 80.7031C91.3906 81.4688 91.8125 82.5625 91.9375 83.125C92.1406 83.9531 92.1875 85.375 92.1875 90.6719C92.1875 94.9062 92.2344 97.1875 92.3438 97.1875C92.4219 97.1875 92.7969 96.9531 93.1562 96.6719C93.5312 96.3906 93.9844 95.9062 94.1875 95.6094C94.3906 95.3281 94.6094 94.8281 94.6875 94.5312C94.7812 94.2031 94.8281 89.5781 94.7969 82.8906C94.7656 71.8594 94.7656 71.7969 94.4219 71.1719C94.25 70.8281 93.8906 70.3594 93.6406 70.125C93.4062 69.8906 92.8906 69.5625 92.5 69.3906C91.8125 69.0781 91.5312 69.0625 80.625 69.0625H69.4531L68.6094 69.4844ZM25.2031 84.9844C25.2344 95.625 25.25 95.75 25.5625 96.1875C25.75 96.4375 26.125 96.7969 26.4219 96.9844L26.9531 97.3438H46.6406C47.4844 96.7969 47.8594 96.3906 48.0469 96.0781C48.3594 95.5469 48.3594 95.3281 48.3906 84.875L48.4219 74.2031H25.1562L25.2031 84.9844ZM77.75 77.2656C77.3125 77.4219 76.5781 77.75 76.1094 78.0156C75.625 78.2812 74.7812 78.9531 74.2344 79.5156C73.625 80.1406 73 80.9531 72.7031 81.5625C72.4219 82.125 72.0781 82.9688 71.9375 83.4375C71.7188 84.1562 71.6719 85.3438 71.625 90.8281L71.5781 97.3438H74.2344C74.2188 85.4219 74.25 84.8438 74.5312 83.9062C74.7031 83.3125 75.0938 82.5312 75.4688 82.0312C75.8281 81.5625 76.4844 80.9062 76.9375 80.5781C77.4062 80.2344 78.2031 79.8438 78.8438 79.6562C79.7188 79.3906 80.1719 79.3438 81.1875 79.4219C82.1562 79.5 82.6562 79.625 83.4531 80.0312C84 80.2969 84.7969 80.875 85.2031 81.2812C85.6094 81.6875 86.1719 82.5 86.4531 83.0938L86.9688 84.1406L87.0469 97.3438H89.7031C89.7031 85.375 89.6719 84.8281 89.375 83.6719C89.2031 82.9844 88.8281 82 88.5625 81.4844C88.2812 80.9531 87.5938 80.0781 86.9688 79.4531C86.3594 78.8594 85.4531 78.1406 84.9375 77.8594C84.4219 77.5937 83.6094 77.2656 83.1406 77.1406C82.6562 77 81.8125 76.8594 81.2656 76.8281C80.7031 76.7812 79.8594 76.8125 79.3906 76.875C78.9062 76.9531 78.1719 77.125 77.75 77.2656ZM78.7969 82.4062C78.5625 82.5312 78.1406 82.8594 77.875 83.1562C77.5938 83.4375 77.25 83.9531 77.0938 84.2969C76.8281 84.8594 76.7969 85.5469 76.7656 91.1406L76.7344 97.3438H79.3906V84.5312H81.8906V97.3438H84.5469C84.4688 84.9375 84.4531 84.75 84.125 84.1406C83.9375 83.7969 83.5469 83.2969 83.2656 83.0156C82.9844 82.75 82.5 82.4219 82.2031 82.2969C81.8906 82.1719 81.375 82.0313 81.0312 81.9844C80.6875 81.9375 80.1406 81.9688 79.8125 82.0469C79.4844 82.125 79.0312 82.2812 78.7969 82.4062ZM54.8438 25.1562C55.1406 25.1562 55.4688 25.2969 55.7188 25.5469C55.9688 25.8125 56.1094 26.1094 56.0938 26.4531C56.0938 26.7656 55.9688 27.0938 55.75 27.3125C55.5156 27.5469 55.2188 27.6562 54.8594 27.6562C54.5 27.6562 54.1719 27.5312 53.9531 27.2969C53.7188 27.0781 53.5938 26.7812 53.6094 26.4375C53.6094 26.125 53.7656 25.7812 54 25.5469C54.2344 25.2969 54.5469 25.1562 54.8438 25.1562ZM80.6719 43.2812C80.9844 43.2812 81.3125 43.4219 81.5312 43.6406C81.7812 43.875 81.8906 44.1719 81.8906 44.5781C81.8906 45.0312 81.7812 45.2344 81.4531 45.4688C81.2188 45.6562 80.8281 45.7969 80.5938 45.7812C80.3437 45.7812 80 45.6094 79.7812 45.3906C79.5312 45.1406 79.3906 44.8281 79.3906 44.5312C79.3906 44.2344 79.5469 43.8906 79.7812 43.6719C80.0312 43.4115 80.3281 43.2812 80.6719 43.2812ZM36.75 45.7812C36.9531 45.7812 37.2812 45.8906 37.4688 46.0156C37.6563 46.1406 37.8906 46.4219 37.9844 46.6406C38.0938 46.9375 38.0781 47.1719 37.9062 47.5781C37.7656 47.875 37.4844 48.2031 37.2812 48.2812C37.0625 48.375 36.7031 48.3906 36.4688 48.3281C36.2344 48.25 35.9219 48.0312 35.7656 47.8125C35.5938 47.5938 35.4688 47.2656 35.4844 47.0625C35.5 46.8594 35.7031 46.4844 35.9531 46.2344C36.1875 45.9844 36.5625 45.7812 36.75 45.7812ZM48.4531 48.4375H63.9219V50.9375H48.4531V48.4375ZM48.4531 53.5938H61.2656V56.0938H48.4531V53.5938ZM48.4531 58.75H61.2656V61.25H48.4531V58.75ZM48.4531 63.9062H61.2656V66.4062H48.4531V63.9062ZM37.2031 76.8125C37.6719 76.8594 38.4375 77.0781 38.9219 77.2812C39.3906 77.5 40.0469 77.9375 40.375 78.25C40.7031 78.5625 41.0625 79 41.1719 79.2188C41.3125 79.5 41.6406 79.6875 42.25 79.8906C42.8906 80.0781 43.375 80.3906 44.0156 80.9844C44.5312 81.4687 45.0469 82.1406 45.2812 82.6562C45.5469 83.2031 45.7187 83.875 45.7656 84.5312C45.8125 85.1875 45.75 85.8594 45.5781 86.4062C45.4531 86.875 45.125 87.5781 44.875 87.9688C44.5156 88.5156 44.4062 88.9062 44.3438 89.7656C44.2969 90.4688 44.125 91.1719 43.8594 91.7188C43.6406 92.2188 43.1406 92.8906 42.6719 93.3281C42.2344 93.7344 41.5469 94.2188 41.1406 94.3906C40.7344 94.5781 40.0156 94.7656 39.5469 94.8125C38.9844 94.8594 38.3438 94.7969 37.75 94.625C36.8594 94.375 36.75 94.375 35.875 94.625C35.2656 94.7969 34.625 94.8594 34.0781 94.8125C33.5938 94.7656 32.8594 94.5781 32.4375 94.3906C32 94.2031 31.375 93.8125 31.0312 93.5312C30.6875 93.25 30.1562 92.5625 29.8594 92.0156C29.4219 91.2031 29.3125 90.7969 29.25 89.8438C29.2031 88.875 29.1094 88.5625 28.7031 87.9688C28.4531 87.5781 28.125 86.9531 28 86.5625C27.8438 86.0938 27.7969 85.4531 27.8438 84.6094C27.9062 83.5625 28 83.2031 28.4531 82.3594C28.75 81.8125 29.2812 81.125 29.625 80.8438C29.9688 80.5625 30.5625 80.1875 30.9531 80.0156C31.3281 79.8438 31.7656 79.6875 31.9219 79.6875C32.0781 79.6875 32.2344 79.5625 32.2812 79.4219C32.3125 79.2656 32.5781 78.8906 32.8594 78.5938C33.1406 78.2812 33.6562 77.8438 34 77.6094C34.3438 77.3906 35 77.0938 35.4844 76.9688C36.0156 76.8125 36.6562 76.7656 37.2031 76.8125ZM34.8281 80.1719C34.6719 80.375 34.4062 80.9062 34.25 81.3281C33.9844 82.0312 33.8906 82.1094 33.4219 82.1562C33.1406 82.1719 32.6719 82.2344 32.3906 82.2656C32.1094 82.3125 31.6562 82.5312 31.3906 82.7812C31.1094 83.0156 30.7656 83.4844 30.6094 83.8281C30.4531 84.1719 30.3281 84.625 30.3281 84.8438C30.3281 85.0625 30.3906 85.4844 30.4688 85.7812C30.5469 86.0781 30.8438 86.5625 31.1406 86.8438C31.4219 87.1094 31.7656 87.4375 31.9219 87.5469C32.1719 87.7188 32.1719 87.7969 31.9375 88.5938C31.75 89.2812 31.7344 89.5938 31.875 90.125C31.9688 90.4844 32.2344 91 32.4688 91.2656C32.7031 91.5469 33.0938 91.8594 33.3281 91.9688C33.5625 92.0938 34.0938 92.1875 34.5 92.1875C35.0625 92.1875 35.4219 92.0781 35.9844 91.7188C36.3906 91.4688 36.7656 91.25 36.8125 91.25C36.8438 91.25 37.2188 91.4688 37.625 91.7188C38.1875 92.0781 38.5469 92.1875 39.1562 92.2031C39.7031 92.2031 40.0781 92.0938 40.4688 91.8438C40.75 91.6406 41.1406 91.2812 41.3281 91.0469C41.5312 90.7656 41.6719 90.2812 41.7031 89.7969C41.7344 89.3438 41.6875 88.7188 41.5938 88.4062C41.4219 87.8281 41.4219 87.7969 42.0625 87.2344C42.4219 86.9062 42.8125 86.4375 42.9375 86.1719C43.0781 85.9219 43.1875 85.3594 43.1875 84.9219C43.1875 84.5 43.0625 83.9062 42.9219 83.6406C42.7812 83.3594 42.4062 82.9375 42.0938 82.7031C41.6406 82.3594 41.3125 82.25 40.5625 82.2188L39.625 82.1719C39.2812 81.1562 39.0625 80.6719 38.8906 80.4375C38.7344 80.1875 38.3281 79.8594 37.9844 79.6875C37.6406 79.5156 37.0938 79.375 36.7656 79.3906C36.4375 79.3906 35.9375 79.4844 35.6406 79.5781C35.3438 79.6875 34.9688 79.9531 34.8281 80.1719ZM37.2031 81.9688C37.5781 82.0156 38.25 82.25 38.6719 82.4688C39.0938 82.7031 39.6094 83.1406 39.8438 83.4375C40.0625 83.7344 40.3281 84.2188 40.4375 84.5312C40.5312 84.8281 40.625 85.4375 40.625 85.8594C40.6406 86.4219 40.5156 86.8906 40.2031 87.5C39.9531 88.0156 39.5156 88.5625 39.1094 88.875C38.75 89.1406 38.1406 89.4531 37.7812 89.5469C37.4219 89.6406 36.7969 89.6875 36.4219 89.6406C36.0312 89.6094 35.4375 89.4219 35.0938 89.25C34.75 89.0938 34.2188 88.6719 33.9219 88.3438C33.6406 88.0156 33.2969 87.5 33.1875 87.2344C33.0781 86.9531 32.9844 86.3125 32.9688 85.8281C32.9688 85.1406 33.0781 84.7188 33.4062 84.0781C33.6406 83.6094 34.1094 83 34.4375 82.75C34.7812 82.4844 35.375 82.1875 35.7656 82.0781C36.1719 81.9688 36.8125 81.9219 37.2031 81.9688ZM35.6562 85.2812C35.5625 85.4688 35.4844 85.7656 35.4844 85.9375C35.4844 86.1094 35.6562 86.4219 35.875 86.6406C36.1094 86.8906 36.4375 87.0312 36.7344 87.0312C36.9844 87.0312 37.3438 86.9688 37.5156 86.875C37.6875 86.7969 37.8906 86.5156 37.9844 86.25C38.0885 85.9375 38.0885 85.651 37.9844 85.3906C37.8906 85.1719 37.6563 84.8906 37.4688 84.7656C37.2812 84.6406 36.9375 84.5312 36.7344 84.5312C36.5156 84.5469 36.2188 84.625 36.0938 84.7344C35.9531 84.8438 35.7656 85.0781 35.6562 85.2812Z" fill="#16191C"/>
</svg>
