<svg width="120" height="120" viewBox="0 0 120 120" fill="none" xmlns="http://www.w3.org/2000/svg">
<path opacity="0.3" fill-rule="evenodd" clip-rule="evenodd" d="M44.0857 67L29.0007 67L66.7131 29.2876L74.2556 36.8301L74.2538 36.8319L67.0399 74.2131L104.424 66.9985L104.424 67.0005L111.967 74.5425L74.2541 112.255L74.2541 97.1699L90.9806 80.4435L62.9409 85.8547L62.9411 85.8562L55.3987 78.3138L55.3979 78.3137L60.8085 50.2772L44.0857 67Z" fill="#36AF42"/>
<g clip-path="url(#clip0_181_1541)">
<path fill-rule="evenodd" clip-rule="evenodd" d="M62.8125 20.0469C65.1406 20.0782 66.9062 20.2032 68.0469 20.375C69 20.5313 70.6875 20.8907 71.7969 21.1719C72.9062 21.4532 74.5312 21.9532 75.3906 22.2657C76.25 22.5938 77.6562 23.1719 78.5156 23.5782C79.375 23.9844 80.8438 24.7813 81.7969 25.3438C82.75 25.9219 84 26.75 84.6094 27.1875C85.2188 27.6407 86.2656 28.4844 86.9531 29.0625C87.6406 29.6407 88.7656 30.7032 89.4531 31.4219C90.1406 32.1407 91.125 33.2657 91.6562 33.9063C92.1719 34.5469 93.0312 35.7032 93.5469 36.4844C94.0625 37.2657 94.7344 38.3125 95.0469 38.8282C95.3438 39.3438 95.9531 40.5 96.375 41.4063C96.7969 42.3125 97.4062 43.75 97.7344 44.6094C98.0469 45.4688 98.5469 47.125 98.8438 48.2813C99.125 49.4375 99.4844 51.125 99.6406 52.0313C99.8906 53.5157 99.9219 55.2032 100 84.5313H97.3438V100H22.6562V84.5313H20V81.875H97.3438V79.375H20V76.7188H24.4531C26.9062 76.7188 28.9062 76.7032 28.9062 76.6719C28.9062 76.6563 28.6875 76.2188 28.4375 75.7032C28.1719 75.1875 27.9688 74.6407 27.9688 74.4844C27.9688 74.2344 27.6719 74.2188 20 74.2188V71.5625H81.1719L81.5312 71.2032C81.8125 70.9219 81.875 70.6875 81.875 69.0625H78.3281C75.7969 69.0625 74.4531 68.9844 73.6719 68.8282C73.0625 68.7032 72.0469 68.3438 71.4062 68.0157C70.5781 67.6094 69.9219 67.125 69.1406 66.3438C68.5312 65.7344 67.8281 64.8125 67.5469 64.2969C67.2812 63.7813 66.9375 62.9688 66.7969 62.5C66.6094 61.9063 66.5 60.7813 66.3281 56.0938H20V53.5938L25.375 53.5157L25.5625 52.1094C25.6719 51.3438 25.9062 50.0625 26.0781 49.2969C26.25 48.5313 26.5938 47.2188 26.8438 46.4063C27.1094 45.5938 27.5781 44.25 27.9062 43.4375C28.2344 42.625 28.875 41.2188 29.3438 40.3125C29.7969 39.4063 30.6875 37.8907 31.3125 36.9532C31.9531 36 32.9375 34.6407 33.5312 33.9063C34.1094 33.1719 35.2969 31.875 36.1719 31.0157C37.0312 30.1563 38.2656 29.0313 38.9062 28.5C39.5469 27.9844 40.75 27.0938 41.5625 26.5313C42.375 25.9688 43.6875 25.1719 44.4531 24.7344C45.2188 24.3125 46.5312 23.6563 47.3438 23.2813C48.1562 22.9063 49.5938 22.3438 50.5469 22.0313C51.5 21.7032 53 21.2657 53.9062 21.0469C54.8125 20.8282 56.3594 20.5313 57.3438 20.375C58.3281 20.2344 59.1719 20.0938 59.2188 20.0469C59.25 20.0157 60.875 20 62.8125 20.0469ZM61.1719 24.8438C61.9062 25.875 62.5312 26.7188 62.5781 26.7188C62.625 26.7188 63.25 25.875 63.9844 24.8438C64.7188 23.8125 65.3125 22.8907 65.3125 22.8125C65.3125 22.7188 64.2969 22.6563 62.5781 22.6563C60.8594 22.6563 59.8438 22.7188 59.8438 22.8125C59.8438 22.8907 60.4375 23.8125 61.1719 24.8438ZM54.7656 23.7032C54.7344 23.8594 54.4531 25.1094 54.1406 26.4844C53.8281 27.8594 53.5938 29 53.625 29.0313C53.6562 29.0469 54.4062 28.875 55.3125 28.6563C56.2188 28.4375 57.625 28.1719 58.4375 28.0625C59.2969 27.9532 59.9219 27.8125 59.9219 27.7032C59.9219 27.6094 59.2188 26.5469 58.3594 25.3282C57.2031 23.7188 56.7188 23.1407 56.4844 23.1407C56.3125 23.1563 55.875 23.2188 55.5156 23.2969C55.0781 23.3907 54.8125 23.5313 54.7656 23.7032ZM65.25 27.7657C65.2969 27.8438 66.0312 27.9844 66.8594 28.0938C67.6875 28.2032 69.0625 28.4532 69.9219 28.6719C70.7812 28.8907 71.5 29.0469 71.5312 29.0313C71.5625 29 71.3594 28 71.0938 26.7969C70.8281 25.5938 70.5469 24.3438 70.4531 24.0157C70.3281 23.4844 70.2656 23.4219 69.5312 23.2813C69.1094 23.1875 68.6562 23.125 68.5625 23.125C68.4531 23.125 67.6406 24.1563 66.7656 25.3907C65.875 26.6407 65.2031 27.7032 65.25 27.7657ZM73.7656 26.7969C74.0312 28 74.2812 29 74.3125 29.0157C74.3438 29.0469 75.2656 28.5157 76.3438 27.8438C77.4375 27.1875 78.3438 26.5938 78.375 26.5157C78.4062 26.4532 77.8594 26.1407 77.1562 25.7969C76.4375 25.4688 75.25 24.9844 74.5 24.7188C73.6719 24.4219 73.1562 24.3125 73.1875 24.4219C73.2344 24.5313 73.4844 25.5938 73.7656 26.7969ZM47.7344 25.9219C46.8125 26.3438 46.6719 26.4532 46.875 26.625C47 26.7344 47.9375 27.3282 48.9531 27.9375C49.9531 28.5625 50.8125 29.0469 50.8438 29.0157C50.875 29 51.1406 27.9532 51.4219 26.6875C51.8594 24.7657 51.9062 24.375 51.7188 24.3907C51.5938 24.3907 50.8906 24.625 50.1562 24.9063C49.4219 25.2032 48.3281 25.6563 47.7344 25.9219ZM42.5 29.1719C42.5 29.2813 42.6875 30.4844 42.9062 31.8282C43.125 33.1875 43.3281 34.3907 43.375 34.4844C43.4063 34.6094 43.875 34.3438 44.6562 33.7657C45.3125 33.25 46.5469 32.4063 47.3906 31.8907L48.9062 30.9375C45.2188 28.6407 44.1094 27.9688 44.0625 27.9688C44.0156 27.9688 43.6562 28.1875 43.25 28.4688C42.8438 28.75 42.5 29.0782 42.5 29.1719ZM76.3906 31.0469C76.4375 31.125 77.1094 31.5625 77.875 32.0313C78.6562 32.5 79.8437 33.3125 80.5156 33.8282C81.1875 34.3438 81.75 34.7344 81.7812 34.6875C81.7969 34.6407 82.0156 33.4532 82.25 32.0313C82.4688 30.6094 82.6562 29.3282 82.6562 29.1719C82.6562 29.0313 82.3281 28.7032 81.9062 28.4375C81.5 28.1875 81.1406 27.9688 81.0938 27.9688C81.0469 27.9688 79.9531 28.6407 78.6719 29.4532C77.375 30.2657 76.3594 30.9844 76.3906 31.0469ZM55.625 31.25C54.9844 31.4063 54.2656 31.625 54.0312 31.7032L53.5938 31.875V50.9375H50.9375V32.9688C49.1875 33.8438 48.0469 34.5313 47.2812 35.0625C46.5156 35.5782 45.2969 36.5313 44.5781 37.1407L43.2812 38.2813V50.9375H40.625V41.4844C39.6406 42.9375 39.0156 44.0469 38.5781 44.875C38.1562 45.7188 37.5938 46.9532 37.3281 47.6094C37.0625 48.2813 36.6562 49.5938 36.4062 50.5469C36.1719 51.5 35.9375 52.5625 35.875 52.9219L35.7812 53.5938C69.6875 53.5938 72.0156 53.625 73.0938 53.8438C73.75 53.9844 74.8281 54.2969 75.4688 54.5469C76.1094 54.7969 77.125 55.2969 77.7344 55.6563C78.3438 56.0157 79.375 56.8438 80.0625 57.5C80.75 58.1563 81.6875 59.2813 82.2031 60.0782C82.7188 60.8438 83.3438 62.0625 83.5938 62.7657C83.8594 63.4844 84.1719 64.6719 84.2969 65.4219C84.4219 66.1875 84.5312 67.6719 84.5312 68.75C84.5312 69.9844 84.4531 70.9844 84.3125 71.4844C84.1719 71.9688 83.8594 72.5 83.4844 72.8907C83.1562 73.2344 82.6094 73.6563 82.2656 73.8282C81.6875 74.125 81.2656 74.1407 76.5625 74.1875L71.4844 74.2188C71.1562 75.25 70.9062 75.8125 70.6875 76.125L70.3125 76.7188H89.6875C89.5781 55.75 89.5312 53.9688 89.3125 52.8907C89.1719 52.2032 88.8906 51 88.6719 50.2344C88.4688 49.4688 88.0469 48.1875 87.7344 47.4219C87.4219 46.6563 86.8438 45.4219 86.4531 44.6875C86.0625 43.9532 85.4844 42.9844 85.1719 42.5157L84.6094 41.6719L84.5312 50.9375H81.875L81.8438 38.3594C79.875 36.5782 78.625 35.6094 77.8125 35.0782C77 34.5313 75.8594 33.8438 75.2656 33.5313L74.2188 32.9688V50.9375H71.5625V31.875C69.5625 31.25 68.1875 30.9375 67.2188 30.7657C66.2656 30.6094 65.1094 30.4688 64.6875 30.4688H63.9062V50.9375H61.25V30.4688C59.7344 30.4844 58.7344 30.5938 58.0469 30.7188C57.3594 30.8438 56.2656 31.0782 55.625 31.25ZM36.0938 34.9063C36.1406 34.9532 37.2188 35.1563 38.5156 35.375C39.7969 35.5938 40.875 35.75 40.8906 35.7344C40.9062 35.7188 40.75 34.6875 40.5469 33.4375C40.3281 32.1875 40.1562 31.125 40.1562 31.0625C40.1562 30.9844 40.1094 30.9375 40.0312 30.9375C39.9688 30.9375 39.0469 31.8125 37.9688 32.8907C36.8906 33.9532 36.0469 34.8594 36.0938 34.9063ZM84.6094 33.4375C84.4062 34.6875 84.25 35.7188 84.2656 35.7344C84.2812 35.75 85.3438 35.5938 86.6406 35.375C87.9219 35.1563 89.0156 34.9532 89.0625 34.9219C89.1094 34.8907 88.6875 34.375 88.1406 33.7969C87.5938 33.2188 86.7031 32.3282 86.1562 31.8438C85.6094 31.3438 85.125 30.9375 85.0781 30.9375C85.0312 30.9375 85 30.9844 85 31.0625C85 31.125 84.8281 32.1875 84.6094 33.4375ZM33.125 38.9063C35.4844 42.6719 36.1875 43.7344 36.1875 43.7188C36.2031 43.6875 36.5938 43.0313 37.0469 42.2657C37.5 41.5 38.3125 40.2813 38.8594 39.5782C39.4844 38.7344 39.7812 38.25 39.6406 38.2032C39.5469 38.1719 38.3906 37.9532 37.1094 37.7344C35.8125 37.5313 34.6094 37.3438 34.4219 37.3438C34.1875 37.3438 33.9531 37.5782 33.6094 38.125L33.125 38.9063ZM85.3438 38.2344C85.3281 38.2657 85.7344 38.8594 86.2656 39.5782C86.7812 40.2813 87.6094 41.5157 88.0938 42.3125C88.5781 43.1094 89 43.7657 89.0156 43.75C89.0469 43.75 89.7344 42.6563 90.5469 41.3282L92.0312 38.9063C91.1406 37.4375 91.0312 37.3438 90.5781 37.3594C90.2969 37.375 89.0156 37.5625 87.7344 37.7813C86.4375 38 85.375 38.2032 85.3438 38.2344ZM29.8281 45.5938C29.5469 46.4063 29.4375 46.8438 29.5625 46.8125C29.6719 46.7657 30.75 46.5157 31.9531 46.2344C33.1562 45.9688 34.1562 45.7188 34.1719 45.6875C34.2031 45.6563 33.6719 44.7344 33 43.6563C32.3438 42.5625 31.75 41.6563 31.6875 41.6094C31.625 41.5782 31.2812 42.1563 30.9375 42.9219C30.5781 43.6719 30.0781 44.875 29.8281 45.5938ZM91.625 44.4219C91.2031 45.0938 90.8906 45.6563 90.9375 45.6875C90.9844 45.7188 92 45.9688 93.2031 46.2344C94.4062 46.5157 95.4688 46.7657 95.5781 46.8125C95.7031 46.8438 95.5938 46.3594 95.2969 45.5157C95.0312 44.75 94.5312 43.5625 94.2031 42.8594C93.8594 42.1407 93.5625 41.5625 93.5156 41.5625C93.4844 41.5625 93.2031 41.9375 92.9219 42.3907C92.6406 42.8282 92.0625 43.75 91.625 44.4219ZM28.6406 49.7188C28.625 49.75 28.5 50.2657 28.375 50.8594C28.25 51.4532 28.1094 52.3282 28.0625 52.7813L27.9688 53.5938L33.1875 53.5157C33.5 51.5782 33.7344 50.5 33.9062 49.8907C34.0781 49.2657 34.2188 48.6875 34.2188 48.5938C34.2188 48.5 34.0938 48.4532 33.9375 48.4532C33.7969 48.4688 32.5469 48.75 31.1719 49.0782C29.7969 49.4063 28.6562 49.7032 28.6406 49.7188ZM91.3281 50.125C91.5312 50.9532 91.7969 52.3125 91.9062 53.1407C92.0156 53.9688 92.1562 54.7032 92.2188 54.75C92.2812 54.7969 93.3438 54.125 94.5625 53.2657C95.7969 52.3907 96.8281 51.6563 96.875 51.6094C96.9219 51.5782 96.8594 51.1563 96.75 50.6563C96.6406 50.1719 96.5 49.7344 96.4531 49.6875C96.4062 49.6407 95.2344 49.3438 93.8438 49.0313C92.4531 48.7032 91.2344 48.4532 91.125 48.4375C91.0156 48.4375 90.9375 48.4688 90.9375 48.5157C90.9375 48.5625 91.1094 49.2813 91.3281 50.125ZM93.3906 57.3125C93.3125 57.375 94.0938 58.0313 95.1094 58.7657C96.125 59.5 97.0312 60.1407 97.1406 60.2032C97.2969 60.2969 97.3438 59.7032 97.3438 57.5C97.3438 55.3438 97.2969 54.6875 97.1406 54.6875C97.0312 54.7032 96.1719 55.2657 95.2344 55.9532C94.2812 56.6407 93.4531 57.25 93.3906 57.3125ZM69.1406 61.6407C69.9844 63.3438 70.5469 64.1563 70.9688 64.5782C71.375 64.9844 72.1875 65.5469 72.7656 65.8282L73.8281 66.3282L81.875 66.4063C81.7188 65.5 81.5156 64.7032 81.2969 64.0625C81.0781 63.4219 80.7031 62.5469 80.4688 62.1094C80.2188 61.6875 79.6719 60.9063 79.2656 60.3907C78.8594 59.8907 78.0938 59.125 77.5781 58.7188C77.0625 58.2969 76.1875 57.7188 75.625 57.4375C75.0625 57.1407 74.0781 56.75 73.4375 56.5782C72.7969 56.3907 71.5469 56.2032 70.6719 56.1407L69.0781 56.0469L69.1406 61.6407ZM92.1562 63.1875L92.1875 66.1563C92.9688 65.9844 94.1406 65.7188 95.2812 65.4532L97.3438 64.9844L97.3281 63.5C94.8594 61.7657 93.75 60.9844 93.2656 60.6407C92.7656 60.2813 92.3281 60.0469 92.25 60.0938C92.1875 60.1563 92.1406 61.5469 92.1562 63.1875ZM92.3906 68.8125C92.2344 68.875 92.1875 69.8282 92.1875 72.7969V76.7032H97.3438C97.3438 68.6407 97.2969 67.6563 97.1562 67.6563C97.0469 67.6719 95.9688 67.9219 94.7656 68.2032C93.5625 68.5 92.5 68.7657 92.3906 68.8125ZM31.0625 75.0625C31.2969 75.4063 31.7031 75.8438 31.9688 76.0157C32.2188 76.1875 32.625 76.4219 32.8594 76.5157C33.0938 76.625 33.6719 76.7032 34.1406 76.7032C34.6094 76.7032 35.2656 76.5938 35.5938 76.4688C35.9062 76.3282 36.3906 76.0625 36.6406 75.8594C36.9062 75.6563 37.2656 75.2032 37.4688 74.8594L37.8125 74.2032C32.25 74.2032 30.625 74.2657 30.625 74.3282C30.625 74.3907 30.8125 74.7188 31.0625 75.0625ZM39.9688 75.6563L39.4531 76.7032H44.5312C43.9375 75.7969 43.6719 75.2344 43.5625 74.875L43.3594 74.2032C40.8594 74.2032 40.4688 74.2657 40.4688 74.4063C40.4844 74.5157 40.25 75.0782 39.9688 75.6563ZM46.6094 75.1875C46.9062 75.5782 47.4531 76.0157 47.9688 76.2813C48.6094 76.5938 49.0625 76.7188 49.6875 76.7032C50.25 76.7032 50.8125 76.5782 51.3281 76.3438C51.7656 76.1407 52.3438 75.7032 52.6094 75.375C52.8906 75.0313 53.1562 74.625 53.2031 74.4844C53.2812 74.2344 53.0469 74.2032 49.6875 74.2032C47.3906 74.2032 46.0938 74.2657 46.0938 74.3594C46.0938 74.4532 46.3281 74.8125 46.6094 75.1875ZM55.4375 75.6563L54.9219 76.7032H60C59.4219 75.7969 59.1562 75.2344 59.0469 74.875L58.8281 74.2032C56.3281 74.2032 55.9375 74.2657 55.9375 74.4063C55.9531 74.5157 55.7188 75.0782 55.4375 75.6563ZM62.2344 75.375C62.5156 75.7032 63.0938 76.1407 63.5156 76.3438C64.0312 76.5782 64.5938 76.7032 65.1562 76.7032C65.7969 76.7188 66.25 76.5938 66.875 76.2813C67.3906 76.0157 67.9375 75.5782 68.25 75.1875C68.5156 74.8125 68.75 74.4532 68.75 74.3594C68.75 74.2657 67.4531 74.2032 65.1719 74.2032C61.8594 74.2032 61.6094 74.2344 61.6719 74.4844C61.7031 74.625 61.9531 75.0313 62.2344 75.375ZM25.1562 97.3282H27.8125V84.5157H25.1562V97.3282ZM30.3125 97.3282H32.9688V84.5157H30.3125V97.3282ZM35.4688 97.3282H53.5938V84.5157H35.4688V97.3282ZM56.0938 97.3282H58.75V84.5157H56.0938V97.3282ZM61.25 97.3282H63.9062V84.5157H61.25V97.3282ZM66.4062 97.3282H84.5312V84.5157H66.4062V97.3282ZM87.0312 97.3282H89.6875V84.5157H87.0312V97.3282ZM92.1875 97.3282H94.8438V84.5157H92.1875V97.3282ZM20 58.7344H32.9688V66.3907H20V63.8907H30.3125V61.2344H20V58.7344ZM35.4688 58.7344H48.4375V66.3907H35.4688V58.7344ZM38.125 63.8907H45.7812V61.2344H38.125V63.8907ZM50.9375 58.7344H63.9062V66.3907H50.9375V58.7344ZM53.5938 63.8907H61.25V61.2344H53.5938V63.8907Z" fill="#16191C"/>
</g>
<defs>
<clipPath id="clip0_181_1541">
<rect width="80" height="80" fill="white" transform="translate(20 20)"/>
</clipPath>
</defs>
</svg>
