<svg width="120" height="120" viewBox="0 0 120 120" fill="none" xmlns="http://www.w3.org/2000/svg">
<path opacity="0.3" fill-rule="evenodd" clip-rule="evenodd" d="M44.0857 67L29.0007 67L66.7131 29.2876L74.2556 36.8301L74.2538 36.8319L67.0399 74.2131L104.424 66.9985L104.424 67.0005L111.967 74.5425L74.2541 112.255L74.2541 97.1699L90.9806 80.4435L62.9409 85.8547L62.9411 85.8562L55.3987 78.3138L55.3979 78.3137L60.8085 50.2772L44.0857 67Z" fill="#36AF42"/>
<g clip-path="url(#clip0_181_1528)">
<path fill-rule="evenodd" clip-rule="evenodd" d="M21.7969 20.0156L92.9688 20L93.5938 20.3906C93.9844 20.6406 94.3281 21.0312 94.5312 21.4531C94.7969 22.0312 94.8438 22.4531 94.8438 25.1562C94.8438 28.0156 94.8281 28.25 94.5 28.9062C94.2656 29.375 93.9375 29.7188 93.5156 29.9531C92.9844 30.25 92.6562 30.3125 89.6875 30.3125V63.2031L93.5625 64.0312C95.6875 64.4844 97.7344 65.0156 98.125 65.2031C98.5 65.3906 99.0156 65.8281 99.2656 66.1719C99.5 66.5156 99.7812 67.0781 99.8594 67.4219C99.9531 67.7656 100 68.8594 99.9844 69.8438C99.9219 71.4688 99.875 71.7187 99.5 72.3906C99.25 72.7969 98.7969 73.2969 98.4844 73.5C98.1562 73.7188 97.5781 73.9688 97.1875 74.0781C96.7031 74.2188 96.2344 74.2188 94.8438 73.9844V100H27.8125V79.4531L27.3125 79.3281C27.0312 79.2656 26.5781 79.0781 26.3281 78.9219C26.0781 78.7656 25.7031 78.3281 25.5156 77.9531C25.1875 77.3125 25.1562 77.0625 25.1562 74.1875C25.1562 71.4062 25.1875 71.0312 25.4688 70.4688C25.6406 70.125 26.0156 69.6875 26.2969 69.5C26.6562 69.25 27.0625 69.1406 27.7812 69.1094C28.3125 69.0781 28.75 69.0156 28.75 68.9531C28.75 68.875 28.2188 68.1562 27.5625 67.3438C26.9063 66.5312 26.2031 65.5781 26.0156 65.2344C25.8125 64.8906 25.5312 64.1875 25.3906 63.6719C25.1875 62.8594 25.1562 60.6875 25.1562 30.3125H23.5625C22.1875 30.3125 21.8594 30.25 21.3281 29.9531C20.9844 29.75 20.5469 29.3281 20.3594 28.9844C20.0313 28.3906 20 28.1875 20 25.2344C20 22.4531 20.0469 22.0312 20.3125 21.4531C20.5 21.0625 20.8594 20.625 21.2188 20.4062L21.7969 20.0156ZM22.6562 27.7969H92.1719L92.1875 22.6406H22.6562V27.7969ZM27.8125 38.1094C31.6875 38.1094 32.7969 38.0625 32.7969 38C32.7969 37.9375 31.7969 36.1875 30.5625 34.125C29.3281 32.0625 28.2188 30.3594 28.0781 30.3281C27.8594 30.2812 27.8281 30.7031 27.8125 34.2031V38.1094ZM33.0469 33.2656C33.9531 34.8125 34.75 36.0781 34.8125 36.0781C34.875 36.0781 35.6875 34.8125 36.6094 33.2656C37.5312 31.7188 38.2812 30.4062 38.2812 30.375C38.2812 30.3281 36.7344 30.2969 34.8438 30.2969C32.9531 30.2969 31.4062 30.3281 31.4062 30.375C31.4062 30.4062 32.1562 31.7188 33.0469 33.2656ZM39.0625 34.2031C37.9219 36.125 36.9688 37.7969 36.9375 37.9062C36.8906 38.0625 38.0938 38.1094 42.5781 38.1094C45.7188 38.1094 48.2812 38.0469 48.2812 37.9844C48.2812 37.9219 47.2812 36.1875 46.0625 34.125L43.8281 30.375C41.8125 30.2969 41.4062 30.3438 41.2969 30.4844C41.2188 30.5938 40.2188 32.2656 39.0625 34.2031ZM48.5625 33.2656C49.4844 34.8125 50.2969 36.0781 50.3594 36.0781C50.4219 36.0781 51.2188 34.8281 52.1094 33.2969C53.0156 31.7812 53.75 30.4688 53.75 30.4062C53.75 30.3438 52.2031 30.2969 50.3125 30.2969C48.4219 30.2969 46.875 30.3281 46.875 30.375C46.875 30.4062 47.6406 31.7188 48.5625 33.2656ZM54.3906 34.4531C53.2656 36.3594 52.3438 37.9531 52.3438 38C52.3438 38.0625 54.9219 38.1094 58.0469 38.1094C63.4219 38.1094 63.75 38.0938 63.6719 37.8281C63.625 37.6875 62.6094 35.9219 61.4375 33.9375L59.2969 30.2969C57.0156 30.2969 56.8594 30.3281 56.6719 30.6406C56.5469 30.8438 55.5312 32.5469 54.3906 34.4531ZM64.0781 33.375L65.8125 36.3125C68.4531 31.8281 69.2188 30.4688 69.2188 30.4062C69.2188 30.3438 67.6719 30.2969 65.7812 30.2969C63.8906 30.2969 62.3438 30.3281 62.3438 30.375C62.3438 30.4062 63.125 31.7656 64.0781 33.375ZM70.0781 34.1094C68.8125 36.2188 67.7969 37.9688 67.8125 38.0156C67.8125 38.0625 70.3906 38.1094 73.5156 38.1094C78.125 38.1094 79.2188 38.0625 79.1875 37.9062C79.1719 37.7812 78.1562 36.0312 76.9531 34L74.7656 30.2969H72.3594L70.0781 34.1094ZM79.5469 33.3281L81.2969 36.2969C82.0625 34.9688 82.875 33.6094 83.5781 32.4375L84.8594 30.2812C79.4062 30.2812 77.8125 30.2969 77.8125 30.3281C77.8125 30.3438 78.5938 31.7031 79.5469 33.3281ZM83.25 38.0312C83.2656 38.0625 84.1406 38.0938 85.1719 38.0938H87.0469C87.0469 33.25 87.0156 31.8438 86.9688 31.8438C86.9375 31.8438 86.0781 33.2188 85.0625 34.9062C84.0469 36.5781 83.2344 37.9844 83.25 38.0312ZM27.8125 44.3125C27.8125 46.3438 27.8438 47.9844 27.875 47.9375C27.9219 47.8906 28.9062 46.2656 30.0781 44.3125C31.2344 42.3594 32.1406 40.7188 32.0781 40.6719C32.0156 40.625 31.0312 40.5938 29.8906 40.5938H27.8281L27.8125 44.3125ZM39.75 44.5469L42 48.3438H43.1562C46.6406 42.4688 47.6562 40.7188 47.6562 40.6875C47.6562 40.6406 45.375 40.6094 42.5781 40.6094C39.7812 40.6094 37.5 40.6406 37.5 40.6875C37.5 40.7188 38.5156 42.4688 39.75 44.5469ZM55.2344 44.5938L57.5 48.4219H58.5938C62.1094 42.4844 63.125 40.7188 63.125 40.6875C63.125 40.6406 60.8906 40.6094 58.1406 40.6094C55.4062 40.6094 53.125 40.6406 53.0625 40.6875C53.0156 40.7188 53.9844 42.4844 55.2344 44.5938ZM70.8281 44.7188L73.0469 48.4375C74.1094 48.3438 74.1719 48.2344 76.3438 44.5938C77.5781 42.5312 78.5781 40.7813 78.5938 40.7188C78.5938 40.6562 76.3438 40.6094 73.5938 40.6094C69.6875 40.6094 68.5938 40.6406 68.5938 40.7969C68.5938 40.9062 69.5937 42.6719 70.8281 44.7188ZM85.4062 43.2188C86.1562 44.4844 86.8281 45.5937 86.9062 45.6875C86.9688 45.7656 87.0312 44.7031 87.0312 43.2188V40.6094C84.6562 40.6094 84.0625 40.6719 84.0625 40.7656C84.0625 40.8438 84.6719 41.9531 85.4062 43.2188ZM30.8125 48.2188C30.7812 48.375 31.6094 48.4219 34.8438 48.4219C38.6406 48.4219 38.8906 48.4063 38.8125 48.1406C38.7656 48 37.8906 46.4062 36.875 44.625C35.8438 42.8438 34.9531 41.3906 34.8906 41.3906C34.8125 41.3906 33.8906 42.8906 32.8125 44.7031C31.7344 46.5312 30.8438 48.1094 30.8125 48.2188ZM49.9844 41.9531C49.7656 42.2812 48.875 43.75 48 45.2188C47.1406 46.6719 46.3906 48 46.3438 48.1406C46.25 48.4063 46.5156 48.4219 50.3125 48.4219C52.5469 48.4219 54.375 48.3594 54.375 48.2969C54.375 48.2344 53.4844 46.6406 52.375 44.7656L50.375 41.3438L49.9844 41.9531ZM63.6719 44.9062C62.6562 46.625 61.8125 48.125 61.7812 48.2188C61.7344 48.375 62.6094 48.4219 65.7812 48.4219C68.3906 48.4219 69.8438 48.3594 69.8438 48.2656C69.8438 48.1719 68.9531 46.5938 67.8438 44.7344C66.3594 42.2344 65.7969 41.4219 65.6875 41.5781C65.5938 41.6875 64.6875 43.1875 63.6719 44.9062ZM77.1875 48.3281C77.1875 48.375 79.0156 48.4219 81.25 48.4219C83.8594 48.4219 85.3125 48.3594 85.3125 48.2656C85.3125 48.1719 84.5 46.7188 83.5 45.0156C82.5 43.3281 81.5938 41.8125 81.5 41.6406C81.3438 41.3906 81.0469 41.8125 79.25 44.7969C78.1094 46.6875 77.1719 48.2656 77.1875 48.3281ZM32.4688 56.1562C34.0781 58.8594 35.4375 61.0781 35.4688 61.0781C35.5156 61.0938 36.7969 59.0156 38.3281 56.4688L41.0938 51.8594L40.5469 50.9219C31.4844 50.9219 29.5312 50.9688 29.5312 51.0781C29.5312 51.1562 30.8594 53.4531 32.4688 56.1562ZM44.3594 51.3438C44.1094 51.7656 44.125 51.8125 44.625 52.7188L45.1406 53.6562C52.2344 55.1562 54.3438 55.5469 54.3906 55.4844C54.4531 55.4219 54.9531 54.5781 55.5312 53.6094L56.5625 51.8594L56.0156 50.9219H44.6094L44.3594 51.3438ZM59.8281 51.3438C59.5781 51.7656 59.5938 51.7969 61.2344 54.6094L62.8906 57.4375C66.6562 58.2188 67.8125 58.4844 67.8906 58.5156C67.9844 58.5469 68.9531 57.0625 70.0469 55.2031C72.0312 51.8594 72.0312 51.8438 71.7969 51.375L71.5625 50.9062H60.0781L59.8281 51.3438ZM75.3906 51.2656C75.25 51.4531 75.1406 51.7031 75.1406 51.8125C75.1562 51.9219 76.3906 54.0938 77.8906 56.625L80.625 61.2344C85.3125 53.4219 86.6562 51.1094 86.625 51.0312C86.5938 50.9688 84.1094 50.9219 81.1094 50.9219H75.6406L75.3906 51.2656ZM28.0781 63.5312C28.2031 63.8594 29 64.9844 29.8281 66.0312C30.6562 67.0781 31.375 67.9375 31.4219 67.9531C31.4688 67.9531 32.0469 67.0313 32.7188 65.8906C33.4844 64.5938 33.9062 63.7188 33.8438 63.5781C33.7812 63.4375 32.4688 61.1875 30.9219 58.5781C29.3594 55.9531 28.0312 53.7344 27.9531 53.6562C27.875 53.5625 27.8281 55.5 27.8281 58.2188C27.8281 62.1719 27.875 63.0469 28.0781 63.5312ZM57.0781 56.1719C57.1094 56.1875 57.6094 56.2969 58.2188 56.4375C58.8125 56.5781 59.3281 56.6562 59.3438 56.6094C59.375 56.5781 59.0938 56.0625 58.75 55.4844C58.3906 54.9062 58.0938 54.4219 58.0781 54.4062C58.0469 54.3906 57.8125 54.7812 57.5312 55.2656C57.2656 55.75 57.0625 56.1562 57.0781 56.1719ZM70.8281 59.0938C70.8594 59.125 72.25 59.4375 73.9219 59.7969C75.5938 60.1562 76.9844 60.4062 77 60.375C77.0312 60.3281 76.2812 58.9531 75.3438 57.3281C74.4219 55.6875 73.625 54.3594 73.5938 54.3594C73.5625 54.3594 72.9219 55.4219 72.1562 56.7031C71.4062 57.9844 70.8125 59.0625 70.8281 59.0938ZM85.2969 58.5C84.375 60.0469 83.5938 61.4375 83.5469 61.5781C83.4688 61.8125 83.6406 61.8906 84.6562 62.1094C85.3281 62.2344 86.125 62.4062 86.4219 62.4844C86.7188 62.5625 86.9844 62.6094 87 62.5938C87.0312 62.5781 87.0312 61.0156 87 59.125L86.9688 55.6875L85.2969 58.5ZM43.4844 56.5156C43.3594 56.6875 43.2812 57.2969 43.2812 58.2656C43.2812 59.2031 43.3594 59.8438 43.4844 60.0312C43.6406 60.25 48.9062 61.4375 69.8594 65.9219C84.25 69.0156 96.2031 71.5469 96.4219 71.5469C96.6406 71.5469 96.9375 71.4219 97.0781 71.2812C97.2969 71.0469 97.3438 70.6875 97.3594 69.4375C97.3594 68.125 97.3125 67.8281 97.0938 67.6094C96.8906 67.4219 89.0312 65.6719 70.5156 61.7031C56.0625 58.6094 44.2188 56.0781 44.1875 56.0938C44.1719 56.0938 44.0469 56.1406 43.9219 56.1875C43.7969 56.2344 43.5938 56.375 43.4844 56.5156ZM38.7656 60.7344C37.8125 62.3906 37.0625 63.7812 37.0781 63.8594C37.1094 63.9219 37.7969 65.125 38.6094 66.5156L40.0938 69.0312L48.4531 69.0469L48.375 63.9688C44.1406 63.0469 42.7344 62.6719 42.5156 62.5312C42.2969 62.3906 41.9531 62.1406 41.75 61.9531C41.5469 61.7656 41.25 61.3438 41.0625 61C40.875 60.625 40.6875 59.8438 40.6094 59.0625L40.4688 57.75L38.7656 60.7344ZM50.9688 97.3125H79.4062V73.4844C79.9531 72.5625 80.3125 72.1562 80.5781 72C80.8281 71.8281 81.5 71.6406 82.0625 71.5625C82.7031 71.4844 82.9531 71.4062 82.7656 71.3438C82.5938 71.2969 75.4844 69.7656 66.9844 67.9375C58.4688 66.125 51.3906 64.6094 51.25 64.5625C51.0156 64.4844 50.9844 65.6875 50.9688 80.9062V97.3125ZM34.6719 67.7188C34.3594 68.25 34.1094 68.75 34.1094 68.8438C34.1094 68.9688 34.5937 69.0312 35.5781 69.0312C36.4062 69.0312 37.0625 68.9844 37.0625 68.9531C37.0625 68.9062 36.7344 68.3125 36.3125 67.6094C35.75 66.6875 35.5156 66.4219 35.4062 66.5625C35.3125 66.6719 34.9844 67.1875 34.6719 67.7188ZM27.8438 76.6875H48.4688L48.3906 71.6094L27.8594 71.5156L27.8438 76.6875ZM81.9062 97.3125H92.2188V74.1875H81.9062V97.3125ZM30.3438 87H38.1562V79.3438H30.3438V87ZM40.6562 87H48.4688V79.3438H40.6562V87ZM30.3438 97.3125H38.1562V89.6562H30.3438V97.3125ZM40.6562 97.3125H48.4688V89.6562H40.6562V97.3125ZM65.4219 71.5938C74.1719 71.6094 74.9844 71.6406 75.4531 71.8906C75.7344 72.0469 76.125 72.3906 76.3125 72.6719C76.625 73.125 76.6719 73.4062 76.7188 75.3594C76.7656 77.4375 76.75 77.5781 76.4062 78.0938C76.2031 78.4062 75.7188 78.8125 74.6406 79.3594H55.7344L55.0312 79C54.6562 78.8125 54.2031 78.4531 54.0156 78.2031C53.75 77.8281 53.6875 77.4844 53.6406 75.8594C53.625 74.8125 53.6406 73.7344 53.6875 73.4531C53.7344 73.1719 54.0156 72.7031 54.3281 72.3906C54.625 72.0938 55.0938 71.7812 55.375 71.7031C55.6719 71.625 59.9531 71.5781 65.4219 71.5938ZM56.125 76.6875H58.7812V74.1875H56.125V76.6875ZM61.2812 76.6875H63.9375V74.1875H61.2812V76.6875ZM66.4375 76.6875H69.0938V74.1875H66.4375V76.6875ZM71.5938 76.6875H74.25V74.1875H71.5938V76.6875ZM85.8125 76.6875L88.3906 76.7656L88.4688 79.3438H85.8125V76.6875ZM65.3594 84.5625C75.0156 84.5938 75.1562 84.6094 75.5938 84.9219C75.8281 85.1094 76.1875 85.4844 76.3906 85.7812C76.7031 86.2656 76.7344 86.4844 76.7344 88.3438C76.7188 90.1875 76.6875 90.4375 76.3594 91C76.1406 91.375 75.7656 91.75 75.4219 91.9062C74.9063 92.1562 74.1094 92.1719 64.9688 92.1406C55.3594 92.0938 55.0781 92.0938 54.6719 91.7812C54.4375 91.6094 54.1094 91.2344 53.9375 90.9219C53.6562 90.4531 53.6094 90.1094 53.6094 88.3906C53.6094 86.9688 53.6719 86.2656 53.8281 85.9688C53.9531 85.7344 54.2031 85.375 54.4062 85.1875C54.6094 85 54.9531 84.7812 55.1719 84.6875C55.4219 84.5938 59.0625 84.5469 65.3594 84.5625ZM56.0781 88.4531L56.1094 89.6719H58.7656L58.6875 87.0938C56.8594 87.0312 56.2656 87.0625 56.1875 87.125C56.1094 87.1719 56.0625 87.7812 56.0781 88.4531ZM61.2344 88.4531L61.2656 89.6719H63.9219L63.8438 87.0938C62.0156 87.0312 61.4219 87.0625 61.3438 87.125C61.2656 87.1719 61.2188 87.7812 61.2344 88.4531ZM66.3906 88.4531L66.4219 89.6719H69.0781L69 87.0938C67.1719 87.0312 66.5781 87.0625 66.5 87.125C66.4219 87.1719 66.375 87.7812 66.3906 88.4531ZM71.5469 88.4531L71.5781 89.6719H74.2344V87.0156C72.3281 87.0156 71.7188 87.0625 71.6562 87.125C71.5781 87.1875 71.5312 87.7812 71.5469 88.4531ZM85.7969 84.5156H88.4531V87.0156H85.7969V84.5156ZM88.375 92.25L88.4531 94.8281H85.7969L85.7656 93.6094C85.75 92.9375 85.7969 92.3281 85.875 92.2812C85.9531 92.2188 86.5469 92.1875 88.375 92.25Z" fill="#16191C"/>
</g>
<defs>
<clipPath id="clip0_181_1528">
<rect width="80" height="80" fill="white" transform="translate(20 20)"/>
</clipPath>
</defs>
</svg>
