<svg width="20" height="20" viewBox="0 0 20 20" fill="none" xmlns="http://www.w3.org/2000/svg">
<path d="M18.3333 9.99984C18.3329 7.78983 17.4548 5.67048 15.8921 4.10777C14.3294 2.54506 12.21 1.66695 9.99999 1.6665V3.33317C11.3184 3.33347 12.6071 3.72453 13.7034 4.45695C14.7997 5.18937 15.6542 6.23028 16.1592 7.44817C16.4943 8.25714 16.6667 9.12421 16.6667 9.99984H18.3333ZM1.66666 8.33317V4.1665C1.66666 3.94549 1.75445 3.73353 1.91073 3.57725C2.06701 3.42097 2.27898 3.33317 2.49999 3.33317H6.66666C6.88767 3.33317 7.09963 3.42097 7.25591 3.57725C7.41219 3.73353 7.49999 3.94549 7.49999 4.1665V7.49984C7.49999 7.72085 7.41219 7.93281 7.25591 8.08909C7.09963 8.24537 6.88767 8.33317 6.66666 8.33317H4.99999C4.99999 10.1013 5.70237 11.797 6.95261 13.0472C8.20285 14.2975 9.89855 14.9998 11.6667 14.9998V13.3332C11.6667 13.1122 11.7545 12.9002 11.9107 12.7439C12.067 12.5876 12.279 12.4998 12.5 12.4998H15.8333C16.0543 12.4998 16.2663 12.5876 16.4226 12.7439C16.5789 12.9002 16.6667 13.1122 16.6667 13.3332V17.4998C16.6667 17.7208 16.5789 17.9328 16.4226 18.0891C16.2663 18.2454 16.0543 18.3332 15.8333 18.3332H11.6667C6.14416 18.3332 1.66666 13.8557 1.66666 8.33317Z" fill="white"/>
<path d="M14.6192 8.08667C14.8707 8.69319 15.0001 9.34338 15 10H13.5C13.5001 9.54034 13.4097 9.08517 13.2338 8.66048C13.0579 8.23579 12.8001 7.84991 12.4751 7.52488C12.1501 7.19986 11.7642 6.94205 11.3395 6.7662C10.9148 6.59035 10.4597 6.49989 10 6.5V5C10.9889 5.00005 11.9555 5.29333 12.7777 5.84275C13.5999 6.39217 14.2408 7.17306 14.6192 8.08667Z" fill="white"/>
</svg>
