<svg width="481" height="513" viewBox="0 0 481 513" fill="none" xmlns="http://www.w3.org/2000/svg">
<g opacity="0.1">
<mask id="path-1-inside-1_90_56" fill="white">
<path fill-rule="evenodd" clip-rule="evenodd" d="M96.7277 86.2024L0.727682 0.869019L480.728 0.869019V86.2024L196.915 256.861L480.728 427.519L480.714 427.536H480.727V512.869H0.727295L96.7273 427.536H309.625L96.7367 299.525L96.7274 299.535V214.202L96.7581 214.238L96.7276 214.202L309.597 86.2024H96.7277Z"/>
</mask>
<path d="M0.727682 0.869019V-2.13098H-7.16292L-1.26541 3.11125L0.727682 0.869019ZM96.7277 86.2024L94.7346 88.4446L95.5871 89.2024H96.7277V86.2024ZM480.728 0.869019H483.728V-2.13098H480.728V0.869019ZM480.728 86.2024L482.274 88.7734L483.728 87.899V86.2024H480.728ZM196.915 256.861L195.369 254.29L191.093 256.861L195.369 259.432L196.915 256.861ZM480.728 427.519L483.021 429.454L485.291 426.763L482.274 424.948L480.728 427.519ZM480.714 427.536L478.421 425.601L474.257 430.536H480.714V427.536ZM480.727 427.536H483.727V424.536H480.727V427.536ZM480.727 512.869V515.869H483.727V512.869H480.727ZM0.727295 512.869L-1.2658 510.627L-7.1633 515.869H0.727295L0.727295 512.869ZM96.7273 427.536V424.536H95.5867L94.7342 425.294L96.7273 427.536ZM309.625 427.536V430.536H320.436L311.171 424.965L309.625 427.536ZM96.7367 299.525L98.2826 296.954L96.1065 295.645L94.4564 297.575L96.7367 299.525ZM96.7274 299.535H93.7274V307.661L99.0077 301.485L96.7274 299.535ZM96.7274 214.202L99.0076 212.253L93.7274 206.077V214.202H96.7274ZM96.7581 214.238L94.4779 216.188L99.0509 212.303L96.7581 214.238ZM96.7276 214.202L95.1817 211.631L92.1641 213.445L94.4348 216.137L96.7276 214.202ZM309.597 86.2024L311.142 88.7733L320.407 83.2024H309.597V86.2024ZM-1.26541 3.11125L94.7346 88.4446L98.7208 83.9601L2.72077 -1.37321L-1.26541 3.11125ZM480.728 -2.13098L0.727682 -2.13098V3.86902L480.728 3.86902V-2.13098ZM483.728 86.2024V0.869019H477.728V86.2024H483.728ZM198.461 259.432L482.274 88.7734L479.182 83.6314L195.369 254.29L198.461 259.432ZM482.274 424.948L198.461 254.29L195.369 259.432L479.182 430.09L482.274 424.948ZM483.007 429.47L483.021 429.454L478.435 425.585L478.421 425.601L483.007 429.47ZM480.714 430.536H480.727V424.536H480.714V430.536ZM477.727 427.536V512.869H483.727V427.536H477.727ZM480.727 509.869H0.727295L0.727295 515.869H480.727V509.869ZM2.72039 515.111L98.7204 429.778L94.7342 425.294L-1.2658 510.627L2.72039 515.111ZM96.7273 430.536H309.625V424.536H96.7273V430.536ZM95.1907 302.096L308.079 430.107L311.171 424.965L98.2826 296.954L95.1907 302.096ZM99.0077 301.485L99.0169 301.474L94.4564 297.575L94.4471 297.586L99.0077 301.485ZM93.7274 214.202V299.535H99.7274V214.202H93.7274ZM99.0383 212.288L99.0076 212.253L94.4472 216.152L94.4779 216.188L99.0383 212.288ZM94.4348 216.137L94.4652 216.173L99.0509 212.303L99.0205 212.267L94.4348 216.137ZM308.051 83.6314L95.1817 211.631L98.2736 216.773L311.142 88.7733L308.051 83.6314ZM96.7277 89.2024H309.597V83.2024H96.7277V89.2024Z" fill="white" mask="url(#path-1-inside-1_90_56)"/>
</g>
</svg>
