<svg width="520" height="520" viewBox="0 0 520 520" fill="none" xmlns="http://www.w3.org/2000/svg">
<g opacity="0.3">
<mask id="path-1-inside-1_90_114" fill="white">
<path fill-rule="evenodd" clip-rule="evenodd" d="M86.6667 520L0 455.867L0 64.1333L86.6514 0.0112915L86.6667 0L259.992 256.219L433.316 -0.000244141L433.333 0.0123901V0H520V520H433.333V154.468L303.322 346.658L303.333 346.667H216.667V346.666L86.6667 154.493L86.6667 520Z"/>
</mask>
<path d="M0 455.867H-3V457.379L-1.78453 458.278L0 455.867ZM86.6667 520L84.8821 522.412L89.6667 525.952V520H86.6667ZM0 64.1333L-1.78453 61.7218L-3 62.6212V64.1333H0ZM86.6514 0.0112915L84.8669 -2.40027L86.6514 0.0112915ZM86.6667 0L89.1515 -1.68097L87.3979 -4.27319L84.8821 -2.41156L86.6667 0ZM259.992 256.219L257.507 257.9L259.992 261.574L262.477 257.9L259.992 256.219ZM433.316 -0.000244141L435.116 -2.40027L432.597 -4.29022L430.832 -1.68115L433.316 -0.000244141ZM433.333 0.0123901L431.533 2.41235L436.333 6.01239V0.0123901H433.333ZM433.333 0V-3H430.333V0H433.333ZM520 0H523V-3H520V0ZM520 520V523H523V520H520ZM433.333 520H430.333V523H433.333V520ZM433.333 154.468H436.333V144.679L430.848 152.787L433.333 154.468ZM303.322 346.658L300.837 344.977L299.247 347.328L301.507 349.046L303.322 346.658ZM303.333 346.667V349.667H312.236L305.149 344.278L303.333 346.667ZM216.667 346.667H213.667V349.667H216.667V346.667ZM216.667 346.666H219.667V345.747L219.152 344.986L216.667 346.666ZM86.6667 154.493L89.1515 152.812L83.6667 144.704V154.493H86.6667ZM-1.78453 458.278L84.8821 522.412L88.4512 517.588L1.78453 453.455L-1.78453 458.278ZM-3 64.1333L-3 455.867H3L3 64.1333H-3ZM84.8669 -2.40027L-1.78453 61.7218L1.78453 66.5449L88.4359 2.42279L84.8669 -2.40027ZM84.8821 -2.41156L84.8669 -2.40027L88.4359 2.42279L88.4512 2.4115L84.8821 -2.41156ZM262.476 254.538L89.1515 -1.68097L84.1818 1.68091L257.507 257.9L262.476 254.538ZM430.832 -1.68115L257.507 254.538L262.477 257.9L435.801 1.68066L430.832 -1.68115ZM435.133 -2.38763L435.116 -2.40027L431.517 2.39972L431.533 2.41235L435.133 -2.38763ZM436.333 0.0123901V0H430.333V0.0123901H436.333ZM433.333 3H520V-3H433.333V3ZM517 0V520H523V0H517ZM520 517H433.333V523H520V517ZM436.333 520V154.468H430.333V520H436.333ZM305.807 348.339L435.818 156.149L430.848 152.787L300.837 344.977L305.807 348.339ZM305.149 344.278L305.138 344.27L301.507 349.046L301.518 349.055L305.149 344.278ZM216.667 349.667H303.333V343.667H216.667V349.667ZM213.667 346.666V346.667H219.667V346.666H213.667ZM84.1818 156.173L214.182 348.347L219.152 344.986L89.1515 152.812L84.1818 156.173ZM89.6667 520L89.6667 154.493H83.6667L83.6667 520H89.6667Z" fill="white" mask="url(#path-1-inside-1_90_114)"/>
</g>
</svg>
