<?xml version="1.0" encoding="utf-8"?><svg viewBox="0 0 32 32" xmlns="http://www.w3.org/2000/svg" xmlns:xlink="http://www.w3.org/1999/xlink"><style>:root>svg{display:none}:root>svg:target{display:block}</style><svg viewBox="0 0 20 20" id="mail" xmlns="http://www.w3.org/2000/svg"><path d="M17.667 7.833c.416.317.666.809.666 1.334v7.5a1.667 1.667 0 01-1.666 1.666H3.333a1.667 1.667 0 01-1.666-1.666v-7.5a1.667 1.667 0 01.666-1.334l6.667-5a1.667 1.667 0 012 0"/><path d="M18.333 9.167l-7.475 4.75a1.616 1.616 0 01-1.716 0l-7.475-4.75M13.333 8.333L16.667 5l-3.334-3.333"/><path d="M10 10V8.333A3.333 3.333 0 0113.333 5h2.5"/></svg><svg viewBox="0 0 20 20" id="message" xmlns="http://www.w3.org/2000/svg"><path d="M17.5 12.5a1.666 1.666 0 01-1.667 1.667h-10L2.5 17.5V4.167A1.667 1.667 0 014.167 2.5h11.666A1.666 1.666 0 0117.5 4.167V12.5z"/></svg><svg viewBox="0 0 20 20" id="order" xmlns="http://www.w3.org/2000/svg"><path d="M18.333 1.667L12.5 18.333l-3.333-7.5-7.5-3.333 16.666-5.833zM18.333 1.667l-9.166 9.166"/></svg><svg viewBox="0 0 32 32" id="slider-next" xmlns="http://www.w3.org/2000/svg"><path d="M32 15.469L18.669 2.137h-8L21.33 12.8H0v5.337h21.331L10.67 28.8h8L32 15.469z"/></svg><svg viewBox="0 0 32 32" id="slider-prev" xmlns="http://www.w3.org/2000/svg"><path d="M0 15.469L13.331 2.137h8L10.67 12.8H32v5.337H10.669L21.33 28.8h-8L0 15.469z"/></svg><svg viewBox="0 0 20 20" id="vacancy" xmlns="http://www.w3.org/2000/svg"><g clip-path="url(#fclip0_35_309)"><path d="M14.57 16.314l-3.935-2.18c1.463-1.15 1.86-3.412 1.86-4.68V6.817c0-1.748-2.322-3.694-4.654-3.694S3.126 5.068 3.126 6.816v2.639c0 1.152.488 3.485 1.965 4.67l-4.036 2.19S0 16.784 0 17.37v1.584c0 .583.473 1.056 1.055 1.056H14.57c.582 0 1.056-.473 1.056-1.056V17.37c0-.621-1.056-1.056-1.056-1.056zm-.194 2.446H1.25v-1.118c.09-.065.215-.14.314-.186a1.07 1.07 0 00.086-.043l4.037-2.19a1.25 1.25 0 00.186-2.074c-1.048-.84-1.497-2.701-1.497-3.694v-2.64c0-.897 1.693-2.443 3.465-2.443 1.806 0 3.404 1.525 3.404 2.444v2.639c0 .979-.304 2.848-1.382 3.697a1.252 1.252 0 00.174 2.08l3.935 2.18c.034.019.078.04.115.055.092.04.206.105.289.162v1.13zm4.569-5.558l-3.994-2.18c1.463-1.15 1.919-3.412 1.919-4.68V3.703c0-1.747-2.38-3.713-4.713-3.713-1.515 0-3.065.824-3.967 1.88.514.031 1.082.032 1.572.188a3.887 3.887 0 012.395-.818c1.806 0 3.463 1.544 3.463 2.464v2.639c0 .979-.363 2.848-1.441 3.697a1.252 1.252 0 00.173 2.08l3.994 2.18c.035.019.079.04.115.055.093.04.206.105.289.162v1.112h-2.523c.38.287.496.699.644 1.25h2.074c.582 0 1.055-.473 1.055-1.056v-1.565c0-.621-1.055-1.056-1.055-1.056z"/></g><defs><clipPath id="fclip0_35_309"><path d="M0 0h20v20H0z"/></clipPath></defs></svg></svg>