<svg width="20" height="20" viewBox="0 0 20 20" fill="none" xmlns="http://www.w3.org/2000/svg">
<path d="M18.3333 9.99999C18.3329 7.78999 17.4548 5.67063 15.8921 4.10792C14.3294 2.54521 12.21 1.6671 10 1.66666V3.33332C11.3184 3.33362 12.6072 3.72469 13.7034 4.4571C14.7997 5.18952 15.6542 6.23043 16.1592 7.44832C16.4943 8.2573 16.6667 9.12436 16.6667 9.99999H18.3333ZM1.66666 8.33332V4.16666C1.66666 3.94564 1.75446 3.73368 1.91074 3.5774C2.06702 3.42112 2.27898 3.33332 2.5 3.33332H6.66666C6.88768 3.33332 7.09964 3.42112 7.25592 3.5774C7.4122 3.73368 7.5 3.94564 7.5 4.16666V7.49999C7.5 7.721 7.4122 7.93296 7.25592 8.08925C7.09964 8.24553 6.88768 8.33332 6.66666 8.33332H5C5 10.1014 5.70238 11.7971 6.95262 13.0474C8.20286 14.2976 9.89855 15 11.6667 15V13.3333C11.6667 13.1123 11.7545 12.9003 11.9107 12.7441C12.067 12.5878 12.279 12.5 12.5 12.5H15.8333C16.0543 12.5 16.2663 12.5878 16.4226 12.7441C16.5789 12.9003 16.6667 13.1123 16.6667 13.3333V17.5C16.6667 17.721 16.5789 17.933 16.4226 18.0892C16.2663 18.2455 16.0543 18.3333 15.8333 18.3333H11.6667C6.14416 18.3333 1.66666 13.8558 1.66666 8.33332Z" fill="#16191C"/>
<path d="M14.6192 8.08667C14.8707 8.69319 15.0001 9.34338 15 10H13.5C13.5001 9.54034 13.4097 9.08517 13.2338 8.66048C13.0579 8.23579 12.8001 7.84991 12.4751 7.52488C12.1501 7.19986 11.7642 6.94205 11.3395 6.7662C10.9148 6.59035 10.4597 6.49989 10 6.5V5C10.9889 5.00005 11.9555 5.29333 12.7777 5.84275C13.5999 6.39217 14.2408 7.17306 14.6192 8.08667Z" fill="#16191C"/>
</svg>
