<svg width="373" height="518" viewBox="0 0 373 518" fill="none" xmlns="http://www.w3.org/2000/svg">
<g opacity="0.2">
<mask id="path-1-inside-1_36_33" fill="white">
<path fill-rule="evenodd" clip-rule="evenodd" d="M86.667 86.6666L0.000356436 0L433.334 0V86.6666L177.114 259.991L433.334 433.316L433.321 433.333H433.333L433.333 520H0L86.6666 433.333H278.866L86.6751 303.322L86.6667 303.333V216.666L86.6954 216.704L86.667 216.666L278.84 86.6666L86.667 86.6666Z"/>
</mask>
<path d="M0.000356436 0L0.000356436 -3L-7.24228 -3L-2.12096 2.12132L0.000356436 0ZM86.667 86.6666L84.5457 88.788L85.4244 89.6666H86.667V86.6666ZM433.334 0L436.334 0V-3L433.334 -3V0ZM433.334 86.6666L435.015 89.1515L436.334 88.2592V86.6666H433.334ZM177.114 259.991L175.433 257.506L171.76 259.991L175.433 262.476L177.114 259.991ZM433.334 433.316L435.733 435.117L437.624 432.597L435.015 430.832L433.334 433.316ZM433.321 433.333L430.922 431.533L427.319 436.333H433.321V433.333ZM433.333 433.333H436.333V430.333H433.333V433.333ZM433.333 520V523H436.333V520H433.333ZM0 520L-2.12132 517.879L-7.24264 523H0L0 520ZM86.6666 433.333V430.333H85.424L84.5453 431.212L86.6666 433.333ZM278.866 433.333V436.333H288.655L280.547 430.848L278.866 433.333ZM86.6751 303.322L88.3561 300.837L86.0051 299.247L84.2871 301.506L86.6751 303.322ZM86.6667 303.333H83.6667V312.235L89.0548 305.149L86.6667 303.333ZM86.6667 216.666L89.0551 214.851L83.6667 207.762V216.666H86.6667ZM86.6954 216.704L84.3071 218.52L89.0953 214.904L86.6954 216.704ZM86.667 216.666L84.986 214.181L82.3769 215.946L84.2671 218.466L86.667 216.666ZM278.84 86.6666L280.521 89.1515L288.629 83.6666H278.84V86.6666ZM-2.12096 2.12132L84.5457 88.788L88.7883 84.5453L2.12168 -2.12132L-2.12096 2.12132ZM433.334 -3L0.000356436 -3L0.000356436 3L433.334 3V-3ZM436.334 86.6666V0L430.334 0V86.6666H436.334ZM178.795 262.476L435.015 89.1515L431.653 84.1818L175.433 257.506L178.795 262.476ZM435.015 430.832L178.795 257.506L175.433 262.476L431.653 435.801L435.015 430.832ZM435.721 435.134L435.733 435.117L430.934 431.516L430.922 431.533L435.721 435.134ZM433.321 436.333H433.333V430.333H433.321V436.333ZM430.333 433.333L430.333 520H436.333L436.333 433.333H430.333ZM433.333 517H0L0 523H433.333V517ZM2.12132 522.121L88.788 435.455L84.5453 431.212L-2.12132 517.879L2.12132 522.121ZM86.6666 436.333H278.866V430.333H86.6666V436.333ZM84.9942 305.807L277.185 435.818L280.547 430.848L88.3561 300.837L84.9942 305.807ZM89.0548 305.149L89.0632 305.138L84.2871 301.506L84.2787 301.517L89.0548 305.149ZM83.6667 216.666V303.333H89.6667V216.666H83.6667ZM89.0838 214.889L89.0551 214.851L84.2784 218.482L84.3071 218.52L89.0838 214.889ZM84.2671 218.466L84.2956 218.504L89.0953 214.904L89.0669 214.866L84.2671 218.466ZM277.159 84.1818L84.986 214.181L88.3479 219.151L280.521 89.1515L277.159 84.1818ZM86.667 89.6666L278.84 89.6666V83.6666L86.667 83.6666V89.6666Z" fill="white" mask="url(#path-1-inside-1_36_33)"/>
</g>
</svg>
