<svg width="120" height="120" viewBox="0 0 120 120" fill="none" xmlns="http://www.w3.org/2000/svg">
<path opacity="0.3" fill-rule="evenodd" clip-rule="evenodd" d="M44.0857 67L29.0007 67L66.7131 29.2876L74.2556 36.8301L74.2538 36.8319L67.0399 74.2131L104.424 66.9985L104.424 67.0005L111.967 74.5425L74.2541 112.255L74.2541 97.1699L90.9806 80.4435L62.9409 85.8547L62.9411 85.8562L55.3987 78.3138L55.3979 78.3137L60.8085 50.2772L44.0857 67Z" fill="#36AF42"/>
<path fill-rule="evenodd" clip-rule="evenodd" d="M58.875 20.1562C58.9375 20.1562 62.3438 22.3906 66.4375 25.125C70.5469 27.8438 73.9062 30.1094 73.9062 30.1562C73.9062 30.2031 70.5781 32.4688 66.4844 35.1875C62.4062 37.9219 59 40.1562 58.9062 40.1562C58.8125 40.1562 58.75 39.25 58.75 35.3906L57.4531 35.5156C56.75 35.5781 55.6094 35.7344 54.9219 35.875C54.2344 36 52.9688 36.3281 52.1094 36.5938C51.25 36.8438 49.9531 37.3281 49.2188 37.6406C48.4844 37.9531 47.2188 38.6094 46.4062 39.0938C45.5938 39.5781 44.4688 40.3125 43.9062 40.7188C43.3594 41.1406 42.3438 42 41.6406 42.6406C40.9531 43.2812 39.9062 44.375 39.3281 45.0625C38.75 45.7656 37.9375 46.8125 37.5312 47.4219C37.125 48.0156 36.4062 49.2812 35.9219 50.2344C35.4219 51.1875 34.8125 52.5938 34.5312 53.3594C34.2656 54.125 33.9062 55.2969 33.75 55.9375C33.5938 56.5781 33.3438 57.8438 33.2188 58.75C33.0781 59.6562 32.9688 61.3438 32.9688 62.5C32.9688 63.6562 33.0781 65.3438 33.2188 66.25C33.3438 67.1562 33.5937 68.4531 33.7812 69.1406C33.9531 69.8281 34.3281 71.0312 34.6094 71.7969C34.8906 72.5625 35.4062 73.7812 35.7656 74.4844C36.1094 75.2031 36.7031 76.25 37.0469 76.8281C37.4062 77.4219 38.1094 78.4219 38.5938 79.0625C39.0938 79.7031 40.1094 80.8594 40.875 81.625C41.6406 82.3906 42.9844 83.5625 43.8594 84.2031C44.7344 84.8594 46.0469 85.7188 46.75 86.125C47.4688 86.5312 48.8125 87.1875 49.7656 87.5625C50.7188 87.9531 52.1562 88.4531 52.9688 88.6719C53.7812 88.8906 55.125 89.1719 55.9375 89.3125C56.8906 89.4688 58.375 89.5625 60.0781 89.5625C61.7344 89.5625 63.2656 89.4688 64.1406 89.3281C64.9062 89.2031 66.1094 88.9531 66.7969 88.7656C67.4844 88.5938 68.5781 88.2656 69.2188 88.0312C69.8594 87.7969 70.9531 87.3438 71.6406 87.0312C72.3281 86.7188 73.4531 86.1094 74.1406 85.6875C74.8281 85.2656 75.9531 84.4844 76.6406 83.9531C77.3281 83.4375 78.5156 82.3906 79.2812 81.625C80.0469 80.8594 81.0625 79.7031 81.5625 79.0625C82.0469 78.4219 82.75 77.4219 83.1094 76.8281C83.4531 76.25 84.0625 75.1719 84.4375 74.4062C84.8125 73.6562 85.4062 72.2031 85.75 71.1719C86.1094 70.1406 86.5 68.7656 86.625 68.125C86.75 67.4844 86.9375 66.3594 87.0156 65.625C87.1094 64.8906 87.1875 63.8906 87.1875 62.5H89.8438L89.75 63.9375C89.7031 64.7344 89.5625 66.0938 89.4375 66.9531C89.3125 67.8125 89.0625 69.0781 88.8906 69.7656C88.7188 70.4531 88.3281 71.7188 88.0156 72.5781C87.7031 73.4375 87.1406 74.7812 86.75 75.5469C86.3594 76.3125 85.7188 77.4844 85.3281 78.125C84.9219 78.7656 84.1406 79.8906 83.5938 80.625C83.0469 81.3594 81.8906 82.6562 81.0156 83.5156C80.1562 84.375 78.8906 85.5156 78.2031 86.0312C77.5156 86.5625 76.3125 87.375 75.5469 87.8594C74.7812 88.3281 73.5781 88.9844 72.8906 89.2969C72.2031 89.625 71.1094 90.0781 70.4688 90.3281C69.8281 90.5781 68.5312 90.9844 67.5781 91.2344C66.625 91.4844 65.2656 91.7812 64.5312 91.8906C63.7344 92.0312 61.9531 92.1094 60.0781 92.1094C58.2031 92.1094 56.4219 92.0312 55.625 91.8906C54.8906 91.7812 53.5312 91.4844 52.5781 91.2344C51.625 90.9844 50.3281 90.5781 49.6875 90.3281C49.0469 90.0781 47.9531 89.625 47.2656 89.2969C46.5781 88.9844 45.375 88.3281 44.6094 87.8594C43.8438 87.375 42.6406 86.5625 41.9531 86.0312C41.2656 85.5156 40 84.375 39.1406 83.5156C38.2656 82.6562 37.1406 81.3906 36.625 80.7031C36.0938 80.0156 35.3438 78.9375 34.9375 78.3125C34.5469 77.7031 33.875 76.5 33.4531 75.6562C33.0469 74.8281 32.4531 73.4375 32.1406 72.5781C31.8281 71.7188 31.4375 70.4531 31.2656 69.7656C31.0938 69.0781 30.8438 67.8125 30.6875 66.9531C30.5156 65.8906 30.4375 64.4688 30.4375 62.5C30.4375 60.5312 30.5156 59.1094 30.6875 58.0469C30.8438 57.1875 31.0938 55.9219 31.2656 55.2344C31.4375 54.5469 31.8281 53.2812 32.1406 52.4219C32.4531 51.5625 33.0469 50.1719 33.4531 49.3281C33.875 48.5 34.5469 47.2969 34.9375 46.6719C35.3438 46.0625 36.0938 44.9844 36.625 44.2969C37.1406 43.6094 38.2656 42.3438 39.1406 41.4844C40 40.625 41.2656 39.4844 41.9531 38.9688C42.6406 38.4375 43.8438 37.625 44.6094 37.1406C45.375 36.6719 46.6094 36 47.3438 35.6562C48.0781 35.3281 49.2656 34.8281 50 34.5625C50.7344 34.2969 52 33.9062 52.8125 33.7031C53.625 33.4844 55.125 33.2031 56.125 33.0625C57.1406 32.9219 58.7344 32.8125 61.4062 32.8125V35.4688L65.3125 32.8438C67.4688 31.4062 69.2344 30.2031 69.2344 30.1562C69.2344 30.1094 67.4688 28.9062 61.4062 24.8438L61.3281 27.5781L58.75 27.6719C57.3281 27.7344 55.4688 27.8906 54.6094 28.0312C53.75 28.1719 52.375 28.4531 51.5625 28.6719C50.75 28.875 49.3438 29.2969 48.4375 29.6094C47.5312 29.9219 46.0312 30.5469 45.0781 31C44.125 31.4531 42.7188 32.2188 41.9531 32.6875C41.1875 33.1719 39.9688 33.9844 39.25 34.5156C38.5469 35.0469 37.3594 36.0156 36.6094 36.6719C35.8594 37.3438 34.7344 38.4844 34.0938 39.2188C33.4531 39.9531 32.5625 41.0312 32.1094 41.6406C31.6562 42.2344 30.9219 43.3125 30.4844 44.0156C30.0469 44.7344 29.3125 46.0625 28.8438 46.9844C28.375 47.9219 27.7031 49.4375 27.3594 50.3906C27 51.3438 26.5 52.9219 26.2656 53.9062C26.0156 54.8906 25.6875 56.5156 25.5313 57.5C25.3281 58.7969 25.25 60.1875 25.25 62.5C25.25 64.8125 25.3281 66.2031 25.5313 67.5C25.6875 68.4844 26.0156 70.1094 26.2656 71.0938C26.5 72.0781 26.9844 73.625 27.3125 74.5312C27.6406 75.4375 28.3125 76.9688 28.7969 77.9219C29.2969 78.8906 30.0313 80.2344 30.4375 80.8906C30.8438 81.5625 31.5 82.5312 31.875 83.0469C32.2656 83.5625 33.0781 84.5781 33.6875 85.3125C34.2969 86.0469 35.2969 87.1094 35.9219 87.6875C36.5312 88.2812 37.5781 89.1875 38.2344 89.7188C38.9062 90.25 40.1875 91.1719 41.0938 91.7656C42 92.3594 43.6406 93.2969 44.7656 93.8438C45.8906 94.3906 47.8438 95.1875 49.1406 95.6094C50.4219 96.0312 52.2188 96.5156 53.125 96.7031C54.0312 96.875 55.4062 97.0938 56.1719 97.1875C56.9375 97.2656 58.7031 97.3438 60.0781 97.3438C61.4531 97.3438 63.2188 97.2656 63.9844 97.1875C64.75 97.0938 66.125 96.875 67.0312 96.7031C67.9375 96.5156 69.6875 96.0469 70.9375 95.6406C72.1875 95.2188 74.0156 94.5 75 94.0312C75.9844 93.5625 77.4688 92.7656 78.2812 92.2656C79.0938 91.75 80.3594 90.8906 81.0938 90.3438C81.8281 89.7812 82.9375 88.875 83.5781 88.2969C84.2188 87.7344 85.2969 86.625 85.9844 85.8594C86.6562 85.0938 87.5938 83.9688 88.0469 83.3594C88.5 82.75 89.2344 81.6875 89.6719 80.9688C90.1094 80.2656 90.8906 78.8594 91.3906 77.8438C91.9062 76.8438 92.6719 74.9531 93.1094 73.6719C93.5469 72.375 94.0625 70.4531 94.2812 69.375C94.5 68.2969 94.75 66.6562 94.8281 65.7031C94.9219 64.75 95 63.6562 95 62.5H97.5V63.8594C97.5 64.625 97.4062 66.0469 97.2812 67.0312C97.1562 68.0156 96.9688 69.2188 96.875 69.6875C96.7812 70.1562 96.5 71.3594 96.2344 72.3438C95.9688 73.3281 95.4844 74.8438 95.1719 75.7031C94.8438 76.5625 94.2031 78 93.75 78.9062C93.2969 79.8125 92.75 80.8594 92.5312 81.25C92.3125 81.6406 91.6562 82.6562 91.0781 83.5156C90.5 84.375 89.4688 85.75 88.7812 86.5625C88.1094 87.375 86.8125 88.75 85.9062 89.6094C85.0156 90.4688 83.5781 91.7031 82.7188 92.3438C81.875 92.9844 80.5781 93.8906 79.8438 94.3438C79.1094 94.8125 77.5938 95.625 76.4844 96.1719C75.375 96.7188 73.75 97.4219 72.8906 97.7344C72.0312 98.0625 70.375 98.5469 69.2188 98.8438C68.0625 99.125 66.125 99.5 64.9219 99.6875C63.375 99.9062 61.9531 100 60.0781 100C58.2031 100 56.7656 99.9062 55.1562 99.6719C53.9062 99.4844 51.9688 99.1094 50.8594 98.8281C49.7344 98.5469 48.125 98.0469 47.2656 97.7344C46.4062 97.4219 44.7812 96.7188 43.6719 96.1719C42.5469 95.625 41 94.7812 40.2344 94.2969C39.4531 93.8125 38.1875 92.9375 37.4219 92.3438C36.6406 91.7656 35.25 90.5625 34.3125 89.6719C33.375 88.7812 32.0469 87.375 31.375 86.5625C30.6875 85.75 29.5469 84.2031 28.8281 83.125C28.1094 82.0469 27.0937 80.3281 26.5781 79.2969C26.0625 78.2656 25.3594 76.6719 25.0156 75.7344C24.6562 74.8125 24.1406 73.125 23.8438 71.9844C23.5469 70.8594 23.1719 69.2188 23.0156 68.3594C22.7969 67.1094 22.7344 65.9375 22.7344 62.5C22.7344 59.0156 22.7969 57.9062 23.0156 56.6406C23.1719 55.7812 23.5156 54.25 23.7656 53.2344C24.0156 52.2344 24.5156 50.6094 24.8594 49.6406C25.2188 48.6875 25.9844 46.9375 26.5625 45.7812C27.1406 44.625 28.1094 42.9375 28.7031 42.0312C29.2969 41.125 30.3594 39.6875 31.0469 38.8281C31.7344 37.9688 33.0312 36.5625 33.9219 35.6875C34.8125 34.8281 36.1094 33.6719 36.7969 33.125C37.4844 32.5781 38.7812 31.6562 39.6875 31.0625C40.5938 30.4688 42.3125 29.5 43.5156 28.9062C44.7188 28.3125 46.4688 27.5625 47.4219 27.2188C48.375 26.875 50.0156 26.375 51.0938 26.1094C52.1719 25.8594 53.8594 25.5312 54.8438 25.4062C55.8281 25.2656 57.1094 25.125 58.75 25V22.5781C58.75 21.25 58.7969 20.1562 58.8594 20.1562H58.875ZM79.875 30.6719C79.9219 30.6875 80.3906 30.9844 80.9219 31.3281C81.4531 31.6719 81.8906 32 81.8906 32.0625C81.8906 32.1406 81.5938 32.6406 80.5625 34.1719L79.5 33.4531C78.9219 33.0625 78.4687 32.6875 78.4844 32.6406C78.5156 32.5938 78.8125 32.125 79.1562 31.5938C79.5 31.0625 79.8125 30.6406 79.875 30.6719ZM85.6406 35.1562C85.6875 35.1562 86.125 35.5625 87.5156 36.9531L85.7188 38.75L83.8438 36.875L84.7031 36.0156C85.1719 35.5469 85.5938 35.1562 85.6406 35.1562ZM73.8281 36.0938L74.6875 36.5938C75.1719 36.8594 75.6719 37.1562 75.8281 37.25C76.0469 37.4062 76.0156 37.5156 75.5156 38.375C75.1875 38.9062 74.8906 39.3906 74.8125 39.4375C74.75 39.4844 74.25 39.2812 73.6875 38.9844C73.125 38.6875 72.6719 38.3594 72.6719 38.2812C72.6719 38.1875 72.9375 37.6719 73.25 37.1094L73.8281 36.0938ZM80.1719 40.625C80.2188 40.625 80.6562 41.0312 82.0469 42.4219L80.25 44.2188L78.375 42.3438L79.2344 41.4844C79.7031 41.0156 80.125 40.625 80.1719 40.625ZM90.4844 40.625C90.5312 40.6094 90.8594 41.0469 91.2188 41.5938C91.5938 42.125 91.8906 42.625 91.8906 42.6875C91.8906 42.75 91.4688 43.0938 90.9531 43.4375C90.4375 43.7812 89.9688 44.0625 89.9062 44.0625C89.8438 44.0781 89.4688 43.6094 89.0781 43.0312C88.5 42.1719 88.4219 41.9687 88.6094 41.8594C88.7344 41.7969 89.2031 41.4844 89.625 41.1875C90.0625 40.8906 90.4375 40.625 90.4844 40.625ZM60.2812 43.1719C71.125 43.2031 71.4062 43.2031 71.8281 43.5156C72.0625 43.6875 72.3906 44.0156 72.5781 44.2656C72.875 44.6562 72.9219 44.9688 72.9688 46.7656C73.0156 48.6406 73 48.8906 72.6875 49.4531C72.5156 49.7969 72.0938 50.2344 71.7812 50.4219C71.4531 50.6094 71.0469 50.7656 70.875 50.7656C70.5781 50.7812 70.5625 50.9219 70.4531 53.0781C70.3906 54.3438 70.2344 55.8125 70.0938 56.3281C69.9688 56.8438 69.6406 57.7188 69.375 58.2812C69.1094 58.8438 68.5938 59.6875 68.2344 60.1562C67.8594 60.625 67.2188 61.2969 66.7969 61.6562C66.375 62.0156 65.5938 62.5625 65.0625 62.875C64.5156 63.1875 64.0625 63.5625 64.0312 63.7031C64 63.8594 64.0312 64.1094 64.0781 64.2812C64.125 64.4375 64.5781 64.8125 65.0938 65.1094C65.6094 65.4062 66.375 65.9531 66.7969 66.2969C67.2188 66.6562 67.8594 67.3438 68.2344 67.8125C68.5938 68.2812 69.1094 69.125 69.375 69.6875C69.6406 70.25 69.9531 71.125 70.0938 71.6406C70.2344 72.1562 70.3906 73.4844 70.5312 76.6406L71.2812 76.9062C71.7917 77.0938 72.1927 77.375 72.4844 77.75C72.8906 78.2969 72.9062 78.4375 72.9688 80.375C73.0312 82.2969 73 82.4531 72.6562 83.0938C72.4531 83.4688 72.0312 83.9219 71.1875 84.4531H49L48.4219 84.0938C48.0781 83.8906 47.7031 83.4844 47.5156 83.125C47.2656 82.5938 47.2031 82.1875 47.2031 80.625C47.2031 79.4219 47.2812 78.5625 47.4062 78.2344C47.5312 77.9531 47.8281 77.5625 48.0781 77.375C48.3281 77.1719 48.7812 76.9375 49.625 76.6875L49.7344 74.6406C49.7969 73.5 49.9531 72.1562 50.0938 71.6406C50.2344 71.125 50.5312 70.2812 50.7812 69.7656C51.0156 69.25 51.4844 68.4375 51.8438 67.9688C52.1875 67.5 52.8438 66.7812 53.3125 66.375C53.7812 65.9844 54.5938 65.4062 55.1406 65.0938C55.6719 64.7812 56.1406 64.4062 56.1562 64.25C56.1875 64.1094 56.1719 63.8438 56.125 63.6875C56.0781 63.5312 55.6094 63.1562 55.0938 62.8438C54.5781 62.5469 53.7812 61.9844 53.3125 61.5781C52.8438 61.1875 52.1875 60.4688 51.8438 60C51.4844 59.5312 51.0156 58.7188 50.7812 58.2031C50.5312 57.6875 50.2344 56.8438 50.0938 56.3281C49.9531 55.8125 49.7969 54.3438 49.7344 53.0781C49.6406 50.9219 49.6094 50.7812 49.3125 50.7656C49.1406 50.7656 48.75 50.625 48.4531 50.4531C48.1563 50.2969 47.75 49.8906 47.5625 49.5625C47.25 49.0469 47.2188 48.7656 47.2188 47.0625C47.2031 46.0156 47.2812 44.9531 47.375 44.7188C47.4688 44.4844 47.6562 44.125 47.8125 43.9062C47.9531 43.7031 48.3125 43.4375 48.625 43.3281C49.0469 43.1719 51.6094 43.1406 60.2812 43.1719ZM49.6875 47.0469L49.7031 48.2812H70.4844L70.4062 45.7031C54.5313 45.6406 49.8594 45.6719 49.7812 45.7188C49.7188 45.7813 49.6719 46.375 49.6875 47.0469ZM52.3594 52.8438C52.3594 54.0938 52.4531 55.0938 52.6094 55.7031C52.7344 56.2188 53.0625 57.0312 53.3125 57.5C53.5625 57.9688 54.0937 58.7031 54.5156 59.1406C54.9219 59.5781 55.75 60.2188 56.3438 60.5781C56.9531 60.9375 57.625 61.4219 57.8594 61.6719C58.0938 61.9062 58.3906 62.4219 58.5312 62.8125C58.6719 63.2031 58.7812 63.7188 58.7812 63.9844C58.7812 64.2344 58.6562 64.7656 58.5312 65.1562C58.3906 65.5469 58.1562 65.9844 58.0156 66.1562C57.875 66.3125 57.0781 66.8906 56.2656 67.4219C55.276 68.0677 54.5677 68.6719 54.1406 69.2344C53.7812 69.7031 53.3438 70.375 53.1562 70.7344C52.9844 71.1094 52.7188 71.8125 52.5938 72.2969C52.4531 72.8438 52.3594 73.8906 52.3594 74.9531V76.7188H67.8281C67.8281 73.8594 67.7344 72.8438 67.5938 72.2656C67.4531 71.75 67.1406 70.9375 66.875 70.4688C66.625 70 66.0781 69.2344 65.6406 68.7812C65.2188 68.3281 64.3906 67.6875 63.8125 67.3438C63.2344 67.0156 62.5625 66.5312 62.3281 66.2969C62.0938 66.0469 61.7969 65.5469 61.6562 65.1562C61.5312 64.7656 61.4219 64.2344 61.4219 63.9844C61.4219 63.7188 61.5312 63.2031 61.6562 62.8125C61.7969 62.4219 62.0938 61.9062 62.3281 61.6719C62.5625 61.4219 63.2344 60.9531 63.8125 60.6094C64.3906 60.2812 65.2188 59.625 65.6406 59.1719C66.0781 58.7188 66.625 57.9688 66.875 57.5C67.1406 57.0312 67.4531 56.2188 67.5938 55.7031C67.75 55.0938 67.8281 54.0938 67.8281 52.8438V50.9375H52.3594V52.8438ZM49.7031 81.8594H70.4844V79.3594H49.7031V81.8594ZM85.25 46.5625C85.3281 46.5469 85.625 47.0156 85.9062 47.5625C86.1875 48.125 86.4219 48.6406 86.4219 48.7031C86.4219 48.7656 85.9844 49.0625 85.4531 49.3594C84.9062 49.6719 84.4219 49.9219 84.3594 49.9531C84.2969 49.9688 83.9531 49.5156 83.625 48.9375C83.1875 48.2031 83.0469 47.8281 83.1562 47.7188C83.25 47.6406 83.7188 47.3438 84.2188 47.0625C84.7031 46.7812 85.1719 46.5625 85.25 46.5625ZM94.125 47.0312C94.1875 47.0312 94.4062 47.4062 94.625 47.875C94.8438 48.3594 95.0312 48.875 95.0625 49.0625C95.0938 49.3125 94.8906 49.4688 94 49.8438C93.4062 50.0938 92.875 50.25 92.8125 50.1875C92.7656 50.125 92.5312 49.6094 92.3125 49.0469C92.0781 48.5 91.9375 47.9844 92 47.9219C92.0781 47.8594 92.5469 47.6406 93.0625 47.4219C93.5781 47.2031 94.0625 47.0312 94.125 47.0312ZM88.2969 53.625C88.4219 53.6562 88.6406 54.1094 88.8438 54.7969C89.0156 55.4062 89.125 55.9531 89.0781 56C89.0312 56.0469 88.4688 56.2188 87.8281 56.3906C87.1875 56.5469 86.6562 56.6719 86.6406 56.6562C86.6406 56.6406 86.4844 56.0781 85.9531 54.2031L86.625 54.0469C86.9844 53.9531 87.4531 53.8125 87.6719 53.7344C87.8906 53.6719 88.1719 53.6094 88.2969 53.625ZM96.5 53.9688C96.5938 53.9844 96.75 54.4844 96.8594 55.0781C96.9844 55.6719 97.0469 56.2344 97 56.3125C96.9688 56.4062 96.4219 56.5625 95.7812 56.6719C95.1406 56.7969 94.6094 56.8594 94.5938 56.8281C94.5781 56.8125 94.4531 56.2656 94.3281 55.6094C94.1875 54.9688 94.0938 54.4375 94.125 54.4219C94.1406 54.4062 94.6562 54.2969 95.25 54.1562C95.8594 54.0312 96.4219 53.9531 96.5 53.9688Z" fill="#16191C"/>
</svg>
