<svg width="120" height="120" viewBox="0 0 120 120" fill="none" xmlns="http://www.w3.org/2000/svg">
<path opacity="0.3" fill-rule="evenodd" clip-rule="evenodd" d="M44.0857 67L29.0007 67L66.7131 29.2876L74.2556 36.8301L74.2538 36.8319L67.0399 74.2131L104.424 66.9985L104.424 67.0005L111.967 74.5425L74.2541 112.255L74.2541 97.1699L90.9806 80.4435L62.9409 85.8547L62.9411 85.8562L55.3987 78.3138L55.3979 78.3137L60.8085 50.2772L44.0857 67Z" fill="#36AF42"/>
<g clip-path="url(#clip0_181_1502)">
<path fill-rule="evenodd" clip-rule="evenodd" d="M79.2969 20.0156C80.7344 20 81.2344 20.0625 82.3438 20.4062C83.0781 20.625 84.125 21.0468 84.6875 21.3281C85.25 21.625 86.1094 22.1718 86.6094 22.5625C87.0938 22.9531 87.8906 23.75 88.3594 24.3281C88.8281 24.9219 89.4844 25.9531 90.3594 27.8906L91.8594 27.8281C93.0469 27.7812 93.5781 27.8437 94.4531 28.0937C95.0625 28.2656 96 28.7187 96.5469 29.0937C97.1094 29.4687 97.7969 30.0469 98.0938 30.3906C98.375 30.7344 98.8281 31.4218 99.0781 31.9062C99.3281 32.4062 99.6406 33.2187 99.7656 33.7031C99.8906 34.2031 100 34.9843 100 35.4218C100 35.875 99.9219 36.625 99.8281 37.0625C99.7344 37.5156 99.4531 38.3281 99.2031 38.8594C98.9219 39.4844 98.3906 40.2187 97.7656 40.8437C97.0781 41.5625 96.4688 42 95.625 42.4062C94.9062 42.75 94.0156 43.0312 93.3594 43.125C92.7031 43.2187 86.9062 43.2812 65.2344 43.2812L58.4375 45.6875C54.7031 47 51.625 48.1719 51.5938 48.2656C51.5781 48.3906 53.5938 48.4375 66.4062 48.4375V53.2031L50.3906 58.8594L50.4219 60.3281C50.4531 61.1406 50.6094 63.375 50.7812 65.3125C50.9688 67.25 51.2813 70.2656 51.5 72.0312C51.7188 73.7969 51.9375 75.5625 52.1094 76.7187H53.3125C54.1406 76.7187 54.5625 76.7812 54.6094 76.9062C54.6562 77.0156 55.5 81.4375 56.4844 86.7187C57.4688 92 58.3125 96.5625 58.4375 97.3437L70.5312 97.2656L71.8281 89.6094C72.5312 85.4062 73.1094 81.9375 73.1094 81.9062C73.125 81.8906 73.4688 81.875 73.9062 81.875C74.6406 81.875 74.6875 81.8437 74.7656 81.4375C74.7969 81.2031 74.8438 80.5312 74.9219 78.8437L63.9844 73.7812L63.9062 69.0625L69.6406 69.0156C73.3906 69 75.375 68.9375 75.3281 68.8281C75.2969 68.7344 72.7344 67.5 63.9844 63.4687L63.9062 58.75H75.4688V57.8906C75.4688 57.0312 75.4688 57.0312 81.9531 47.3437L85.1875 52.2187C88.375 57.0312 88.4375 57.125 88.4375 58.75H100L99.9219 63.4531L94.2188 66.0781C91.0781 67.5312 88.5312 68.7812 88.5469 68.8437C88.5781 68.9219 91.1562 69 100 69.0625L99.9219 73.7656L94.4531 76.2812C91.4375 77.6719 88.9688 78.8125 88.9531 78.8125C88.9375 78.8281 88.9688 79.5156 89.1406 81.875H90.7812L90.9219 82.7656C91 83.2656 91.5781 86.75 93.3594 97.3437H100V100H20V97.3437H27.9688L28.0469 96.9844C28.0938 96.7969 28.9375 92.2812 29.9219 86.9531C30.9219 81.625 31.7656 77.1406 31.7969 76.9844C31.8594 76.7656 32.0625 76.7187 33.125 76.7187C33.8125 76.7187 34.375 76.7031 34.375 76.6719C34.375 76.6562 34.5469 75.2656 34.75 73.5937C34.9688 71.9219 35.3125 68.75 35.5312 66.5625C35.75 64.375 35.9844 61.7656 36.0312 60.7812C36.0938 59.7969 36.1406 58.9531 36.125 58.9062C36.125 58.8594 32.5 57.5625 20.0781 53.2031L20 48.4375H27.5C32.3906 48.4375 35 48.3906 35 48.2812C35 48.1875 34.4844 47.9531 33.8594 47.7344C33.25 47.5156 29.8906 46.3281 20.0781 42.875L20 38.125H36.7188V37.2969C36.7188 36.5 36.7812 36.4062 43.2031 26.7187L46.4375 31.5625C49.6875 36.4062 49.6875 36.4062 49.6875 38.125H55.7031C61.3594 38.125 61.7188 38.1094 61.6406 37.8437C61.5938 37.7031 61.4688 37.0781 61.375 36.4844C61.25 35.6719 61.25 35.1094 61.3906 34.2969C61.5 33.6875 61.8125 32.7031 62.0938 32.1094C62.4375 31.4062 62.9531 30.6875 63.5469 30.0781C64.1406 29.4844 64.8594 28.9531 65.5625 28.6094C66.1562 28.3125 67.0469 28 67.5312 27.9062C68.375 27.75 68.4375 27.7031 68.6562 27.1094C68.7812 26.7656 69.2344 25.9531 69.6562 25.3125C70.0781 24.6719 70.8438 23.75 71.3438 23.2656C71.8438 22.7812 72.6562 22.1406 73.125 21.8437C73.5938 21.5312 74.375 21.125 74.8438 20.9375C75.3125 20.75 76.125 20.4687 76.6406 20.3125C77.2656 20.125 78.151 20.026 79.2969 20.0156ZM74.3125 24.1406C73.7969 24.4844 73.0625 25.125 72.6719 25.5625C72.2812 26.0156 71.75 26.75 71.4844 27.2031C71.2344 27.6718 70.8906 28.5625 70.7031 29.1875L70.3906 30.3125C68.0156 30.3906 67.5469 30.4843 66.875 30.8125C66.3594 31.0625 65.7188 31.5468 65.2656 32.0625C64.8438 32.5156 64.375 33.25 64.2031 33.7031C64.0312 34.1875 63.9062 34.9219 63.9062 35.4687C63.9062 36.0156 64.0312 36.7656 64.2188 37.2656L64.5312 38.125H66.4062V40.625L93.6719 40.5469C95.3594 39.625 95.9062 39.1719 96.2812 38.6562C96.6094 38.2344 96.9844 37.5312 97.125 37.1094C97.2969 36.5781 97.3594 35.9687 97.3281 35.1562C97.2812 34.375 97.1406 33.75 96.9219 33.2812C96.7344 32.8906 96.2656 32.2656 95.9062 31.8906C95.5312 31.5156 94.8438 31.0156 94.375 30.7969C93.6719 30.4687 93.2969 30.3906 92.2656 30.3906C91.1406 30.3906 90.8906 30.4531 89.7969 30.9844C88.9531 31.3906 88.5781 31.5 88.5312 31.3593C88.4844 31.2656 88.375 30.75 88.2656 30.2344C88.1719 29.7187 87.9531 28.9062 87.7812 28.4375C87.5938 27.9687 87.1406 27.0937 86.7344 26.5C86.3438 25.8906 85.625 25.0937 85.1562 24.7187C84.6875 24.3437 83.8906 23.8281 83.3906 23.5781C82.9063 23.3281 82.0938 23.0156 81.5938 22.8906C81.0938 22.75 80.0469 22.6562 79.2188 22.6562C78.0156 22.6562 77.5 22.75 76.4844 23.0937C75.7969 23.3281 74.8125 23.7968 74.3125 24.1406ZM40.4688 35.4687C45.3438 35.4687 45.9219 35.4219 45.8281 35.2812C45.7656 35.1719 45.1719 34.25 44.5 33.2343C43.8281 32.2343 43.25 31.4062 43.2188 31.4062C43.1875 31.4062 42.5625 32.3125 41.8125 33.4375L40.4688 35.4687ZM43.2031 41.4062C43.2031 41.4062 45.5781 39.0312 46.4688 38.125H39.9219C40.8281 39.0312 43.2031 41.4062 43.2031 41.4062ZM29.6094 43.4687C33.4375 44.8281 36.6094 45.9375 36.6406 45.9375C36.6875 45.9375 36.7188 44.7344 36.7188 43.2812V40.625C24.1719 40.625 22.6562 40.6719 22.6562 40.8125C22.6562 40.9375 25.4062 41.9844 29.6094 43.4844V43.4687ZM49.6875 43.2656C49.6875 44.7187 49.75 45.9219 49.8125 45.9219C49.875 45.9219 53.0781 44.8125 56.9219 43.4687C61.0938 42 63.9062 40.9219 63.9062 40.7969C63.9062 40.6562 62.3906 40.6094 56.7969 40.6094H49.6875V43.2656ZM39.375 45.2187L41.4062 43.1875C39.9688 41.6719 39.5156 41.2344 39.4688 41.2344C39.4219 41.2344 39.375 42.125 39.375 43.2187V45.2187ZM46.0156 42.125C45.5 42.6406 45.1094 43.1094 45.125 43.2031C45.1406 43.2812 45.5781 43.7656 46.0938 44.2812C46.9219 45.125 47.0469 45.1875 47.1406 44.9062C47.1875 44.75 47.1719 43.8437 47.0781 42.9062L46.9219 41.2187L46.0156 42.125ZM40.125 48.3125C40.2031 48.375 41.5938 48.4219 43.2344 48.4219C44.875 48.4219 46.2656 48.3594 46.3281 48.2969C46.3906 48.2344 45.75 47.5 44.9062 46.6562C44.0625 45.8281 43.3125 45.1406 43.2188 45.1406C43.125 45.1406 42.375 45.8281 41.5312 46.6562C40.6875 47.5 40.0625 48.2344 40.125 48.3125ZM29.3906 53.6875C33.0781 55 36.1562 56.0781 36.2344 56.0781C36.2969 56.0781 36.3906 55.2812 36.4688 54.3125C36.5312 53.3437 36.5781 52.1875 36.5781 51.7344V50.9219C24.1719 50.9219 22.6719 50.9531 22.6719 51.1094C22.6719 51.2344 25.3438 52.25 29.3906 53.6875ZM40.75 52.7969C41.5781 53.5312 42.4844 54.3125 42.7656 54.5469L43.2969 54.9844C46.3906 52.1875 47.2812 51.2969 47.2812 51.1875C47.2812 51.0469 46.3281 50.9844 43.2656 50.9531C39.5 50.9219 39.25 50.9375 39.25 51.1875C39.25 51.3437 39.9375 52.0625 40.75 52.7969ZM49.9531 53.375C50.0156 54.7344 50.1094 55.9062 50.1875 56C50.2812 56.0937 52.7656 55.2812 57.125 53.7344C61.1719 52.2812 63.9219 51.2344 63.9219 51.1094C63.9219 50.9531 62.4062 50.9219 56.8906 50.9219H49.8438L49.9531 53.375ZM79.2344 56.0625H84.7031C82.7344 53.0937 82.125 52.1875 82.0625 52.1094C82.0156 52.0469 81.3438 52.9062 80.6094 54.0312L79.2344 56.0625ZM39.0312 55.3125C38.9688 55.5937 38.8906 56.4531 38.8438 57.2344C38.7969 58 38.8125 58.6875 38.875 58.75C38.9375 58.8125 39.5 58.3906 40.125 57.8125L41.2656 56.7656C40.7188 56.2031 40.2344 55.75 39.8438 55.4219L39.125 54.7969L39.0312 55.3125ZM45.1719 56.7656C46.7813 58.2187 47.3438 58.6875 47.4531 58.7656C47.625 58.8594 47.6562 58.5469 47.5625 56.9687C47.5156 55.9062 47.4219 55 47.3594 54.9375C47.3125 54.8906 46.7969 55.2656 46.2188 55.7969L45.1719 56.7656ZM38.9531 62.4687C38.9219 62.5781 40.4219 62.625 43.2031 62.625C45.9688 62.625 47.5 62.5781 47.5 62.4687C47.5 62.3906 46.5781 61.4844 45.4531 60.4844C44.3281 59.4687 43.3281 58.625 43.2344 58.6094C43.1406 58.5937 42.1406 59.4219 41.0156 60.4531C39.9062 61.4843 38.9688 62.3906 38.9531 62.4687ZM81.9531 62C81.9531 62 84.3281 59.625 85.2188 58.7187H78.6719C79.5781 59.625 81.9531 62 81.9531 62ZM70.8594 63.75C73.2656 64.8594 75.2969 65.7656 75.3594 65.7656C75.4219 65.75 75.4688 64.7343 75.4688 63.4843V61.2187C66.8125 61.2187 66.3906 61.25 66.4375 61.4844C66.4688 61.6406 68.0781 62.4687 70.8594 63.75ZM88.4375 65.9062C96.2344 62.2812 97.3438 61.7031 97.3438 61.5C97.3438 61.25 97.0312 61.2187 92.8906 61.2187H88.4375V65.9062ZM83.75 63.7968L85.7969 65.8281C85.7812 62.75 85.7656 61.8437 85.75 61.8437C85.7188 61.8437 85.2656 62.2812 84.7344 62.8281L83.75 63.7968ZM78.0781 63.75C78.0156 64.7187 78.0156 65.5625 78.0781 65.625C78.1406 65.6875 78.625 65.3281 79.1406 64.8125L80.0781 63.875L78.2031 62L78.0781 63.75ZM38.1719 65.9687C38.0938 66.2344 38.4531 66.5469 40.25 67.8437C41.4375 68.6875 42.5781 69.5312 42.7969 69.6875L43.1875 69.9844C47.2031 67.125 48.2031 66.3125 48.2344 66.125C48.2656 65.9531 48.25 65.6562 48.2031 65.4687L48.1094 65.1094C38.6094 65.1094 38.2656 65.1406 38.2656 65.3906C38.2656 65.5312 38.2188 65.7969 38.1719 65.9687ZM78.8438 68.9062C78.9219 68.9687 80.3281 69.0312 81.9844 69.0312C83.6406 69.0156 84.9844 68.9687 84.9844 68.9062C84.9844 68.8437 84.2969 68.0937 83.4688 67.2656C82.625 66.4219 81.9062 65.7344 81.8594 65.7344C81.8125 65.7344 81.0938 66.4219 80.25 67.2656C79.4062 68.0937 78.7812 68.8437 78.8438 68.9062ZM45.6094 71.5625C45.6094 71.625 46.3437 72.2031 47.25 72.8437C48.1562 73.5 48.9531 73.9844 49.0156 73.9375C49.0781 73.8906 49 72.8437 48.8438 71.625C48.6875 70.4062 48.5469 69.4062 48.5156 69.3906C48.5 69.375 47.8281 69.8281 47.0469 70.4062C46.25 70.9687 45.6094 71.5 45.6094 71.5625ZM37.3594 74.125C37.3906 74.1406 38.1719 73.5937 39.0938 72.9062C40.0156 72.2344 40.7812 71.625 40.7969 71.5625C40.7969 71.5 40.2188 71.0156 39.5 70.4844C38.7812 69.9531 38.1094 69.5 38.0156 69.5C37.9062 69.5 37.75 70.3281 37.5781 71.7969C37.4375 73.0625 37.3438 74.1093 37.3594 74.125ZM66.5 72.0156C66.5625 72.0781 68.4688 72.9687 70.7344 74.0156C72.9844 75.0469 74.9062 75.8906 74.9844 75.8906C75.0781 75.8906 75.1406 75.4844 75.1406 75C75.1406 74.5 75.2031 73.5156 75.2656 72.8125L75.375 71.5156C67.6094 71.5156 66.5469 71.5625 66.4688 71.7187C66.4062 71.8281 66.4219 71.9531 66.5 72.0156ZM77.7656 71.8125C77.7813 71.875 78.7031 72.7344 79.8281 73.75C81.125 74.9219 81.9375 75.5469 82.0625 75.4687C82.1719 75.4062 83.0625 74.625 84.0469 73.7344C85.0312 72.8437 85.8594 71.9687 85.8906 71.8125C85.9219 71.5312 85.75 71.5156 81.9688 71.5156C79.7812 71.5156 77.9531 71.5625 77.875 71.625C77.8125 71.6875 77.75 71.7656 77.7656 71.8125ZM88.5938 72.6562C88.6094 73.2812 88.6719 74.2812 88.7188 74.8906L88.8125 76C96.2812 72.5468 97.3281 72 97.3281 71.7969C97.3281 71.5469 97.0156 71.5156 92.9531 71.5156H88.5781L88.5938 72.6562ZM38.3906 76.6093C42.2188 76.6718 44.3906 76.6719 45.6875 76.6562L48.0312 76.6093C44.5156 74.0937 43.3906 73.3281 43.2656 73.3125C43.1406 73.2812 41.9844 74.0156 40.7031 74.9375L38.3906 76.6093ZM77.5781 77.7031L77.4531 79.7343C79 78.2968 79.5625 77.7656 79.7188 77.625C79.9844 77.3906 79.9375 77.3281 78.9219 76.4062C78.3125 75.8594 77.7969 75.4844 77.75 75.5469C77.7188 75.6094 77.6406 76.5781 77.5781 77.7031ZM83.8594 77.3906C85.6406 79.0156 86.2031 79.4375 86.2656 79.375C86.3281 79.3125 86.3438 78.4843 86.2812 77.5468C86.2344 76.5937 86.1562 75.7344 86.0938 75.6406C86.0156 75.5156 85.625 75.7812 84.9219 76.4219L83.8594 77.3906ZM78.9688 81.8281C83.5156 81.8437 84.8281 81.8281 84.8438 81.7969C84.8438 81.7812 84.2031 81.1875 83.4375 80.4687C82.6562 79.7656 81.9688 79.1875 81.9062 79.1875C81.8438 79.1875 81.1562 79.7812 80.375 80.5156L78.9688 81.8281ZM39.9844 82.2969C41.75 83.7656 43.2344 84.9531 43.2969 84.9375C43.3438 84.9062 44.8438 83.6719 46.6094 82.1875C48.375 80.7031 49.8281 79.4531 49.8281 79.4062C49.8281 79.375 46.8281 79.3281 43.1562 79.3281C39.0938 79.3281 36.5312 79.3906 36.625 79.4687C36.7188 79.5469 38.2188 80.8281 39.9844 82.2969ZM32.3125 88.0469C31.5938 91.8437 31.0625 94.9844 31.125 95.0312C31.1875 95.0781 33.4531 93.25 36.1562 90.9687C38.8594 88.7031 41.0625 86.7812 41.0469 86.7187C41.0312 86.6562 40.5156 86.1719 39.9062 85.6406C39.3125 85.125 37.6719 83.75 36.2969 82.5781C34.0312 80.6719 33.7656 80.4844 33.6875 80.7812C33.6406 80.9844 33.0156 84.2344 32.3125 88.0469ZM45.3438 86.7187C45.3594 86.7969 47.5938 88.7031 50.2969 90.9844C53 93.2656 55.2812 95.125 55.3438 95.125C55.4062 95.125 55.4219 95 55.3906 94.8437C55.3438 94.6875 54.7344 91.4687 54.0312 87.6875C53.3281 83.9062 52.7188 80.7656 52.6562 80.6875C52.5938 80.625 50.9219 81.9218 48.9375 83.5781C46.9375 85.25 45.3281 86.6562 45.3438 86.7187ZM80.0312 86.5C81.625 87.875 81.8906 88.0625 82.1406 87.8906C82.2812 87.7812 83.1406 87.0781 84.0469 86.2969C84.9531 85.5312 85.7969 84.8125 85.9219 84.7031C86.1094 84.5312 85.4531 84.4844 81.9375 84.4844C78.2969 84.4844 77.75 84.5156 77.9531 84.7031C78.0781 84.8281 79.0156 85.6406 80.0312 86.5ZM73.5781 95C73.5781 95.1875 74.6406 94.3594 76.7188 92.5781C78.4375 91.0937 79.8438 89.8437 79.8281 89.7969C79.8281 89.7656 78.7812 88.8281 77.4844 87.7344C76.2031 86.6406 75.125 85.7344 75.0938 85.7344C75.0625 85.7344 74.7188 87.7656 74.3125 90.2344C73.9062 92.7031 73.5781 94.8437 73.5781 95ZM84.125 89.8125C84.125 89.9219 85.5 91.1875 87.1719 92.625C88.8438 94.0625 90.25 95.1875 90.2656 95.1406C90.2969 95.0781 89.9844 93 89.5781 90.5C89.1719 88.0156 88.7969 85.9219 88.75 85.875C88.6875 85.8125 87.625 86.6406 86.3906 87.7031C85.1406 88.7656 84.125 89.7187 84.125 89.8125ZM32.75 97.2187C40.8438 97.2969 45.5469 97.2969 48.4375 97.2656L53.7031 97.2187C46.0781 90.8125 43.7188 88.8281 43.5156 88.6875C43.1562 88.4375 43.0938 88.4844 37.9531 92.8281L32.75 97.2187ZM75.2812 97.2187C80.5625 97.2812 83.5625 97.2812 85.3438 97.2656L88.5781 97.2187C84.2031 93.4687 82.6875 92.1875 82.4062 91.9531L81.8906 91.5469L75.2812 97.2187ZM79.7188 25.1094C79.9219 25.1094 80.375 25.1719 80.7344 25.2656C81.1094 25.3437 81.7344 25.5781 82.1406 25.7656C82.5469 25.9531 83.2344 26.4375 83.6719 26.8281C84.0938 27.2187 84.6406 27.8594 84.8594 28.2344C85.0938 28.625 85.3906 29.3125 85.5312 29.7969C85.6719 30.2656 85.7812 30.8437 85.7812 31.5156H84.5312C83.2969 31.5156 83.2812 31.5 83.1875 31.0781C83.1406 30.8437 83.0312 30.4375 82.9531 30.1875C82.875 29.9218 82.5781 29.4375 82.2969 29.0937C82 28.75 81.4375 28.2969 81.0469 28.1094C80.6406 27.9219 80.0938 27.7656 79.375 27.7656V26.4375C79.375 25.1562 79.3906 25.1094 79.7188 25.1094Z" fill="#16191C"/>
</g>
<defs>
<clipPath id="clip0_181_1502">
<rect width="80" height="80" fill="white" transform="translate(20 20)"/>
</clipPath>
</defs>
</svg>
