<svg width="120" height="120" viewBox="0 0 120 120" fill="none" xmlns="http://www.w3.org/2000/svg">
<path opacity="0.3" fill-rule="evenodd" clip-rule="evenodd" d="M44.0857 67L29.0007 67L66.7131 29.2876L74.2556 36.8301L74.2538 36.8319L67.0399 74.2131L104.424 66.9985L104.424 67.0005L111.967 74.5425L74.2541 112.255L74.2541 97.1699L90.9806 80.4435L62.9409 85.8547L62.9411 85.8562L55.3987 78.3138L55.3979 78.3137L60.8085 50.2772L44.0857 67Z" fill="#36AF42"/>
<g clip-path="url(#clip0_174_1690)">
<path fill-rule="evenodd" clip-rule="evenodd" d="M45.7812 20.0156C47.2344 20.0156 47.5938 20.0781 48.9062 20.5156C49.8281 20.8281 50.8281 21.3125 51.5469 21.7969C52.1875 22.2344 53.0312 22.9375 53.4219 23.3906C53.8125 23.8281 54.375 24.5625 54.6406 25.0313C54.9219 25.4844 55.2969 26.2813 55.4844 26.7969C55.6562 27.3125 55.8594 28.0156 56.0312 28.9844L63.9062 29.0625C70.9688 29.1406 71.875 29.1719 72.5 29.4219C72.8906 29.5781 73.5625 29.9375 73.9844 30.2344C74.4219 30.5156 74.9844 31.0312 75.25 31.3594C75.5156 31.6875 75.8594 32.2031 76.0156 32.5C76.1719 32.7969 76.375 33.25 76.4688 33.5156C76.5781 33.8438 76.6562 39.0469 76.7188 50C76.7969 65.8281 76.7969 66.0312 77.125 66.7188C77.2969 67.1094 77.75 67.6875 78.0938 68.0156C78.5 68.3594 79.0781 68.6875 79.5781 68.8281C80.25 69.0312 81.6094 69.0625 87.3438 69.0625C92.8281 69.0625 94.4844 69.1094 95.1562 69.2812C95.625 69.4062 96.2969 69.6562 96.6406 69.8594C96.9844 70.0469 97.625 70.5469 98.0469 70.9531C98.5312 71.4219 99 72.0781 99.2812 72.6875C99.5312 73.2344 99.7812 73.7969 99.8594 73.9531C99.9375 74.0937 100 74.6875 100 75.2812C100 75.8594 99.9062 76.6875 99.7812 77.1094C99.6562 77.5469 99.375 78.2031 99.1562 78.5938C98.9531 78.9844 98.4688 79.6094 98.0938 79.9844C97.7344 80.3594 97.1406 80.8281 96.7969 81.0312C96.4531 81.2344 95.9219 81.4844 95.625 81.5938C95.2031 81.75 92.125 81.8125 70.4375 81.9531L69.8594 83.4375C69.5312 84.25 69.0469 85.375 68.75 85.9375C68.4688 86.5 67.8906 87.4844 67.4688 88.125C67.0312 88.7656 66.4531 89.5781 66.1875 89.9219C65.9062 90.2656 65.6406 90.6406 65.5781 90.75C65.4844 90.8906 67.0469 90.9375 80.7812 90.9375L80.9531 90.2812C81.0469 89.9062 81.3125 89.2188 81.5469 88.75C81.7656 88.2812 82.3125 87.5156 82.75 87.0312C83.2031 86.5625 83.9688 85.9219 84.4688 85.625C84.9688 85.3281 85.8438 84.9531 86.4062 84.8125C86.9688 84.6719 87.8438 84.5469 88.3594 84.5469C88.875 84.5312 89.7031 84.6406 90.1875 84.7656C90.6875 84.8906 91.5 85.2031 91.9844 85.4531C92.4844 85.7031 93.2969 86.3125 93.8125 86.8125C94.3125 87.3281 94.9219 88.125 95.1562 88.5938C95.3906 89.0625 95.7031 89.8438 95.8438 90.3125C95.9844 90.7812 96.0938 91.6562 96.0938 92.2656C96.0938 92.875 95.9844 93.75 95.8438 94.2188C95.7031 94.6875 95.3906 95.4688 95.1406 95.9375C94.8906 96.4062 94.3281 97.1719 93.875 97.625C93.4219 98.0938 92.7344 98.6562 92.3438 98.875C91.9531 99.0938 91.1875 99.4375 90.625 99.6406C89.9062 99.8906 89.25 100 88.3594 100C87.375 100 86.8594 99.9062 85.9375 99.5625C85.2969 99.3281 84.4531 98.9062 84.0625 98.6562C83.6719 98.3906 83.0313 97.7969 82.6094 97.3281C82.2031 96.8594 81.7031 96.1406 81.5 95.7031C81.2969 95.2812 81.0469 94.625 80.7812 93.5938H62.8125L61.8281 94.3438C61.2969 94.7656 60.4062 95.4062 59.8438 95.7812C59.2812 96.1562 58.0938 96.8281 57.1875 97.2812C56.2812 97.7344 54.9531 98.3125 54.2188 98.5625C53.4844 98.8125 52.1562 99.1719 51.25 99.3594C50.3438 99.5469 49.2812 99.7656 48.8594 99.8438C48.4531 99.9375 47.1094 100 45.8594 100C44.4688 100 43.0625 99.9062 42.2188 99.75C41.4688 99.6094 40.1875 99.3281 39.375 99.125C38.5625 98.9219 37.4219 98.5781 36.8281 98.3594C36.25 98.1406 35.1719 97.6719 34.4062 97.2969C33.6562 96.9219 32.6562 96.375 32.1875 96.0781C31.7188 95.7656 30.7969 95.1406 30.1562 94.6562C29.5156 94.1719 28.3594 93.1719 27.5938 92.4062C26.8281 91.6406 25.8281 90.4844 25.3438 89.8438C24.8594 89.2031 24.2344 88.2812 23.9219 87.8125C23.625 87.3438 23.0781 86.3438 22.7031 85.5938C22.3281 84.8281 21.8594 83.75 21.6406 83.1719C21.4219 82.5781 21.0938 81.5469 20.9062 80.8594C20.7344 80.1719 20.4531 78.875 20.2969 77.9688C20.1406 77.0625 20 75.5625 20 74.6094C20 73.6562 20.0937 72.0781 20.2188 71.0938C20.3438 70.1094 20.625 68.625 20.8281 67.8125C21.0469 67 21.5 65.5938 21.8594 64.6875C22.2031 63.7812 22.8594 62.4062 23.2969 61.6406C23.7344 60.875 24.4844 59.7031 24.9688 59.0625C25.4531 58.4219 26.2656 57.4062 26.7812 56.8125C27.3125 56.2344 28.2969 55.2656 28.9844 54.6875C29.6719 54.1094 30.8281 53.2344 31.5625 52.7344C32.2969 52.25 33.5938 51.5 34.4531 51.0781C35.3125 50.6562 36.8281 50.0469 37.8281 49.7344C38.8281 49.4062 39.7031 49.1094 39.75 49.0625C39.7969 49.0156 39.7344 48.7188 39.6094 48.4062C39.4219 47.9375 39.375 47.0938 39.375 44.5C39.375 41.4844 39.4062 41.1094 39.7031 40.4688C39.875 40.0781 40.1406 39.6406 40.2812 39.4688C40.5312 39.2031 40.5312 39.1719 40.1562 38.9375C39.9375 38.7969 39.2656 38.2031 38.6719 37.6406C38.0625 37.0625 37.3125 36.1406 36.9844 35.5938C36.6562 35.0625 36.2188 34.0625 36.0156 33.4063C35.7969 32.7344 35.5781 31.6406 35.5312 30.9844C35.4531 30.125 35.5 29.375 35.6875 28.4375C35.8438 27.6719 36.2188 26.5781 36.5625 25.8594C36.8906 25.1719 37.4531 24.2656 37.8125 23.8281C38.1719 23.4062 38.8281 22.75 39.2656 22.3906C39.7188 22.0156 40.5 21.5 41.0156 21.2188C41.5312 20.9531 42.4375 20.5625 43.0469 20.375C43.875 20.1094 44.5312 20.0312 45.7812 20.0156ZM42.0312 23.5938C41.6406 23.7969 40.9062 24.375 40.375 24.9062C39.8437 25.4375 39.25 26.2188 39.0312 26.6406C38.8125 27.0781 38.5156 27.8125 38.375 28.2812C38.2344 28.75 38.125 29.6719 38.125 30.3125C38.125 31.0469 38.2344 31.875 38.4219 32.5C38.5938 33.0625 38.9531 33.875 39.2344 34.2969C39.5 34.7344 39.9062 35.2813 40.1406 35.5156C40.3594 35.7656 40.8125 36.1875 41.1406 36.4531C41.6562 36.875 41.7656 36.9219 41.8906 36.7188C41.9688 36.5938 42.0312 36.3281 42.0312 36.1406C42.0312 35.9375 42.1719 35.5 42.3438 35.1562L42.6562 34.5312C41.7656 33.5 41.3281 32.8125 41.1094 32.3438C40.8125 31.6719 40.7188 31.2188 40.7188 30.3125C40.7188 29.3906 40.7969 28.9688 41.1094 28.2812C41.3281 27.8125 41.7969 27.125 42.1562 26.7656C42.5156 26.3906 43.1875 25.9219 43.625 25.7031C44.0781 25.5 44.7969 25.2813 45.2344 25.2188C45.6875 25.1563 46.375 25.2031 46.875 25.3125C47.3438 25.4219 48.0469 25.6875 48.4219 25.9219C48.8125 26.1406 49.3906 26.6406 49.7188 27.0312C50.0625 27.4219 50.4688 28.125 50.6406 28.5938C50.8906 29.25 50.9531 29.7188 50.9062 30.5469C50.8594 31.3125 50.7188 31.9062 50.4375 32.5C50.2031 32.9688 49.7656 33.6094 49.4688 33.9062L48.9219 34.4531C49.3906 35.3594 49.5781 35.9062 49.6406 36.25C49.7188 36.5938 49.8125 36.8594 49.875 36.8438C49.9531 36.8125 50.3125 36.5469 50.6875 36.25C51.0625 35.9531 51.6562 35.3125 52.0156 34.8438C52.3594 34.375 52.7969 33.6094 52.9688 33.1719C53.1406 32.7188 53.3594 31.875 53.4375 31.2969C53.5312 30.7031 53.5625 29.9219 53.5156 29.5312C53.4531 29.1406 53.2969 28.4844 53.1719 28.0469C53.0312 27.625 52.7188 26.9219 52.4844 26.4844C52.25 26.0625 51.7188 25.3594 51.2969 24.9375C50.8906 24.5312 50.1562 23.9531 49.6875 23.6719C49.2188 23.4062 48.4219 23.0625 47.9219 22.9219C47.375 22.75 46.5 22.6562 45.6562 22.6719C44.7812 22.6719 44.0156 22.7812 43.5156 22.9531C43.0781 23.1094 42.4219 23.3906 42.0312 23.5938ZM43.5938 29.0625C43.4375 29.3594 43.2969 29.9063 43.2812 30.2813C43.2812 30.6406 43.4062 31.2031 43.5469 31.5156C43.7031 31.8281 44.0781 32.25 44.375 32.4531C44.7656 32.7188 45.1562 32.8281 45.7031 32.8438C46.1406 32.8438 46.7031 32.7344 46.9844 32.5938C47.2656 32.4531 47.6406 32.1563 47.8281 31.9219C48 31.6719 48.2031 31.2188 48.2969 30.9063C48.375 30.5313 48.375 30.0938 48.2969 29.7344C48.2031 29.4062 47.9844 28.9375 47.7812 28.6875C47.5781 28.4375 47.1875 28.1406 46.9062 28.0156C46.6406 27.9062 46.1094 27.8125 45.7344 27.8125C45.3438 27.8125 44.8438 27.9531 44.5 28.1719C44.1719 28.3594 43.7656 28.7656 43.5938 29.0625ZM55.7188 32.9375C55.5781 33.4688 55.25 34.3438 54.9844 34.8906C54.7031 35.4219 54.1719 36.2656 53.7656 36.7656C53.375 37.2812 52.6094 38.0312 52.0625 38.4531L51.0938 39.2188C51.5625 39.7656 51.7969 40.1875 51.9375 40.5156C52.1406 40.9844 52.1875 41.75 52.1875 44.4844C52.1875 47.1875 52.1406 48.0156 51.9531 48.4844C51.7656 48.9375 51.7656 49.0781 51.9062 49.125C52.0156 49.1562 52.8125 49.4062 53.6719 49.6875C54.5312 49.9531 55.9688 50.5312 56.875 50.9531C57.7812 51.3906 59.1875 52.1875 60 52.7188C60.8125 53.2656 62.0469 54.1875 62.7188 54.7812C63.4062 55.375 64.5156 56.5 65.2031 57.2656C65.8906 58.0312 66.8125 59.2344 67.2656 59.9219C67.7188 60.6094 68.4375 61.875 68.875 62.7344C69.2969 63.5938 69.875 64.9375 70.1562 65.7031C70.4219 66.4688 70.8281 67.9219 71.0469 68.9062C71.3281 70.2188 71.4531 71.3906 71.5156 73.2812C71.5781 74.9062 71.5312 76.3594 71.4219 77.1875C71.3281 77.9219 71.2031 78.7031 71.1719 78.9531L71.0938 79.375C92.1406 79.375 93.9531 79.3438 94.6562 79.1406C95.1562 79 95.7188 78.6875 96.1094 78.3125C96.4531 78 96.8906 77.4219 97.0625 77.0312C97.3281 76.4531 97.375 76.125 97.3125 75.2344C97.2656 74.4062 97.1406 73.9844 96.8281 73.4688C96.5938 73.1094 96.1094 72.5938 95.7344 72.3438C95.375 72.0781 94.75 71.7969 94.3281 71.7188C93.9062 71.625 90.6094 71.5625 86.6406 71.5625C81.0156 71.5625 79.5313 71.5156 78.8594 71.3281C78.4219 71.2031 77.625 70.8281 77.1094 70.4844C76.5938 70.1406 75.9062 69.5312 75.5938 69.1094C75.2656 68.7031 74.8438 67.9688 74.6562 67.5L74.2969 66.6406L74.1406 34.4531C73.6094 33.4844 73.2344 32.9844 72.9375 32.7031C72.6562 32.4219 72.1406 32.0781 71.7969 31.9219C71.2344 31.6719 70.5 31.6406 63.6406 31.5938C57.5781 31.5625 56.0938 31.5938 56.0312 31.75C56 31.8594 55.8594 32.3906 55.7188 32.9375ZM44.7344 36.0781C44.625 36.2188 44.5312 36.7344 44.5312 37.2188V38.125H47.0312C47.0312 36.7969 46.9844 36.2969 46.9062 36.1562C46.8438 36.0156 46.6094 35.7969 46.3594 35.6875C46.125 35.5625 45.8438 35.4688 45.7344 35.4688C45.6406 35.4688 45.4062 35.5625 45.2344 35.6562C45.0625 35.75 44.8438 35.9531 44.7344 36.0781ZM42.1562 41.1719C42.0156 41.375 41.9375 42.2187 41.9062 44.2031C41.8594 46.4531 41.8906 47.0625 42.0938 47.5469C42.2969 48 42.4688 48.1562 42.9219 48.2969C43.2812 48.3906 44.5938 48.4375 46.2188 48.4062L48.9375 48.3594C49.6875 47.5156 49.6875 47.4531 49.6875 44.5312V41.5625L48.75 40.625C44.3281 40.6406 42.8906 40.7031 42.7031 40.7812C42.5156 40.8438 42.2812 41.0312 42.1562 41.1719ZM41.0156 51.4844C40.3281 51.625 39.125 51.9531 38.3594 52.2188C37.5781 52.4844 36.4531 52.9375 35.8594 53.25C35.25 53.5469 34.3438 54.0312 33.8281 54.3438C33.3125 54.6562 32.3594 55.2969 31.7188 55.7969C31.0781 56.2812 29.9688 57.2656 29.2656 57.9844C28.5625 58.7031 27.6406 59.75 27.2188 60.3125C26.8125 60.875 26.2188 61.75 25.9062 62.2656C25.5938 62.7812 25.1562 63.5938 24.9219 64.0625C24.6875 64.5312 24.2969 65.4531 24.0625 66.0938C23.8281 66.7344 23.5 67.7188 23.3594 68.2812C23.2188 68.8438 23 69.8906 22.875 70.625C22.7656 71.3594 22.6562 72.9219 22.6562 74.1094C22.6562 75.2812 22.7344 76.7656 22.8125 77.375C22.9062 78 23.125 79.0781 23.2969 79.7656C23.4688 80.4531 23.7812 81.4688 23.9844 82.0312C24.1875 82.5938 24.5625 83.5156 24.8281 84.1094C25.0938 84.6875 25.6094 85.625 25.9531 86.2031C26.3125 86.7969 26.9219 87.6875 27.3125 88.2031C27.7031 88.7188 28.5312 89.6562 29.1406 90.2969C29.7344 90.9219 30.7969 91.875 31.4844 92.4219C32.1719 92.9531 33.2031 93.6875 33.7812 94.0469C34.375 94.3906 35.3125 94.9062 35.8906 95.1719C36.4844 95.4375 37.4062 95.8125 37.9688 96.0156C38.5312 96.2188 39.5469 96.5312 40.2344 96.7031C40.9219 96.875 42 97.0938 42.6094 97.1875C43.2344 97.2656 44.7188 97.3438 45.8906 97.3438C47.0781 97.3438 48.6406 97.2344 49.375 97.125C50.1094 97 51.1562 96.7812 51.7188 96.6406C52.2812 96.5 53.2656 96.1719 53.9062 95.9375C54.5469 95.7031 55.4688 95.3125 55.9375 95.0781C56.4062 94.8438 57.2188 94.4062 57.7344 94.0938C58.25 93.7812 59.125 93.1875 59.6875 92.7812C60.25 92.3594 61.2969 91.4375 62.0156 90.7344C62.7344 90.0312 63.7188 88.9219 64.2031 88.2812C64.7031 87.6406 65.3438 86.6875 65.6562 86.1719C65.9688 85.6562 66.4531 84.75 66.75 84.1406C67.0625 83.5312 67.5156 82.4062 67.7812 81.6406C68.0469 80.875 68.3594 79.7031 68.5 79.0625C68.625 78.4219 68.8125 77.0781 68.9062 76.0938C69.0312 74.8594 69.0312 73.7344 68.9219 72.5C68.8438 71.5156 68.6562 70.1406 68.5156 69.4531C68.375 68.7656 68.0781 67.6719 67.875 67.0312C67.6562 66.3906 67.1875 65.2188 66.8438 64.4531C66.5 63.6875 65.7656 62.375 65.2344 61.5625C64.6875 60.75 63.7969 59.5625 63.25 58.9219C62.7187 58.2812 61.7344 57.3125 61.0938 56.7656C60.4531 56.2031 59.25 55.3125 58.4375 54.7656C57.625 54.2344 56.3125 53.5 55.5469 53.1562C54.7656 52.8125 53.6094 52.3438 52.9688 52.125C52.3281 51.9219 51.2344 51.625 50.5469 51.4844C49.8594 51.3438 48.5938 51.1719 47.7344 51.0938C46.875 51.0156 45.8906 50.9531 45.5469 50.9687C45.2031 50.9687 44.3281 51.0312 43.5938 51.1094C42.8594 51.1719 41.7031 51.3438 41.0156 51.4844ZM86.1719 87.6406C85.7031 87.8438 85.0781 88.3125 84.6406 88.7969C84.1875 89.2812 83.7656 89.9531 83.5781 90.4688C83.3281 91.125 83.2656 91.6094 83.3125 92.5C83.3438 93.3438 83.4688 93.8906 83.75 94.4531C83.9531 94.875 84.4531 95.5469 84.8438 95.9375C85.2969 96.3906 85.8906 96.7812 86.4844 97.0156C87.2656 97.3125 87.6406 97.3594 88.6719 97.3125C89.5625 97.2656 90.125 97.1406 90.625 96.8906C91.0156 96.6875 91.5938 96.2656 91.9219 95.9531C92.25 95.6406 92.7031 95.0625 92.9062 94.6406C93.1094 94.2344 93.3594 93.5312 93.4375 93.0781C93.5469 92.5312 93.5469 91.9844 93.4375 91.4062C93.3438 90.9375 93.125 90.2656 92.9531 89.9219C92.7812 89.5781 92.3438 89 91.9844 88.625C91.625 88.2656 90.9375 87.7969 90.4688 87.5938C90 87.3906 89.3281 87.1875 88.9844 87.1562C88.6406 87.125 88.0469 87.1406 87.6562 87.1875C87.2656 87.25 86.5938 87.4531 86.1719 87.6406ZM46.25 54.9062C47.4062 54.9375 48.9219 55.0781 49.6094 55.2344C50.2969 55.375 51.3906 55.6719 52.0312 55.8906C52.6719 56.1094 53.6875 56.5312 54.2969 56.8281C54.8906 57.1406 55.9844 57.7812 56.7188 58.2656C57.4531 58.75 58.6875 59.7656 59.4531 60.5469C60.2344 61.3125 61.25 62.5469 61.7344 63.2812C62.2188 64.0156 62.8594 65.0938 63.1719 65.7031C63.4687 66.3125 63.8906 67.3281 64.1094 67.9688C64.3281 68.6094 64.6406 69.7344 64.7969 70.4688C65 71.4219 65.0781 72.4688 65.0781 74.2188C65.0781 75.9844 64.9844 77 64.7812 77.9688C64.625 78.7031 64.2812 79.8906 64.0312 80.625C63.7656 81.3594 63.3438 82.375 63.0938 82.8906C62.8281 83.4062 62.2031 84.4219 61.7188 85.1562C61.2188 85.8906 60.7188 86.5625 60.5938 86.6719C60.4375 86.8281 60.2031 86.7031 58.5156 85.1875L59.0156 84.4688C59.2969 84.0781 59.5312 83.7188 59.5312 83.6719C59.5312 83.625 59.0938 83.3438 58.5469 83.0312C58.0156 82.7188 57.5625 82.4375 57.5312 82.4062C57.5156 82.375 57.7812 81.8594 58.75 80.1562L59.7969 80.7656C60.3906 81.1094 60.9062 81.3594 60.9688 81.3125C61.0469 81.2812 61.3125 80.6562 61.5625 79.9219C61.8125 79.1875 62.1406 77.9844 62.2656 77.2188C62.3906 76.4688 62.5 75.7656 62.5 75.6562C62.5 75.5312 62.1406 75.4688 60 75.4688V72.9688H62.5L62.4062 72.1406C62.3594 71.7031 62.2031 70.875 62.0781 70.3125C61.9531 69.75 61.6719 68.8438 61.4688 68.2812C61.25 67.7188 61.0156 67.2031 60.9375 67.1094C60.8594 67.0156 60.4844 67.1562 59.8906 67.5312C59.3906 67.8594 58.9219 68.125 58.8281 68.125C58.7344 68.125 58.4219 67.6875 58.125 67.1562C57.8281 66.6094 57.5625 66.125 57.5312 66.0625C57.5156 65.9844 57.875 65.7344 58.3125 65.4688C58.7656 65.2188 59.25 64.9375 59.375 64.8594C59.5781 64.7344 59.5781 64.6562 59.3125 64.2656C59.1406 64.0312 58.5469 63.3438 57.9844 62.75C57.4219 62.1562 56.625 61.4062 56.2031 61.0781C55.7969 60.7344 55.4219 60.4688 55.3438 60.4688C55.2812 60.4688 54.9688 60.9219 54.6406 61.4844C54.3281 62.0469 54.0156 62.4844 53.9375 62.4531C53.875 62.4375 53.3906 62.1719 52.8438 61.875C52.3125 61.5781 51.875 61.2812 51.875 61.2031C51.875 61.1406 52.125 60.6562 52.4219 60.1094C52.7344 59.5781 52.9219 59.0938 52.8594 59.0312C52.7969 58.9688 52.2812 58.75 51.7188 58.5312C51.1562 58.3281 50.25 58.0469 49.6875 57.9219C49.125 57.7969 48.2969 57.6406 47.0312 57.5V60H44.5312V57.5L43.7031 57.5938C43.2656 57.6406 42.25 57.8438 41.4844 58.0469C40.7188 58.25 39.75 58.5625 38.5938 59.0625L39.0938 59.9531C39.3594 60.4531 39.6406 60.9531 39.7188 61.0469C39.8125 61.1875 39.5156 61.4375 38.75 61.875C38.1406 62.2188 37.625 62.4844 37.5938 62.4531C37.5625 62.4375 37.2812 61.9844 36.9688 61.4375C36.6562 60.9062 36.3594 60.4688 36.2812 60.4688C36.2188 60.4844 35.8594 60.7188 35.4688 61C35.0781 61.2969 34.3438 61.9844 33.8281 62.5312C33.2969 63.0625 32.6719 63.7812 32.4219 64.1094C32.1562 64.4375 31.9844 64.7187 32.0312 64.75C32.0781 64.7812 32.5312 65.0469 33.0312 65.3281C33.5312 65.625 33.9688 65.9062 34 65.9688C34.0312 66.0469 33.8125 66.5469 33.5156 67.1094C33.2188 67.6719 32.8906 68.125 32.8125 68.125C32.7188 68.125 32.2344 67.8594 31.7031 67.5312C30.9062 67.0469 30.7344 66.9844 30.6094 67.1875C30.5312 67.3125 30.3281 67.8125 30.1406 68.2812C29.9688 68.75 29.6875 69.6719 29.5312 70.3125C29.375 70.9531 29.2188 71.7969 29.1406 72.8906L31.5625 72.9688V75.4688H29.0625L29.1562 76.0469C29.2031 76.375 29.3438 77.1719 29.4844 77.8125C29.6094 78.4531 29.9219 79.5312 30.1719 80.1875C30.4219 80.8594 30.6406 81.4062 30.6562 81.4062C30.6875 81.4219 31.1875 81.1406 32.8906 80.1719L33.4844 81.2187C33.8125 81.7969 34.0781 82.3125 34.0625 82.375C34.0625 82.4531 33.6094 82.75 33.0469 83.0469C32.4844 83.3438 32.0312 83.6406 32.0312 83.7031C32.0312 83.7812 32.4531 84.3125 32.9688 84.9219C33.4688 85.5312 34.4062 86.4531 35.0312 86.9844C35.6562 87.5312 36.2188 87.9688 36.2812 87.9688C36.3594 87.9688 36.6562 87.5156 36.9531 86.9531C37.25 86.3906 37.5469 85.9375 37.6094 85.9375C37.6875 85.9219 38.2031 86.1875 39.8281 87.1094L39.2031 88.2031C38.8594 88.8125 38.5781 89.3125 38.5938 89.3281C38.5938 89.3594 39.1406 89.5781 39.7969 89.8281C40.4688 90.0781 41.5469 90.3906 42.1875 90.5156C42.8281 90.6562 43.625 90.7969 44.5312 90.9375V88.4375H47.0312L47.1094 90.8594L47.8125 90.8125C48.2031 90.7812 48.9688 90.6406 49.5312 90.5156C50.0938 90.3906 51.0312 90.1094 51.6406 89.8906C52.2344 89.6719 52.7969 89.4531 52.8594 89.3906C52.9375 89.3438 52.75 88.8438 52.4375 88.2812C52.1406 87.7188 51.875 87.2188 51.875 87.1406C51.875 87.0781 52.3281 86.7812 52.8906 86.4844C53.4531 86.1875 53.9531 85.9688 54.0156 86C54.0938 86.0312 54.375 86.4688 54.6719 86.9688C54.9531 87.4688 55.2188 87.9062 55.25 87.9219C55.2812 87.9531 55.6406 87.7344 56.7344 86.9531L57.5 87.8125C57.9219 88.2812 58.2656 88.7344 58.2812 88.8281C58.2812 88.9219 57.9531 89.2344 57.5469 89.5625C57.125 89.875 56.2969 90.4219 55.7031 90.7969C55.0938 91.1562 54.25 91.6094 53.8281 91.8125C53.3906 92 52.4844 92.3438 51.7969 92.5625C51.1094 92.7812 49.9531 93.0938 49.2188 93.2188C48.4062 93.375 47.0938 93.4844 45.8594 93.4844C44.7344 93.4688 43.375 93.3906 42.8125 93.2969C42.25 93.2031 41.1562 92.9531 40.3906 92.7344C39.6094 92.5156 38.2812 92 37.4219 91.5781C36.5625 91.1562 35.2656 90.3906 34.5312 89.875C33.7969 89.3438 32.7031 88.4062 32.0781 87.7812C31.4688 87.1562 30.5625 86.0781 30.0781 85.3906C29.5781 84.7031 28.8438 83.4375 28.4219 82.5781C28 81.7188 27.4844 80.375 27.2656 79.6094C27.0469 78.8438 26.7969 77.75 26.7031 77.1875C26.6094 76.625 26.5312 75.2969 26.5312 74.2188C26.5312 73.0938 26.625 71.6562 26.7812 70.8125C26.9219 70.0312 27.1719 68.9375 27.3594 68.3906C27.5312 67.8594 27.9375 66.8594 28.2344 66.1719C28.5312 65.4844 29.1562 64.3594 29.6094 63.6719C30.0625 62.9844 30.8438 61.9688 31.3438 61.4062C31.8438 60.8438 32.6719 60.0156 33.2031 59.5625C33.7188 59.0938 34.4844 58.4844 34.9219 58.2031C35.3438 57.9219 36.2344 57.4062 36.875 57.0625C37.5156 56.7031 38.7812 56.1719 39.6875 55.875C40.5938 55.5625 41.9531 55.2188 42.7344 55.0938C43.6562 54.9375 44.875 54.875 46.25 54.9062ZM44.5312 62.6562H47.0312V70.4688L47.7656 70.9219C48.1875 71.1719 48.7031 71.6406 48.9219 71.9844C49.1562 72.3125 49.4219 72.8594 49.5312 73.2031C49.6406 73.5469 49.6875 74.1406 49.6406 74.5312C49.6094 74.9219 49.4219 75.5156 49.25 75.8594C49.0781 76.2031 48.7031 76.7031 48.4062 76.9844C48.125 77.2656 47.6094 77.5938 47.2656 77.75C46.9219 77.8906 46.25 78 45.7812 78C45.3125 78 44.6719 77.9062 44.375 77.7812C44.0781 77.6562 43.5781 77.3437 43.2812 77.0781C42.9844 76.8281 42.6094 76.3594 42.1875 75.4688H38.125V72.9688H40.1562C42.125 72.9688 42.1875 72.9531 42.2969 72.6094C42.3438 72.4219 42.6562 71.9844 42.9688 71.6406C43.2812 71.2969 43.7656 70.9062 44.5469 70.5469L44.5312 62.6562ZM44.5312 74.1719C44.5156 74.4531 44.6719 74.7656 44.9531 75.0469C45.2188 75.3125 45.5469 75.4844 45.8281 75.4688C46.0781 75.4688 46.4219 75.3125 46.6406 75.0781C46.8906 74.8281 47.0312 74.5 47.0312 74.1719C47.0312 73.8594 46.9062 73.5469 46.6875 73.3281C46.4531 73.1094 46.125 72.9688 45.8125 72.9688C45.4688 72.9688 45.1719 73.099 44.9219 73.3594C44.7188 73.5625 44.5312 73.9375 44.5312 74.1719Z" fill="#16191C"/>
</g>
<defs>
<clipPath id="clip0_174_1690">
<rect width="80" height="80" fill="white" transform="translate(20 20)"/>
</clipPath>
</defs>
</svg>
