<svg width="120" height="120" viewBox="0 0 120 120" fill="none" xmlns="http://www.w3.org/2000/svg">
<path opacity="0.3" fill-rule="evenodd" clip-rule="evenodd" d="M44.0857 67L29.0007 67L66.7131 29.2876L74.2556 36.8301L74.2538 36.8319L67.0399 74.2131L104.424 66.9985L104.424 67.0005L111.967 74.5425L74.2541 112.255L74.2541 97.1699L90.9806 80.4435L62.9409 85.8547L62.9411 85.8562L55.3987 78.3138L55.3979 78.3137L60.8085 50.2772L44.0857 67Z" fill="#36AF42"/>
<g clip-path="url(#clip0_181_1579)">
<path fill-rule="evenodd" clip-rule="evenodd" d="M84.25 20H85.2812C85.9688 20 86.6562 20.125 87.2656 20.3594C87.9531 20.6094 88.5 20.9688 89.2812 21.7188C89.875 22.2812 90.7812 23.2656 91.2969 23.9062C91.8125 24.5469 92.6406 25.6719 93.1094 26.4062C93.5938 27.1406 94.3906 28.5156 94.875 29.4531C95.3594 30.3906 96 31.8438 96.2969 32.6562C96.6094 33.4688 97.0625 34.9844 97.3125 36.0156C97.5781 37.0469 97.875 38.3125 97.9688 38.8281C98.0625 39.3438 98.25 40.5312 98.375 41.4844C98.5469 42.6875 98.6406 45.3438 98.8281 57.3281L97.4219 57.4219L97.3438 62.5L97.9688 63.0781C98.2969 63.4062 98.8281 64.0938 99.125 64.6094C99.5 65.2344 99.75 65.9219 99.875 66.6406C100.016 67.4844 100.016 67.9688 99.875 68.75C99.7812 69.3125 99.5 70.1562 99.2656 70.625C99.0312 71.0938 98.5 71.8281 97.3438 73.0469V100H89.6875L89.6719 72.8906L88.9062 72.0625C88.4688 71.625 87.9375 70.8438 87.7031 70.3438C87.4844 69.8594 87.25 69.0625 87.1875 68.5938C87.125 68.125 87.125 67.3438 87.1875 66.875C87.25 66.4062 87.4844 65.6094 87.7188 65.1094C87.9375 64.625 88.4688 63.8438 89.6719 62.5781L89.6875 59.9531C89.6875 57.3438 89.6875 57.3438 89.3438 57.3438C89.0469 57.3594 88.3281 56.4219 85.4375 52.2656C83.4687 49.4688 81.8281 47.1875 81.7656 47.1875C81.6875 47.2031 78.0156 48.1719 73.5938 49.3594C69.1719 50.5469 65.5625 51.5781 65.5781 51.6562C65.5938 51.7344 69.3281 62.4531 73.875 75.4688C78.4375 88.4844 82.2344 99.3281 82.5 100L73.2344 99.9219L71.9531 96.1719L48.4375 96.0938V100H20V79.375H30.3125V62.1875L29.9219 62.3438C29.7031 62.4219 29.125 62.5 28.625 62.5C27.9531 62.4844 27.5469 62.3906 26.9844 62.0625C26.5156 61.7969 26.0469 61.375 25.7656 60.9375C25.5156 60.5469 25.2656 59.9531 25.2188 59.6094C25.1719 59.2656 25.1562 56.2344 25.2344 46.7969L25.7344 45.7812C26.0312 45.1719 26.5156 44.5 26.9844 44.0625C27.3906 43.6875 28.0781 43.2188 28.5156 43.0312C28.9375 42.8437 38.5781 40.0312 49.9219 36.7969C61.2656 33.5625 70.5625 30.9062 70.5781 30.8906C70.6094 30.875 70.5469 30.6094 70.4375 30.3125C70.3437 30.0156 70.2969 29.4531 70.3438 29.0625C70.3906 28.6719 70.5625 28.1094 70.7031 27.8125C70.8594 27.5156 71.1719 27.0312 71.3906 26.7344C71.7188 26.3125 73 25.6094 78.0156 23.1094L84.25 20ZM73.2344 28.625C73.0938 28.8125 72.9688 29.1875 72.9688 29.4531C72.9688 29.7031 73.1562 30.2031 73.3906 30.5469C73.6094 30.8906 77.5312 36.5 82.0938 43L90.4062 54.8438H96.1094C96.1094 45.6875 96.0312 43.5938 95.875 42.2656C95.7344 41.2344 95.5312 39.8281 95.3906 39.1406C95.2656 38.4531 95.0156 37.3594 94.8594 36.7188C94.6875 36.0625 94.2969 34.7969 93.9844 33.9062C93.6719 33 93.0938 31.625 92.7031 30.8594C92.3125 30.0781 91.7188 28.9844 91.3594 28.4375C91.0156 27.875 90.3281 26.8906 89.8438 26.25C89.3594 25.5938 88.5781 24.6562 88.1094 24.1406C87.6406 23.625 86.9844 23.0781 86.6719 22.9219C86.3594 22.7813 85.7969 22.6562 85.4062 22.6562C84.8281 22.6562 83.8437 23.0938 79.1094 25.4531C75.6719 27.1719 73.3906 28.3906 73.2344 28.625ZM28.9375 45.75C28.6406 45.9688 28.2812 46.4062 28.1094 46.7188C27.8438 47.2188 27.8125 47.6875 27.8281 53.3906V59.5312C28.6406 60.0156 28.75 60.0156 29.4688 59.8125L30.25 59.5781C30.3906 51.4844 30.4219 51.125 30.7344 50.5469C30.9062 50.2031 31.375 49.6562 31.75 49.3281C32.125 49 32.7188 48.6562 33.0625 48.5625C33.4062 48.4688 34.0781 48.4219 34.5469 48.4531C35.1875 48.5 35.625 48.6406 36.1875 48.9844C36.6094 49.25 37.1562 49.7344 37.3906 50.0781C37.6094 50.4219 37.875 51.0781 37.9688 51.5625C38.0625 52.0312 38.1406 53.4688 38.1406 54.7656V57.1094L48.5312 53.9219C50.0156 49.6563 50.0312 49.5781 49.875 48.6719C49.7812 48.1562 49.7031 47.375 49.7031 46.9531C49.7031 46.5156 49.8125 45.75 49.9531 45.2344C50.0781 44.7188 50.3906 43.9062 50.6406 43.4375C50.8906 42.9531 51.4688 42.1875 51.9375 41.7188C52.3906 41.2344 53.1875 40.625 53.7031 40.3594C54.2031 40.0781 55.0469 39.75 55.5625 39.6094C56.0781 39.4844 56.9219 39.375 57.4375 39.375C57.9531 39.375 58.7969 39.4844 59.3125 39.6094C59.8281 39.75 60.625 40.0625 61.1094 40.3125C61.5781 40.5625 62.375 41.1719 62.8594 41.6719C63.3594 42.1719 63.9688 42.9531 64.2188 43.4375C64.4688 43.9062 64.7969 44.75 64.9375 45.3125C65.125 46.0625 65.1719 46.6562 65.1094 47.6094C65.0469 48.3281 65.0625 48.9062 65.125 48.9062C65.1875 48.9062 68.6094 48 72.7031 46.9062C76.9062 45.7812 80.1406 44.8438 80.1094 44.7656C80.0781 44.6719 78.2812 42.0781 76.1094 38.9844C73.0938 34.6719 72.0938 33.3438 71.8281 33.3281C71.6406 33.3125 62.0312 36 50.4844 39.3125C33.1563 44.2656 29.375 45.3906 28.9375 45.75ZM55.1719 42.4844C54.7812 42.6875 54.1875 43.0938 53.8594 43.4062C53.5312 43.7188 53.1094 44.2969 52.9062 44.6875C52.7031 45.0625 52.5 45.625 52.4375 45.9375C52.375 46.2344 52.3125 46.8281 52.3281 47.2656C52.3281 47.6875 52.4844 48.4688 52.6875 48.9844C52.9219 49.6406 53.2656 50.1562 53.8281 50.7031C54.3438 51.2188 54.9219 51.6094 55.5156 51.8438C56.1094 52.0625 56.7656 52.1875 57.4375 52.1875C58.1094 52.1875 58.75 52.0625 59.3438 51.8438C59.9375 51.6094 60.5156 51.2188 61.0312 50.7031C61.5781 50.1719 61.9375 49.625 62.1719 48.9844C62.375 48.4688 62.5312 47.6875 62.5312 47.2656C62.5469 46.8281 62.5 46.2344 62.4219 45.9375C62.3594 45.625 62.1562 45.0625 61.9531 44.6875C61.7656 44.2969 61.3281 43.7188 61 43.4062C60.6719 43.0781 60.0156 42.6562 59.5469 42.4375C59.0625 42.2344 58.3594 42.0312 57.9844 41.9844C57.5938 41.9531 56.9531 41.9688 56.5781 42.0312C56.1875 42.0938 55.5469 42.2969 55.1719 42.4844ZM33.1719 51.5312C33.0156 51.7344 32.9688 54.6875 32.9688 65.5781L32.9844 79.375H35.4844C35.4844 56.875 35.4219 51.9062 35.3281 51.6719C35.2344 51.4844 34.9844 51.2344 34.7812 51.125C34.5625 51.0156 34.2969 50.9375 34.1875 50.9375C34.0781 50.9375 33.8594 51.0156 33.6875 51.1094C33.5156 51.2031 33.2812 51.3906 33.1719 51.5312ZM47.0312 65.9375C44.5312 73.1094 42.4375 79.0625 42.4062 79.1719C42.3594 79.3281 42.7812 79.375 44.1094 79.375H45.875C47.5 74.7031 49.4531 69.0625 51.2344 63.8281L54.5 54.2969C53.1719 53.4688 52.5938 53.0781 52.375 52.875C52.1406 52.6719 51.9219 52.5 51.8594 52.5C51.7969 52.5 51.7188 52.5781 51.6875 52.6875C51.6406 52.7969 49.5469 58.75 47.0312 65.9375ZM61.2812 53.75C60.75 54.0469 60.3437 54.3281 60.3594 54.3906C60.3906 54.4375 63.7031 64.125 67.75 75.9062L75.0938 97.3281C77.9375 97.3438 78.7656 97.2969 78.7656 97.2656C78.7656 97.2188 75.3125 87.3281 71.0781 75.2656C66.8594 63.2188 63.3438 53.1562 63.2656 52.9219C63.2031 52.6875 63.0781 52.5 63 52.5C62.9375 52.5 62.7344 52.6562 62.5469 52.8438C62.375 53.0469 61.7969 53.4375 61.2812 53.75ZM54.7812 61.4844C53.7188 64.5781 52.8125 67.2344 52.75 67.375C52.6719 67.6406 52.9531 67.6562 57.4375 67.6562H62.2031C59.2656 59.1094 58.2812 56.2344 58.125 55.7344C57.8594 54.9688 57.7656 54.8438 57.4375 54.8438C57.1562 54.8438 57.0156 54.9688 56.8906 55.3438C56.7812 55.625 55.8438 58.3906 54.7812 61.4844ZM38.2188 59.7969L38.1406 79.375C39.2188 79.375 39.5625 79.3125 39.6094 79.25C39.6406 79.1875 41.375 74.2812 43.4531 68.3594C45.5313 62.4219 47.2656 57.4531 47.2812 57.2969C47.3125 57.1562 47.2812 57.0312 47.2188 57.0312C47.1719 57.0312 45.1094 57.6562 42.6719 58.4219L38.2188 59.7969ZM92.1719 59.4375L92.2031 61.3125H94.8594V57.3281C92.9531 57.3281 92.3438 57.375 92.2812 57.4375C92.2031 57.5 92.1562 58.3906 92.1719 59.4375ZM90.7656 65.0938C90.5312 65.3281 90.2031 65.8594 90.0156 66.2344C89.8438 66.6406 89.7031 67.2812 89.7031 67.7188C89.7031 68.2188 89.8281 68.7969 90.0625 69.2812C90.2656 69.7188 90.6719 70.2812 90.9531 70.5469C91.25 70.8125 91.8438 71.1562 92.2812 71.3125C92.8438 71.5312 93.2969 71.5781 93.9219 71.5156C94.3906 71.4688 94.9844 71.3281 95.25 71.2031C95.5 71.0781 95.9531 70.7344 96.25 70.4375C96.5312 70.1562 96.9062 69.625 97.0625 69.2812C97.2344 68.9062 97.3438 68.2969 97.3438 67.7188C97.3438 67.1562 97.2344 66.5469 97.0625 66.1562C96.9062 65.8125 96.5312 65.2969 96.25 65C95.9531 64.7031 95.4375 64.3438 95.0938 64.1875C94.7344 64.0312 94.0938 63.9062 93.6094 63.9062C93.0156 63.9062 92.4844 64.0156 91.9688 64.2656C91.5312 64.4687 90.9844 64.8438 90.7656 65.0938ZM51.3438 71.5156C51.125 72.1719 50.9531 72.7812 50.9531 72.8438C50.9531 72.9063 53.8594 72.9531 57.4375 72.9531C61 72.9531 63.9219 72.9063 63.9219 72.8438C63.9219 72.7812 63.7344 72.1719 63.5312 71.5156L63.1406 70.2969H51.75L51.3438 71.5156ZM92.1875 97.3438H94.8438L94.7969 74.1094H92.1406L92.1875 97.3438ZM54.8906 77.3906L57.3438 79.0625C61.4688 76.3281 62.6719 75.5313 62.6719 75.5C62.6562 75.4844 60.2812 75.4688 57.3906 75.4688C54.375 75.4688 52.1875 75.5156 52.2656 75.5938C52.3594 75.6719 53.5312 76.4844 54.8906 77.3906ZM48.4844 82.4531L48.5156 85C53.5312 81.6719 55 80.6719 55 80.625C55 80.5781 53.8281 79.7656 52.4062 78.8281C50.9688 77.875 49.7344 77.0938 49.625 77.0625C49.5312 77.0469 49.2188 77.6719 48.9531 78.4688C48.4375 79.9062 48.4375 79.9375 48.4844 82.4531ZM59.8594 80.625C59.8594 80.6719 61.7812 81.9844 64.1406 83.5469C66.5156 85.125 68.4688 86.3906 68.5156 86.3594C68.5469 86.3438 67.875 84.2344 66.9844 81.6719C66.1094 79.125 65.3281 77.0312 65.2344 77.0312C65.1562 77.0469 63.9062 77.8438 62.4688 78.7969C61.0312 79.7656 59.8594 80.5781 59.8594 80.625ZM22.6562 85.7812H40.625V88.4375H22.6562V90.9375H45.7812V88.4375H43.2812V85.7812H45.7812V81.875H22.6562V85.7812ZM48.5156 88.3125C48.5625 88.375 52.5625 88.4375 57.4219 88.4375C62.2812 88.4375 66.2812 88.375 66.3281 88.3125C66.375 88.25 64.5625 86.9688 62.2969 85.4531C60.0469 83.9375 58.0312 82.5938 57.8125 82.4531C57.4062 82.1875 57.3906 82.2031 52.9219 85.2031C50.4688 86.8438 48.4844 88.25 48.5156 88.3125ZM48.4375 93.5938C68.5781 93.5938 70.9375 93.5469 70.9375 93.3906C70.9375 93.2812 70.7812 92.7031 70.5781 92.1094L70.2031 91.0156L48.4375 90.9375V93.5938ZM22.6562 97.3438H45.7812V93.5938H22.6562V97.3438ZM80.6406 31.5469L83.2031 31.6406L83.2812 34.2188H80.625L80.6406 31.5469ZM84.5469 40.625H87.0469V43.2812H84.5469V40.625ZM57.4375 43.2812C58 43.2812 58.6094 43.3906 59 43.5625C59.3438 43.7188 59.8594 44.0938 60.1406 44.375C60.4375 44.6719 60.7812 45.125 60.9062 45.3906C61.0312 45.6406 61.1875 46.2344 61.2344 46.7188C61.2812 47.3281 61.2344 47.7812 61.0156 48.3594C60.8594 48.7812 60.5156 49.375 60.25 49.6719C59.9844 49.9531 59.4219 50.3594 59 50.5625C58.5 50.7969 57.9219 50.9219 57.4375 50.9219C56.9375 50.9219 56.3594 50.7969 55.875 50.5625C55.4375 50.3594 54.8438 49.9219 54.5469 49.5781C54.2344 49.2344 53.9062 48.6719 53.7969 48.3281C53.6875 48 53.6094 47.375 53.6094 46.9531C53.6094 46.5156 53.7344 45.8906 53.8906 45.5469C54.0469 45.2031 54.4219 44.6719 54.7031 44.375C55 44.0938 55.5312 43.7188 55.875 43.5625C56.25 43.3906 56.8594 43.2812 57.4375 43.2812ZM56.2188 46.7656C56.1406 47.0312 56.1875 47.3438 56.3438 47.6562C56.4688 47.9062 56.7656 48.1875 57 48.25C57.2812 48.3438 57.5938 48.3281 57.9062 48.2031C58.1562 48.0938 58.4531 47.8125 58.5625 47.5625C58.7031 47.25 58.7188 46.9688 58.625 46.7188C58.5469 46.5 58.3906 46.2344 58.2656 46.1406C58.1562 46.0312 57.8438 45.9062 57.5781 45.8438C57.25 45.7812 57 45.8281 56.7188 46.0469C56.5156 46.2188 56.2812 46.5312 56.2188 46.7656ZM94.8594 66.4062V69.0625L92.2812 68.9844L92.2188 67.9062C92.1875 67.3125 92.2031 66.7187 92.25 66.6094C92.3125 66.4531 92.6875 66.4062 94.8594 66.4062Z" fill="#16191C"/>
</g>
<defs>
<clipPath id="clip0_181_1579">
<rect width="80" height="80" fill="white" transform="translate(20 20)"/>
</clipPath>
</defs>
</svg>
