<svg width="120" height="120" viewBox="0 0 120 120" fill="none" xmlns="http://www.w3.org/2000/svg">
<path opacity="0.3" fill-rule="evenodd" clip-rule="evenodd" d="M44.0857 67L29.0007 67L66.7131 29.2876L74.2556 36.8301L74.2538 36.8319L67.0399 74.2131L104.424 66.9985L104.424 67.0005L111.967 74.5425L74.2541 112.255L74.2541 97.1699L90.9806 80.4435L62.9409 85.8547L62.9411 85.8562L55.3987 78.3138L55.3979 78.3137L60.8085 50.2772L44.0857 67Z" fill="#36AF42"/>
<g clip-path="url(#clip0_181_1566)">
<path fill-rule="evenodd" clip-rule="evenodd" d="M59.9219 20.0156C60.7344 19.9999 61.2656 20.0937 61.9531 20.3593C62.4688 20.5624 68.9062 24.4531 76.25 28.9843C83.5938 33.5156 91.5625 38.4374 93.9688 39.9062C96.3594 41.3749 98.5625 42.8124 98.8438 43.0781C99.1406 43.3593 99.5156 43.9218 99.7031 44.3281C99.9531 44.9062 100.016 45.2968 99.9688 46.0156C99.9219 46.6562 99.7656 47.1874 99.4844 47.6874C99.25 48.1093 98.7656 48.6562 98.3906 48.9062C98.0312 49.1718 97.375 49.4531 96.9531 49.5468C96.5156 49.6406 95.875 49.6874 94.8438 49.5312V70.8593C94.8438 91.0468 94.8594 92.1874 95.1094 92.2499C95.2656 92.2812 95.6719 92.3593 96.0156 92.4218C96.3594 92.4843 96.9062 92.6718 97.2188 92.8281C97.5469 92.9843 98.1094 93.4218 98.4688 93.7812C98.8281 94.1562 99.2969 94.8437 99.5156 95.3124C99.7344 95.7812 99.9375 96.5156 99.9688 96.9531C100.016 97.5312 99.9531 97.9374 99.7031 98.4687C99.4844 98.9843 99.1719 99.3437 98.125 99.9999H21.875L21.25 99.6093C20.8906 99.3906 20.5 98.9531 20.3125 98.5937C20.1406 98.2499 20 97.7031 20 97.3749C20 97.0624 20.0937 96.4374 20.2188 96.0156C20.3594 95.5781 20.6875 94.8906 20.9688 94.4687C21.25 94.0468 21.7656 93.4999 22.1094 93.2499C22.4531 92.9999 23.0781 92.7031 23.5156 92.5781C23.9375 92.4531 24.4844 92.3124 25.1562 92.1874V49.5312L24.4062 49.6249C23.9375 49.6874 23.375 49.6406 22.8125 49.4843C22.3438 49.3437 21.7031 49.0312 21.4062 48.7812C21.1094 48.5312 20.6719 47.9531 20.4219 47.4843C20.1406 46.9374 20 46.3906 20 45.9374C20 45.5468 20.0937 44.9218 20.2188 44.5312C20.3594 44.1406 20.7344 43.5468 21.0625 43.2031C21.4531 42.8124 28.125 38.5937 39.2812 31.7187C48.9688 25.7499 57.3281 20.6718 57.8594 20.4374C58.5781 20.1249 59.1094 20.0156 59.9219 20.0156ZM54.8438 25.1874C52.8281 26.4374 46.1875 30.5312 40.0781 34.2968C33.9688 38.0624 27.7188 41.9062 26.1719 42.8593C24.625 43.8124 23.2031 44.7343 23 44.9062C22.7656 45.1249 22.6406 45.4062 22.6406 45.7812C22.651 46.1458 22.7708 46.4426 23 46.6718C23.2031 46.8749 23.5469 47.0312 23.7812 47.0312C24.0312 47.0312 24.375 46.9531 24.5625 46.8437C24.7656 46.7499 32.4531 41.9218 41.6406 36.1249C50.8281 30.3124 58.6094 25.4843 58.9062 25.3749C59.2031 25.2656 59.7031 25.1718 60 25.1718C60.2969 25.1718 60.7969 25.2656 61.0938 25.3749C61.3906 25.4843 64.9062 27.6249 68.9062 30.1562C72.9062 32.6718 80.5625 37.5156 85.9375 40.8906C93.1719 45.4374 95.8281 47.0312 96.1719 47.0312C96.4531 47.0468 96.7812 46.8906 96.9844 46.6874C97.2031 46.4531 97.3438 46.1249 97.3438 45.7812C97.3438 45.4062 97.2344 45.1249 97 44.9062C96.7969 44.7343 88.75 39.7187 79.1094 33.7812C69.4531 27.8281 61.3906 22.8906 61.1719 22.8124C60.9531 22.7187 60.4062 22.6562 59.9531 22.6718C59.5156 22.6718 59 22.7343 58.8281 22.7968C58.6562 22.8749 56.8594 23.9531 54.8438 25.1874ZM33.625 44.3593C33.6094 44.4843 35.8438 44.5312 41.0156 44.5312H48.4375C48.7812 42.8906 49.0312 42.0312 49.2031 41.5624C49.375 41.0937 49.8594 40.1718 50.2812 39.5312C50.7031 38.8906 51.5312 37.9062 52.1406 37.3437C52.7344 36.7812 53.6094 36.0937 54.0781 35.8124C54.5469 35.5468 55.5625 35.0781 56.3281 34.8124C57.6719 34.3281 57.8281 34.2968 60 34.3124C62.0312 34.3124 62.3906 34.3593 63.5156 34.7343C64.2031 34.9531 65.2188 35.4062 65.7656 35.7343C66.3281 36.0624 67.2656 36.7812 67.875 37.3437C68.4688 37.9062 69.2969 38.8906 69.7188 39.5312C70.1406 40.1718 70.625 41.0937 70.7969 41.5624C70.9688 42.0312 71.2188 42.8906 71.3438 43.4687L71.5625 44.5312C83.8281 44.5312 86.4062 44.4843 86.4062 44.3749C86.4062 44.2812 80.5312 40.5312 73.3594 36.0156C65.7344 31.2187 60.1719 27.8124 59.9531 27.8281C59.7656 27.8281 53.7812 31.5156 46.6406 36.0156C39.5156 40.5156 33.6562 44.2656 33.625 44.3593ZM57.2656 37.1874C56.9219 37.2968 56.3281 37.5468 55.9375 37.7343C55.5469 37.9374 54.8594 38.3749 54.4062 38.7343C53.9688 39.0781 53.2812 39.7812 52.8906 40.2656C52.5 40.7656 51.9844 41.6562 51.7344 42.2656C51.4844 42.8593 51.2344 43.6249 51.1875 43.9374L51.0938 44.5312H53.6719C53.9531 43.4999 54.3281 42.7656 54.6719 42.2187C55.0312 41.6874 55.6094 41.0312 55.9688 40.7656C56.3438 40.4999 57.0312 40.0937 57.5 39.8593C58.2656 39.4999 58.5469 39.4531 60 39.4531C61.375 39.4531 61.7656 39.5156 62.4219 39.8124C62.8438 40.0156 63.5469 40.4374 63.9688 40.7499C64.4062 41.0624 65.0156 41.7499 65.3594 42.2656C65.6875 42.7812 66.0469 43.4999 66.1406 43.8749L66.3281 44.5312H68.9062C68.75 43.6249 68.5625 42.9687 68.375 42.4999C68.1875 42.0312 67.75 41.2187 67.4062 40.7187C67.0781 40.2031 66.4375 39.4843 66.0156 39.0937C65.5781 38.7187 64.9219 38.2187 64.5312 37.9999C64.1406 37.7656 63.375 37.4374 62.8125 37.2499C62.25 37.0624 61.2656 36.8593 60.625 36.8281C59.9844 36.7812 59.0938 36.7968 58.6719 36.8593C58.2344 36.9374 57.6094 37.0781 57.2656 37.1874ZM57.5156 42.9218C57.1406 43.2499 56.7344 43.7031 56.625 43.9374C56.5 44.1874 56.4062 44.4062 56.4062 44.4531C56.4062 44.4999 58.0156 44.5312 60 44.5312C61.9688 44.5312 63.5938 44.4999 63.5938 44.4531C63.5938 44.4062 63.5 44.1874 63.375 43.9374C63.2656 43.7031 62.875 43.2499 62.5156 42.9218C62.125 42.5781 61.5469 42.2499 61.0469 42.1093C60.6094 41.9843 60.0938 41.8749 59.9219 41.8906C59.75 41.8906 59.2969 41.9999 58.9062 42.1093C58.5156 42.2343 57.8906 42.5937 57.5156 42.9218ZM27.8125 47.8906V59.9999H41.875V47.0312H29.1406L27.8125 47.8906ZM44.5312 59.9999H58.75L58.6719 47.1093L44.5312 47.0312V59.9999ZM61.2188 53.6249L61.25 59.9999H75.4688V47.0312C64.6094 47.0312 61.4062 47.0781 61.3281 47.1406C61.25 47.1874 61.2031 50.1093 61.2188 53.6249ZM78.125 59.9999H92.1875V47.8906L90.8594 47.0468L78.125 47.0312V59.9999ZM27.8125 92.1874H38.125V89.6093C36.7344 89.2656 35.8438 88.9218 35.2344 88.6249C34.5156 88.2656 33.7656 87.7031 33.0312 86.9687C32.25 86.1874 31.75 85.5156 31.3281 84.6874C31.0156 84.0468 30.6562 83.0624 30.5312 82.4999C30.4219 81.9374 30.3125 81.0156 30.3125 80.4374V79.3749C33.1875 79.3749 34.3281 79.4687 34.7656 79.5937C35.2031 79.7031 35.8594 79.9531 36.25 80.1562C36.6406 80.3437 37.1719 80.6718 37.4219 80.8749C37.6875 81.0781 37.9531 81.1874 38.0156 81.1249C38.0781 81.0624 38.1406 80.8124 38.1406 80.5468C38.1406 80.1718 38 79.9843 37.4844 79.6093C37.125 79.3593 36.5156 78.7499 36.1406 78.2812C35.75 77.8124 35.2812 77.0781 35.0625 76.6406C34.8594 76.2187 34.5781 75.4062 34.4375 74.8437C34.25 74.1093 34.2031 73.4531 34.2656 72.4218C34.3125 71.5468 34.4844 70.6406 34.7031 69.9999C34.9062 69.4374 35.4219 68.4999 35.8594 67.8906C36.4062 67.1406 37.0312 66.5312 37.8906 65.9062C38.5781 65.4062 39.2344 64.9999 39.3438 64.9999C39.4375 64.9999 39.9375 65.2656 40.4375 65.6093C40.9219 65.9374 41.75 66.6562 42.25 67.2031C42.75 67.7499 43.3281 68.5156 43.5156 68.9062C43.7031 69.2968 44 69.9999 44.1562 70.4687C44.3594 71.0781 44.4531 71.7812 44.4531 72.8906C44.4531 74.1093 44.375 74.6874 44.0938 75.4687C43.9062 76.0312 43.5625 76.8124 43.3125 77.2343C43.0781 77.6406 42.5 78.3593 42.0312 78.8437C41.5625 79.3281 41.0469 79.7812 40.9062 79.8593C40.7188 79.9531 40.625 80.1822 40.625 80.5468C40.625 80.8437 40.7031 81.0937 40.7812 81.0937C40.875 81.0937 41.2656 80.8749 41.6875 80.5937C42.0938 80.3281 42.8125 79.9531 43.2812 79.7812C43.9375 79.5468 44.6562 79.4531 46.3281 79.4062L48.5156 79.3437C48.3438 81.6093 48.1719 82.6562 48.0312 83.1249C47.8906 83.5937 47.5625 84.4062 47.2969 84.9218C47.0156 85.4374 46.3125 86.3593 45.7031 86.9687C44.9688 87.7187 44.2656 88.2499 43.5156 88.6249C42.9219 88.9218 42.0156 89.2656 41.5156 89.3906L40.625 89.6093V92.1874H58.75V89.6093C57.3594 89.2656 56.4688 88.9218 55.8594 88.6249C55.125 88.2499 54.3906 87.7031 53.6562 86.9687C52.875 86.1874 52.3906 85.5156 51.9844 84.6874C51.6562 84.0468 51.2969 83.0312 51.1719 82.4218C51.0469 81.8281 50.9375 80.8906 50.9375 80.3593V79.3749C54.75 79.4687 55.4219 79.5468 56.0938 79.7812C56.5625 79.9531 57.2812 80.3281 57.7031 80.5937C58.1094 80.8749 58.5156 81.0937 58.5938 81.0937C58.6875 81.0937 58.75 80.8593 58.75 80.5937C58.75 80.1718 58.6406 79.9843 58.0469 79.5312C57.6406 79.2343 57.0469 78.6406 56.7188 78.2031C56.3906 77.7812 55.9531 77.0468 55.7188 76.6093C55.5 76.1562 55.2031 75.3437 55.0781 74.8124C54.9531 74.2656 54.8438 73.4062 54.8438 72.8906C54.8438 72.3749 54.9531 71.4999 55.0938 70.9374C55.2188 70.3749 55.5938 69.4374 55.9062 68.8437C56.2188 68.2499 56.8438 67.4062 57.2656 66.9843C57.7031 66.5468 58.4531 65.9374 58.9531 65.6093C59.4375 65.2656 59.9219 64.9999 60 64.9999C60.0938 64.9999 60.5938 65.2968 61.1406 65.6562C61.6719 66.0156 62.4531 66.6718 62.8594 67.1093C63.2656 67.5312 63.8438 68.3437 64.1406 68.9062C64.4375 69.4687 64.7812 70.3749 64.9062 70.9374C65.0469 71.4999 65.1562 72.3749 65.1562 72.8906C65.1562 73.4062 65.0469 74.2656 64.9219 74.8124C64.7969 75.3437 64.5 76.1562 64.2812 76.6093C64.0625 77.0468 63.6094 77.7812 63.2812 78.2031C62.9531 78.6406 62.3594 79.2343 61.9688 79.5312C61.3906 79.9687 61.25 80.1718 61.25 80.5468C61.25 80.8124 61.2969 81.0624 61.3594 81.1249C61.4375 81.1874 61.6562 81.0937 61.875 80.8906C62.0938 80.7031 62.625 80.3749 63.0469 80.1718C63.4844 79.9531 64.1875 79.7031 64.6094 79.5781C65.0469 79.4687 66.2188 79.3749 67.2344 79.3749H69.0625C69.0625 80.8906 68.9531 81.8281 68.8281 82.4218C68.7031 83.0312 68.3438 84.0468 68.0312 84.6874C67.6094 85.5156 67.125 86.1874 66.3438 86.9687C65.6094 87.7031 64.875 88.2499 64.1406 88.6249C63.5469 88.9218 62.6406 89.2656 62.1406 89.3906L61.25 89.6093V92.1874H79.375V89.6093C77.9844 89.2656 77.0938 88.9218 76.4844 88.6249C75.7552 88.2499 75.026 87.6979 74.2969 86.9687C73.6875 86.3593 72.9844 85.4374 72.7031 84.9218C72.4375 84.4062 72.1094 83.5937 71.9688 83.1249C71.8281 82.6562 71.6719 81.6093 71.5938 80.8124L71.4844 79.3437C75.4219 79.4531 76.0469 79.5468 76.7969 79.8124C77.3125 79.9999 78.0312 80.3749 78.4062 80.6249C78.7656 80.8906 79.1406 81.0937 79.2188 81.0937C79.3125 81.0937 79.375 80.8593 79.375 80.5937C79.375 80.1718 79.25 79.9687 78.6875 79.5312C78.3281 79.2343 77.75 78.6718 77.4219 78.2812C77.0938 77.8906 76.5938 77.0937 76.3125 76.4843C75.9844 75.7968 75.7188 74.9218 75.5938 74.1406C75.4531 73.1718 75.4531 72.6249 75.5938 71.6874C75.7031 70.9531 76 69.9999 76.3438 69.2656C76.7188 68.4531 77.2031 67.7343 77.7969 67.1249C78.2812 66.6249 79.0781 65.9374 79.5781 65.6093C80.0625 65.2812 80.5625 64.9999 80.6719 64.9999C80.7656 64.9999 81.4219 65.4062 82.1094 65.9062C82.9688 66.5156 83.5938 67.1406 84.1406 67.8906C84.5781 68.4999 85.1094 69.4843 85.3281 70.0781C85.6406 70.9843 85.7031 71.4687 85.7031 72.8906C85.7031 74.2656 85.6406 74.8124 85.3594 75.6249C85.1719 76.1874 84.6562 77.1562 84.2188 77.7812C83.7969 78.3906 83.0938 79.1718 82.6562 79.4999C82.0156 79.9687 81.875 80.1718 81.875 80.5468C81.875 80.8124 81.9062 81.0624 81.9531 81.1406C82 81.2031 82.3594 81.0156 82.7812 80.7343C83.1875 80.4531 83.9375 80.0468 84.4531 79.8437C85.25 79.5312 85.7188 79.4687 87.5469 79.4218L89.6875 79.3749C89.6875 81.0156 89.5938 81.9374 89.4688 82.4999C89.3594 83.0624 89 84.0468 88.6719 84.6874C88.2656 85.4999 87.7344 86.2031 86.9688 86.9843C86.1562 87.7968 85.5469 88.2499 84.6875 88.6562C84.0469 88.9687 83.1406 89.3124 82.6875 89.4218L81.875 89.6093V92.1874H92.1875V62.4999H27.8125V92.1874ZM37.375 70.3124C37.1875 70.7031 36.9688 71.4374 36.875 71.9531C36.7812 72.5624 36.7812 73.2187 36.875 73.8281C36.9688 74.3437 37.2031 75.1249 37.4219 75.5468C37.625 75.9843 38.1406 76.6874 38.5781 77.1093L39.3438 77.8906C40.4844 76.7968 41.0312 76.0312 41.2969 75.4687C41.7656 74.5468 41.7969 74.3281 41.7969 72.8906C41.7969 71.5468 41.75 71.2187 41.3906 70.4687C41.1719 69.9999 40.7188 69.2968 40.375 68.9218C40.0469 68.5468 39.6562 68.1874 39.5 68.1093C39.3125 68.0156 39.0625 68.1718 38.4844 68.7968C38.0625 69.2499 37.5625 69.9218 37.375 70.3124ZM79.9375 68.6093C79.4844 69.0312 79 69.6874 78.7031 70.3124C78.25 71.2499 78.2031 71.4531 78.2031 72.8906C78.2031 74.3437 78.25 74.5468 78.7031 75.4687C78.9688 76.0312 79.5156 76.7968 79.9219 77.1874L80.6562 77.8906C81.8594 76.6874 82.3906 75.9374 82.6094 75.4687C82.8281 74.9999 83.0625 74.2187 83.1406 73.7499C83.2188 73.2656 83.2188 72.5156 83.1406 72.0312C83.0625 71.5624 82.8281 70.7812 82.5938 70.3124C82.375 69.8437 81.8438 69.1093 81.4375 68.6874L80.6875 67.9374L79.9375 68.6093ZM58.0469 70.2968C57.8281 70.7343 57.6094 71.4843 57.5312 71.9843C57.4688 72.4843 57.4688 73.2812 57.5312 73.7812C57.6094 74.2812 57.8438 75.0468 58.0625 75.4999C58.2812 75.9531 58.7656 76.6249 59.125 76.9843C59.4688 77.3593 59.875 77.6562 60 77.6562C60.125 77.6562 60.5312 77.3437 60.9062 76.9531C61.2656 76.5624 61.75 75.8749 62 75.4218C62.3906 74.6718 62.4219 74.4531 62.4219 72.8749C62.4219 71.3124 62.3906 71.0937 62 70.3437C61.75 69.8906 61.2656 69.2031 60.9062 68.8124C60.5312 68.4218 60.125 68.1093 59.9844 68.1093C59.8438 68.1093 59.4375 68.4374 59.0781 68.8124C58.7344 69.2031 58.2656 69.8749 58.0469 70.2968ZM33.625 83.5781C33.8125 83.9687 34.3594 84.6718 34.8438 85.1562C35.3125 85.6406 36.0156 86.1718 36.4062 86.3593C36.7969 86.5468 37.3281 86.7499 37.5781 86.7968L38.0469 86.8749C37.8594 85.7187 37.6719 85.0937 37.5156 84.7499C37.3438 84.4062 36.8438 83.7812 36.375 83.3437C35.8438 82.8437 35.2656 82.4687 34.7656 82.3124C34.3438 82.1718 33.7812 81.9999 33.5312 81.9531C33.0938 81.8593 33.0781 81.8593 33.1875 82.3593C33.25 82.6562 33.4375 83.2031 33.625 83.5781ZM42.8906 82.8593C42.4688 83.1562 41.9219 83.6718 41.6875 83.9999C41.4531 84.3281 41.1719 84.8437 41.0469 85.1406C40.9219 85.4531 40.7813 85.9531 40.7188 86.2812C40.6406 86.7656 40.6719 86.8593 40.9062 86.8593C41.0469 86.8593 41.6094 86.6562 42.1562 86.3906C42.6875 86.1406 43.4844 85.5781 43.9062 85.1406C44.3438 84.7187 44.9062 83.9218 45.1562 83.3906C45.4219 82.8593 45.625 82.2968 45.625 82.1406C45.625 81.9843 45.5781 81.8749 45.5156 81.8749C45.4375 81.8906 45 81.9843 44.5312 82.1093C44.0625 82.2187 43.3281 82.5624 42.8906 82.8593ZM54.2188 83.3906C54.4844 83.9218 55.0469 84.7187 55.4688 85.1406C55.9062 85.5781 56.6875 86.1406 57.2344 86.3906C57.7656 86.6562 58.3281 86.8593 58.4844 86.8593C58.625 86.8593 58.75 86.7968 58.75 86.7031C58.75 86.6249 58.6094 86.1093 58.4375 85.5781C58.2656 85.0468 57.8906 84.3124 57.6094 83.9531C57.3438 83.5937 56.7969 83.0937 56.4062 82.8281C56.0156 82.5781 55.4531 82.2968 55.1562 82.2031C54.8594 82.1249 54.4219 82.0156 54.1875 81.9531C53.8438 81.8749 53.7656 81.9218 53.75 82.1406C53.75 82.2968 53.9688 82.8593 54.2188 83.3906ZM63.75 82.7031C63.4531 82.9062 62.9688 83.3124 62.6875 83.6093C62.4063 83.8906 62 84.4843 61.7969 84.9062C61.5938 85.3437 61.3906 85.9531 61.3438 86.2812C61.2656 86.7656 61.2969 86.8749 61.5312 86.8749C61.6719 86.8749 62.2969 86.6406 62.8906 86.3437C63.5938 85.9999 64.2344 85.5312 64.6719 85.0468C65.0469 84.6249 65.5625 83.8593 65.7969 83.3437C66.0469 82.8281 66.25 82.2968 66.25 82.1406C66.25 81.9843 66.2031 81.8749 66.1406 81.8749C66.0625 81.8749 65.625 81.9843 65.1562 82.1249C64.6875 82.2499 64.0469 82.5156 63.75 82.7031ZM74.8438 83.3906C75.1094 83.9218 75.6719 84.7187 76.0938 85.1406C76.5312 85.5781 77.3125 86.1406 77.8594 86.3906C78.3906 86.6562 78.9531 86.8593 79.1094 86.8593C79.3281 86.8593 79.3594 86.7656 79.2812 86.2812C79.2344 85.9531 79.0625 85.4062 78.9219 85.0624C78.7812 84.7187 78.4531 84.1718 78.2031 83.8437C77.9375 83.5156 77.4219 83.0312 77.0312 82.7812C76.6406 82.5312 76.0781 82.2656 75.7812 82.1874C75.4844 82.1093 75.0469 82.0156 74.8125 81.9531C74.4687 81.8749 74.3906 81.9218 74.375 82.1406C74.375 82.2968 74.5938 82.8593 74.8438 83.3906ZM84.4531 82.6406C84.2031 82.7968 83.6875 83.2499 83.3281 83.6562C82.9531 84.0468 82.5469 84.6249 82.4062 84.9531C82.2656 85.2812 82.1094 85.8437 82.0625 86.2031L81.9531 86.8749C82.6875 86.7499 83.2031 86.5468 83.5938 86.3593C83.9844 86.1718 84.6875 85.6406 85.1719 85.1562C85.6406 84.6718 86.1875 83.9687 86.375 83.5781C86.5625 83.2031 86.75 82.6562 86.7812 82.3749C86.8281 82.0937 86.8125 81.8749 86.75 81.8749C86.6875 81.8749 86.25 81.9999 85.7812 82.1249C85.3125 82.2499 84.7188 82.4843 84.4531 82.6406ZM23.4688 95.5156C23.2656 95.7031 23 96.0468 22.875 96.2812C22.75 96.5156 22.6562 96.8437 22.6562 97.0156C22.6562 97.3281 22.7656 97.3281 60 97.3281H97.3438C97.3594 96.7968 97.1875 96.3906 97 96.0937C96.7969 95.8124 96.4375 95.4218 96.2031 95.2343L95.7656 94.9062C36.75 94.8593 24.4844 94.9062 24.2188 95.0156C24 95.0937 23.6719 95.3281 23.4688 95.5156ZM33.8281 48.7343L38.9844 53.8906L38.125 54.7499C37.6562 55.2343 37.2188 55.6093 37.1406 55.5781C37.0781 55.5624 35.9062 54.4062 32.0312 50.5312L33.8281 48.7343ZM50.5469 48.7343L55.7031 53.9062L53.9062 55.7031L48.7656 50.5468L50.5469 48.7343ZM67.4219 48.7343L72.5781 53.8906L70.7031 55.7656L65.5469 50.6093L67.4219 48.7343ZM84.1406 48.7343L89.2969 53.8906L88.4375 54.7499C87.9531 55.2343 87.5 55.6249 87.4219 55.6249C87.3281 55.6249 86.1406 54.4999 82.2656 50.6249L84.1406 48.7343ZM31.1562 53.8906L33.75 56.4687L31.9531 58.2656L30.7344 57.0624C30.0625 56.3906 29.5156 55.7812 29.4844 55.6874C29.4688 55.6093 29.8438 55.1718 30.3125 54.7187L31.1562 53.8906ZM48.0312 53.8906L49.25 55.0937C49.9062 55.7656 50.4531 56.3749 50.4531 56.4687C50.4531 56.5468 50.0781 57.0156 48.7344 58.3437L46.1562 55.7656L48.0312 53.8906ZM64.75 53.8906L67.3438 56.4687L65.5469 58.2656L62.9688 55.6874L64.75 53.8906ZM81.4688 54.0468C81.5469 54.0468 82.1875 54.6093 84.125 56.5468L82.3281 58.3437L81.0781 57.0937C80.3906 56.4062 79.8125 55.7812 79.7969 55.7031C79.7812 55.6093 80.1094 55.2031 80.5312 54.7968C80.9531 54.3906 81.375 54.0468 81.4688 54.0468Z" fill="#16191C"/>
</g>
<defs>
<clipPath id="clip0_181_1566">
<rect width="80" height="80" fill="white" transform="translate(20 20)"/>
</clipPath>
</defs>
</svg>
