<svg width="120" height="120" viewBox="0 0 120 120" fill="none" xmlns="http://www.w3.org/2000/svg">
<path opacity="0.3" fill-rule="evenodd" clip-rule="evenodd" d="M44.0857 67L29.0007 67L66.7131 29.2876L74.2556 36.8301L74.2538 36.8319L67.0399 74.2131L104.424 66.9985L104.424 67.0005L111.967 74.5425L74.2541 112.255L74.2541 97.1699L90.9806 80.4435L62.9409 85.8547L62.9411 85.8562L55.3987 78.3138L55.3979 78.3137L60.8085 50.2772L44.0857 67Z" fill="#36AF42"/>
<path fill-rule="evenodd" clip-rule="evenodd" d="M62.8906 21.25H69.1094C75.1562 21.25 75.3594 21.2656 77.3906 21.6563C78.5156 21.8906 80.1562 22.3125 81.0156 22.6094C81.875 22.9063 83.1406 23.4375 83.8281 23.7812C84.5156 24.125 85.6719 24.8125 87.7344 26.1719L92.4531 26.25C96.8594 26.3281 97.1875 26.3438 97.5938 26.6406C97.8125 26.8125 98.1562 27.1562 98.3438 27.3906C98.6719 27.8281 98.6719 27.9531 98.75 44.6094L98.25 45.2188C97.9688 45.5625 97.5 45.9219 97.2344 46.0469C96.8438 46.2031 95.6406 46.25 92.5 46.25C89.3594 46.25 88.1562 46.2031 87.7812 46.0469C87.5 45.9375 87.0938 45.6094 86.4844 44.8281L83.7656 46.3281L83.75 58.75H85V60.2344C85 61.1094 85.0781 61.9219 85.2031 62.2188C85.3281 62.5 85.6406 62.9219 85.9062 63.1562C86.2031 63.4219 86.6719 63.625 87.0781 63.6875C87.4844 63.75 87.9375 63.7031 88.2812 63.5625C88.5781 63.4375 89.3125 62.875 91.0156 61.2656L96.2344 66.4844L95.1406 67.6094C94.4688 68.3281 94 68.9688 93.8906 69.3281C93.7969 69.6562 93.75 70.1875 93.8125 70.5C93.8594 70.8281 94.0938 71.3125 94.3438 71.5938C94.5781 71.8594 95 72.1719 95.2812 72.2969C95.5781 72.4219 96.3906 72.5 98.75 72.5V80H97.2656C96.3906 80 95.5781 80.0781 95.2812 80.2031C95 80.3281 94.5781 80.6406 94.3438 80.9062C94.0938 81.1875 93.8594 81.6719 93.8125 81.9844C93.75 82.3125 93.7969 82.8438 93.8906 83.1562C94 83.5313 94.4688 84.1719 96.2344 86.0156L91.0156 91.2344L89.8906 90.1406C89.1719 89.4688 88.5312 89 88.1719 88.8906C87.8438 88.7969 87.3125 88.75 87 88.8125C86.6719 88.8594 86.1875 89.0938 85.9062 89.3281C85.6406 89.5781 85.3281 90 85.2031 90.2656C85.0781 90.5781 85 91.3906 85 93.75H77.5V92.2656C77.5 91.3594 77.4219 90.5781 77.2812 90.2656C77.1719 90 76.9062 89.6094 76.7031 89.4219C76.5 89.2188 76.1094 89 75.8594 88.9375C75.4062 88.7969 75.2969 88.875 73.5156 90.6094C72.4844 91.6094 70.9688 92.9219 70.1562 93.5312C69.3438 94.1406 68 95.0469 67.1875 95.5312C66.375 96.0312 65.0625 96.7344 64.2969 97.0938C63.5312 97.4688 62.25 98 61.4844 98.2812C60.2344 98.75 60.0156 98.7812 59.4531 98.6406C59.0625 98.5312 58.7031 98.5156 58.4844 98.6094C58.2812 98.6875 55.2656 98.75 51.7656 98.75C48.25 98.75 44.7969 98.6719 44.0625 98.5938C43.3281 98.5 42 98.25 41.0938 98.0312C40.1875 97.8125 38.75 97.3594 37.8906 97.0312C37.0312 96.6875 35.7188 96.0625 33.5938 94.8438L32.9688 95.4688C32.5938 95.8438 32.1406 96.125 31.8438 96.1875C31.5625 96.2344 29.4219 96.25 27.0781 96.2188C23.0312 96.1719 22.8125 96.1562 22.3906 95.8438C22.1562 95.6562 21.8125 95.3125 21.6406 95.0938C21.3438 94.6719 21.3281 94.3906 21.25 77.8906L21.75 77.2812C22.0312 76.9375 22.5 76.5781 22.7812 76.4531C23.1562 76.2969 24.3906 76.25 32.1094 76.25L33.125 75.5625C33.6875 75.1875 34.7656 74.5469 35.5469 74.1406C36.3281 73.7188 36.9688 73.375 36.9688 73.375C36.9844 73.3594 36.8594 72.5938 36.7031 71.6406C36.5312 70.6719 36.3594 68.5781 36.1719 63.75H35V62.2656C35 61.3906 34.9219 60.5781 34.7969 60.2656C34.6719 60 34.3594 59.5781 34.0938 59.3281C33.8125 59.0938 33.3281 58.8594 33.0156 58.8125C32.6875 58.75 32.1562 58.7969 31.8438 58.8906C31.4688 59 30.8281 59.4688 28.9844 61.2344L23.7656 56.0156L24.8594 54.875C25.5312 54.1719 26 53.5312 26.1094 53.1562C26.2031 52.8438 26.25 52.3125 26.1875 51.9844C26.1406 51.6719 25.9062 51.1875 25.6719 50.9062C25.4219 50.6406 25 50.3281 24.7344 50.2031C24.4219 50.0781 23.6094 50 21.25 50V42.5H22.7344C23.6094 42.5 24.4219 42.4219 24.7344 42.2969C25 42.1719 25.4219 41.8594 25.6719 41.5938C25.9219 41.2969 26.1406 40.8281 26.1875 40.4219C26.2656 39.9219 26.2188 39.5938 25.9688 39.0625C25.7812 38.6719 25.2031 37.9375 23.75 36.4844L28.9844 31.2656L30.1094 32.3594C30.8281 33.0312 31.4688 33.5 31.8281 33.6094C32.1562 33.7031 32.6875 33.75 33 33.6875C33.3281 33.6406 33.8125 33.4062 34.0938 33.1562C34.3594 32.9219 34.6719 32.5 34.7969 32.2188C34.9219 31.9219 35 31.1094 35 28.75H42.5V30.2344C42.5 31.1094 42.5781 31.9219 42.7031 32.2188C42.8281 32.5 43.1406 32.9219 43.4062 33.1562C43.6875 33.4062 44.1719 33.6406 44.4844 33.6875C44.8125 33.75 45.3438 33.7031 45.6562 33.6094C46.0312 33.5 46.6719 33.0312 48.5156 31.2656L49.7656 32.4844L50.1562 32.1406C50.375 31.9531 50.7812 31.7031 51.0469 31.5938C51.5156 31.4219 51.5469 31.375 51.4062 31.0156C51.3125 30.7969 51.25 30.3594 51.25 30.0312C51.25 29.7188 51.3438 29.1719 51.4375 28.8281C51.5625 28.4531 51.9375 27.8906 52.4219 27.4219C52.8906 26.9375 53.4531 26.5625 53.8281 26.4375C54.2344 26.3125 55.7344 26.25 58.1719 26.25C61.625 26.25 61.875 26.2344 61.7812 25.9688C61.7188 25.8281 61.5781 25.3906 61.4688 25C61.3438 24.6094 61.25 24.0625 61.25 23.7812C61.25 23.5156 61.3438 23.0469 61.4531 22.7656C61.5781 22.5 61.9375 22.0312 62.2812 21.75L62.8906 21.25ZM63.8125 24.25C63.8594 24.5469 64.0312 24.9531 64.2031 25.1719C64.3594 25.375 64.6719 25.7031 64.9062 25.875C65.2812 26.1406 65.6562 26.1875 68.4062 26.2656C71.0625 26.3281 71.5781 26.3906 72.1875 26.6719C72.5781 26.8438 73.1562 27.2188 73.5 27.5156C73.8281 27.8125 74.2812 28.375 74.5 28.7656C74.7187 29.1406 75.1094 29.7031 75.375 29.9844C75.6406 30.2656 76.1406 30.6406 76.4844 30.8281C76.8281 31 77.4688 31.1875 77.9219 31.2344L78.75 31.3438V33.8438C77.2344 33.6719 76.4375 33.5 76.0156 33.3438C75.5781 33.1719 74.8438 32.7812 74.375 32.4531L73.5156 31.8594C72.7188 32.6719 72.2969 33.3281 72.0469 33.8438C71.7969 34.3594 71.5156 35.1406 71.4219 35.5938C71.3281 36.0625 71.25 38 71.25 40.0156V43.6094C73.6094 43.75 74.8906 43.75 75.625 43.6875C76.3594 43.6406 78.4844 43.2969 80.3438 42.9375L83.7344 42.2812C83.75 43.1875 83.7969 43.4375 83.8594 43.4375C83.9219 43.4375 84.4688 43.1094 85.0781 42.7031L86.1719 41.9688L86.2656 28.2188C84.5469 27.0625 83.4375 26.4219 82.6875 26.0469C81.9375 25.6719 80.7656 25.1719 80.0781 24.9375C79.3906 24.7031 78.1875 24.3594 77.4219 24.1875C76.1719 23.9062 75.2969 23.8594 69.875 23.7969L63.7188 23.7344L63.8125 24.25ZM54.1406 29.1406C53.9219 29.3594 53.7656 29.7031 53.75 30C53.75 30.2969 53.8906 30.6094 54.1406 30.8594L54.5312 31.25L70.7031 31.2188C72.0469 29.7656 72.0938 29.6719 71.875 29.4375C71.75 29.2969 71.4062 29.0781 71.125 28.9688C70.7344 28.7969 68.9688 28.75 62.5781 28.75H54.5156L54.1406 29.1406ZM88.75 43.7656H96.25V28.7656H88.75V43.7656ZM37.375 32.2344C37.2812 32.7656 37 33.5312 36.75 33.9219C36.5156 34.2969 35.9688 34.875 35.5469 35.2031C35.1094 35.5156 34.375 35.8906 33.9062 36.0156C33.4375 36.1562 32.7969 36.2656 32.5 36.2656C32.2031 36.2656 31.6094 36.1562 31.1719 36.0312C30.75 35.9062 30.0781 35.5781 29.6875 35.3125L28.9844 34.8281L27.3125 36.5C28.0781 37.5781 28.4062 38.2812 28.5469 38.7656C28.7188 39.3438 28.7656 39.9062 28.6875 40.5156C28.6406 41.0156 28.4531 41.7188 28.2812 42.0781C28.125 42.4375 27.75 43.0312 27.4531 43.375C27.1719 43.7188 26.5469 44.1875 26.0781 44.4219C25.625 44.6562 24.9063 44.9062 24.4844 44.9688L23.75 45.0938V47.4375C25.2656 47.7344 26.0156 48.0156 26.4062 48.25C26.7969 48.5 27.375 49.0469 27.6875 49.4688C28.0156 49.8906 28.375 50.625 28.5156 51.1094C28.6406 51.5781 28.75 52.2031 28.75 52.5156C28.75 52.8125 28.6562 53.4062 28.5312 53.8438C28.4062 54.2656 28.0781 54.9375 27.8125 55.3281L27.3125 56.0312L28.9844 57.7031C30.0781 56.9375 30.7812 56.5938 31.25 56.4688C31.8438 56.2969 32.3906 56.25 33.0156 56.3125C33.5 56.375 34.2031 56.5625 34.5781 56.75C34.9375 56.9219 35.4688 57.25 35.75 57.4531L36.25 57.8281C36.25 54.9688 36.2031 54.5469 36.0625 54.5469C35.9531 54.5469 35.3281 54.2812 34.6875 53.9688C33.9219 53.5781 33.1875 53.0312 32.5469 52.3906C31.8438 51.7031 31.3906 51.0469 30.9375 50.125C30.5 49.2031 30.2656 48.4688 30.125 47.5156C29.9844 46.4688 29.9844 45.9219 30.125 44.9375C30.25 44.0938 30.5156 43.2656 30.9219 42.4375C31.375 41.5156 31.8281 40.8906 32.6094 40.1094C33.3906 39.3281 34.0156 38.875 34.9219 38.4375C35.8125 38 36.5469 37.7656 37.5 37.6406C38.5469 37.4844 39.0938 37.4844 40.0781 37.6406C40.9219 37.7656 41.75 38.0312 42.625 38.4531C43.5625 38.9062 44.1875 39.3438 44.9219 40.0938C45.6719 40.8281 46.0938 41.4375 46.5312 42.3438L47.1094 43.5938C48.1406 43.6094 49.125 43.4688 49.9688 43.2969C50.7969 43.125 51.6719 42.9219 51.9219 42.8281L52.3438 42.6719C51.7656 41.875 51.5312 41.4062 51.4219 41.1094C51.3281 40.7969 51.25 40.2969 51.25 39.9688C51.25 39.6406 51.3125 39.2188 51.3906 39.0312C51.5312 38.7188 51.4688 38.6406 50.9062 38.375C50.5469 38.2031 50.0156 37.7656 49.7031 37.4219C49.3906 37.0625 49.0625 36.5 48.9531 36.1719C48.8438 35.8281 48.75 35.4375 48.75 35.2812C48.75 35.125 48.6875 34.9688 48.5938 34.9375C48.5156 34.8906 48.1406 35.0625 47.7812 35.3281C47.4062 35.5938 46.7188 35.9219 46.25 36.0469C45.6562 36.2188 45.1094 36.2656 44.5 36.2031C44 36.1406 43.2969 35.9688 42.9375 35.7969C42.5625 35.625 41.9844 35.25 41.6406 34.9688C41.2969 34.6719 40.8281 34.0625 40.5781 33.5938C40.3438 33.125 40.1094 32.4062 40.0312 32L39.9219 31.25L37.5625 31.2656L37.375 32.2344ZM51.6406 34.1406C51.4062 34.3594 51.2656 34.7031 51.25 35C51.25 35.2969 51.3906 35.6094 51.6406 35.8594L52.0312 36.25H68.75C68.875 35.5781 69 35.0313 69.1094 34.5781L69.2969 33.7656L52.0156 33.75L51.6406 34.1406ZM53.75 40C53.75 40.3125 53.8906 40.6094 54.1406 40.875C54.4062 41.1406 54.7031 41.2656 55.0781 41.2656C55.375 41.2656 55.8906 41.125 56.2031 40.9531C56.5312 40.7812 57.4219 40.2188 58.2031 39.7031L59.6094 38.7656C54.5625 38.7656 54.5156 38.7656 54.1406 39.1406C53.9062 39.375 53.7656 39.7188 53.75 40ZM61.7969 39.7031C62.5625 40.2188 63.4688 40.7812 63.7812 40.9531C64.2813 41.2188 64.7031 41.2656 66.5625 41.2656H68.75V38.7656H60.3906L61.7969 39.7031ZM35.7188 40.8281C35.2188 41.1094 34.5156 41.6406 34.1719 42.0312C33.8125 42.4219 33.3125 43.1875 33.0469 43.75C32.625 44.6562 32.5781 44.9219 32.5781 46.25C32.5781 47.5781 32.625 47.8438 33.0625 48.75C33.3281 49.3125 33.7812 50.0312 34.0781 50.375C34.375 50.7031 34.9219 51.1719 35.3125 51.4219C35.7031 51.6719 36.0625 51.875 36.125 51.875C36.2031 51.875 36.25 49.7188 36.25 47.0781V42.2656C41.5156 43.2969 43.3438 43.5938 43.7031 43.5938H44.375C44.0312 42.9219 43.625 42.3906 43.25 41.9688C42.8125 41.4844 42.1875 41.0312 41.4844 40.6719C40.5781 40.2344 40.1719 40.125 39.1406 40.0781C38.4531 40.0469 37.6094 40.0781 37.2656 40.1719C36.9219 40.2656 36.2188 40.5625 35.7188 40.8281ZM56.0156 43.8906C55.3281 44.2344 54.125 44.7188 53.3594 45C52.5781 45.2656 51.25 45.6406 50.3906 45.8125C49.1094 46.0938 48.3125 46.1562 45.9375 46.1562C43.4219 46.1562 42.7812 46.0938 41.0156 45.7344C39.8906 45.5 38.9375 45.3125 38.8594 45.3125C38.7969 45.3125 38.7812 50.8125 38.8125 57.5469C38.8594 68 38.8906 69.9531 39.1094 71.0938C39.25 71.8281 39.375 72.4219 39.375 72.4219C39.375 72.4219 39.9219 72.2812 40.5625 72.1094L41.75 71.7969C41.5938 70.5938 41.4688 69.6719 41.3906 68.9844C41.3125 68.2969 41.25 63.375 41.25 58.0469V48.3594C42.5156 48.5469 43.8438 48.6406 45 48.6875C46.2812 48.75 47.7812 48.7188 48.8281 48.6094C49.7656 48.5 51.2188 48.2812 52.0312 48.0938C52.8438 47.9219 54.1094 47.5625 54.8438 47.3125C55.5781 47.0625 57.0312 46.3906 58.0781 45.8438L60 44.8438C62.9688 46.3906 64.4219 47.0625 65.1562 47.3125C65.8906 47.5625 67.1562 47.9219 67.9688 48.0938C68.7812 48.2812 70.2188 48.5 71.1719 48.6094C72.2188 48.7188 73.7188 48.75 75 48.6875C76.1562 48.6406 77.4844 48.5469 77.9375 48.4688L78.75 48.3594C78.75 63.8281 78.6875 68.4375 78.5781 69.3438C78.5 70.1719 78.2344 71.6719 78.0156 72.6562C77.7969 73.6406 77.4062 75.0469 77.1562 75.7812C76.9062 76.5156 76.3125 77.9219 75.8438 78.9062C75.3594 79.8906 74.4688 81.4844 73.8438 82.4219C73.2031 83.375 72.1719 84.7344 71.5312 85.4688C70.8906 86.2031 69.9219 87.2031 69.3594 87.7188C68.8125 88.2188 67.875 88.9844 67.2969 89.4375C66.5312 90.0156 66.2188 90.3594 66.1406 90.7031C66.0937 90.9688 65.9375 91.4219 65.7812 91.7188C65.6406 92.0156 65.2344 92.5156 64.8906 92.8125C64.5469 93.1094 63.9844 93.4531 63.6562 93.5469C63.3125 93.6562 62.6094 93.75 62.0625 93.75H61.0938C61.25 95.1406 61.3125 95.5781 61.3438 95.625C61.375 95.6719 62.2969 95.2656 63.4062 94.7188C64.5 94.1719 65.9844 93.3281 66.7188 92.8594C67.4531 92.375 68.6094 91.5469 69.2969 91.0156C69.9844 90.4688 71.2344 89.3438 72.0625 88.5C72.9063 87.6406 73.9531 86.5 74.3906 85.9375C74.8438 85.375 75.625 84.2969 76.125 83.5156C76.625 82.75 77.3438 81.5156 77.7188 80.7812C78.0938 80.0469 78.7031 78.7344 79.0469 77.8594C79.4062 76.9688 79.8906 75.4531 80.1562 74.5C80.4062 73.5312 80.7344 72.0625 80.8906 71.25C81.125 69.9531 81.1562 68.2812 81.2031 57.5469C81.2344 50.8125 81.2031 45.3125 81.125 45.3125C81.0625 45.3125 80.0938 45.5 78.9844 45.7344C77.2188 46.0938 76.5781 46.1562 74.0625 46.1562C71.6875 46.1562 70.8906 46.0938 69.6094 45.8125C68.75 45.6406 67.4062 45.2656 66.6406 44.9844C65.8594 44.7187 64.7344 44.2656 64.1406 43.9844C63.5312 43.6875 62.3594 43.0312 61.5156 42.5156C60.6875 41.9844 59.9844 41.5625 59.9531 41.5625C59.9375 41.5625 59.3281 41.9531 58.5938 42.4219C57.8594 42.9062 56.7031 43.5625 56.0156 43.8906ZM55.2344 49.7969C54.375 50.0938 53 50.4531 52.1875 50.625C51.375 50.7812 49.9688 51 49.0625 51.0938C48.1562 51.1719 46.5938 51.25 45.5781 51.25H43.75C43.75 63.9062 43.8281 68.2188 43.9062 68.9844C44 69.7656 44.1094 70.6094 44.1562 70.8594L44.2344 71.3281C54.4219 71.3281 54.6875 71.3438 55.0781 71.6406C55.3125 71.8125 55.6406 72.125 55.8125 72.3438C55.9688 72.5625 56.1562 73.0469 56.2031 73.4375C56.25 73.8906 56.1875 74.4531 56.0312 75C55.875 75.4688 55.7344 75.9531 55.6875 76.0625C55.6406 76.2031 56 76.25 57.1875 76.25H58.75C58.75 54.7031 58.7031 48.4375 58.625 48.4531C58.5625 48.4531 58.125 48.6406 57.6562 48.875C57.1875 49.0938 56.0938 49.5156 55.2344 49.7969ZM61.25 76.25C62.6406 76.25 63.3281 76.3438 63.6719 76.4375C64.0469 76.5625 64.5938 76.9375 65.0781 77.4219C65.5625 77.8906 65.9375 78.4531 66.0625 78.8281C66.1562 79.1719 66.25 79.7188 66.25 80.0469C66.25 80.3594 66.1719 80.7969 66.0938 81.0156C65.9531 81.375 65.9844 81.4219 66.4375 81.5938C66.7188 81.7031 67.2031 82.0156 67.5 82.2812C67.7969 82.5469 68.1562 83.0469 68.2969 83.375C68.4375 83.7188 68.625 84.1562 68.6875 84.3594C68.8281 84.7188 68.8594 84.7031 69.7031 83.7344C70.1875 83.1875 70.9688 82.2031 71.4219 81.5625C71.8906 80.9219 72.7031 79.5469 73.2344 78.5156C73.7656 77.4844 74.4844 75.7969 74.8281 74.7656C75.1719 73.7344 75.5469 72.3594 75.6875 71.7188C75.8125 71.0781 76 69.9219 76.0781 69.1406C76.1719 68.3438 76.25 64.1562 76.25 59.5312V51.3281C71.8281 51.1562 69.875 51 69.0625 50.8594C68.25 50.7344 66.9375 50.4531 66.1719 50.2344C65.3906 50.0312 64.0625 49.5781 63.2031 49.2188C62.3438 48.875 61.5625 48.5469 61.4688 48.5C61.3438 48.4219 61.2969 52.3125 61.2656 62.3281L61.25 76.25ZM83.7656 66.3125C83.7656 67.5469 83.8125 67.9688 83.9531 67.9688C84.0625 67.9688 84.6094 68.1875 85.1562 68.4688C85.7188 68.75 86.5938 69.375 87.1094 69.8438C87.6094 70.3125 88.2969 71.125 88.625 71.6406C88.9688 72.1562 89.3906 73.0312 89.5781 73.5938C89.8438 74.3906 89.9219 74.9688 89.9219 76.25C89.9219 77.4375 89.8438 78.125 89.6406 78.75C89.4688 79.2188 89.125 80.0156 88.8594 80.5312C88.5938 81.0312 87.9375 81.875 87.4219 82.375C86.9062 82.8906 86.1406 83.5156 85.7031 83.7656C85.2812 84 84.5 84.3438 83.9844 84.5312C83.4688 84.7031 82.5312 84.8906 81.875 84.9531C81.2344 85 80.3281 84.9688 79.8438 84.875C79.375 84.7812 78.8906 84.6719 78.75 84.6094C78.5938 84.5312 78.3281 84.7813 77.8906 85.4219C77.5469 85.9219 77.2031 86.4219 77.1406 86.5156C77.0781 86.6562 77.2812 86.8594 77.7344 87.1094C78.125 87.3281 78.6875 87.8281 79 88.2344C79.3125 88.6562 79.6562 89.3281 79.7812 89.7656C79.9062 90.1875 80.0156 90.7031 80.0156 90.8906C80.0156 91.2344 80.0625 91.25 81.2188 91.25H82.4219C82.6094 90.0938 82.8594 89.3906 83.0938 88.9219C83.3281 88.4531 83.7969 87.8281 84.1406 87.5469C84.4844 87.25 85.0781 86.8906 85.4375 86.7188C85.7969 86.5469 86.5 86.3594 87 86.3125C87.6094 86.2344 88.1719 86.2812 88.75 86.4531C89.2344 86.5938 89.9375 86.9219 90.3125 87.1875L91.0156 87.6875L92.7031 86.0156C91.9375 84.9219 91.5938 84.2188 91.4688 83.75C91.2969 83.1562 91.25 82.6094 91.3125 81.9844C91.375 81.5 91.5469 80.7969 91.7188 80.4219C91.8906 80.0625 92.2656 79.4844 92.5469 79.1406C92.8438 78.7969 93.4531 78.3281 93.9219 78.0781C94.3906 77.8438 95.1094 77.5938 95.5156 77.5312L96.2656 77.4219V75.0781C94.75 74.7812 93.9844 74.5 93.5938 74.25C93.2188 74.0156 92.6406 73.4688 92.3125 73.0469C92 72.6094 91.625 71.875 91.5 71.4062C91.375 70.9375 91.2656 70.2969 91.25 70C91.25 69.7031 91.3594 69.0938 91.4844 68.6719C91.6094 68.2344 91.9375 67.5781 92.2031 67.1875L92.7031 66.4844L91.0156 64.8125C89.9375 65.5781 89.2344 65.9063 88.75 66.0469C88.1719 66.2188 87.6094 66.2656 87 66.1875C86.5 66.1406 85.7969 65.9375 85.4375 65.7656C85.0781 65.5781 84.5469 65.2656 84.2812 65.0469L83.7812 64.6719L83.7656 66.3125ZM82.2969 76C82 77.0312 81.3594 78.7969 80.875 79.9062C80.3906 81.0312 79.9531 82.0313 79.9219 82.1406C79.875 82.2656 80.0625 82.375 80.4375 82.4375C80.7656 82.4844 81.4375 82.4844 81.9531 82.4375C82.4688 82.375 83.3125 82.1406 83.8281 81.8906C84.3438 81.6562 85.1094 81.1406 85.5312 80.7656C86.0156 80.3125 86.4844 79.6562 86.8594 78.9062C87.3906 77.8125 87.4219 77.6562 87.4219 76.25C87.4219 74.8906 87.3906 74.6719 86.9219 73.7031C86.6406 73.125 86.0781 72.3125 85.6719 71.8906C85.2656 71.4844 84.625 70.9844 84.2656 70.7969C83.9062 70.6094 83.5781 70.4531 83.5469 70.4531C83.5156 70.4531 83.3438 71.2812 83.1719 72.2969C82.9844 73.3125 82.5938 74.9688 82.2969 76ZM42.8125 74.1562C42.0938 74.2812 40.8594 74.6094 40.0781 74.875C39.3125 75.125 38.0625 75.6562 37.3125 76.0312C36.5625 76.4062 35.4531 77.0469 34.8438 77.4531L33.75 78.1875V91.8594C35.1562 92.8438 36.1562 93.4375 36.875 93.8125C37.6094 94.1875 38.9531 94.75 39.8438 95.0469C40.75 95.3438 42.0156 95.7188 42.6562 95.8594C43.6562 96.0938 44.9219 96.1406 50.9062 96.1875L57.9688 96.2344C58.6094 95.6094 58.75 95.2812 58.75 94.9844C58.75 94.7031 58.6094 94.375 58.3594 94.125L57.9688 93.7344H47.5V91.2344H62.9844C63.6094 90.6094 63.75 90.2812 63.75 89.9844C63.75 89.7031 63.6094 89.375 63.3594 89.125L62.9688 88.7344H47.5V86.2344H65.4844C66.1094 85.6094 66.25 85.2812 66.25 84.9844C66.25 84.7031 66.1094 84.375 65.8594 84.125L65.4688 83.7344H47.5V81.2344H62.9844C63.6094 80.6094 63.75 80.2812 63.75 79.9844C63.75 79.7031 63.6094 79.375 63.3594 79.125L62.9688 78.7344H47.5V76.2344C51.9375 76.1719 52.2188 76.125 52.6094 75.8281C52.8594 75.6562 53.1719 75.3281 53.3281 75.125C53.4688 74.9219 53.6562 74.5312 53.7188 74.25L53.8281 73.7344C47.1719 73.7812 45 73.8125 44.6875 73.8438C44.3906 73.875 43.5469 74.0156 42.8125 74.1562ZM23.75 93.7344H31.25V78.7344H23.75V93.7344ZM96.25 51.2344H98.75V53.7344H96.25V51.2344ZM21.25 68.7344H23.75V71.2344H21.25V68.7344ZM86.25 51.2344H88.75V53.7344H86.25V51.2344ZM91.25 51.2344H93.75V53.7344H91.25V51.2344ZM26.25 68.7344H28.75V71.2344H26.25V68.7344ZM31.25 68.7344H33.75V71.2344H31.25V68.7344ZM80.8906 36.2969C80.9219 36.3125 81.0781 36.8438 81.25 37.4844C81.4219 38.1406 81.5469 38.6719 81.5156 38.6875C81.5 38.6875 81.0625 38.8281 80.5469 38.9688C80.0312 39.125 79.3594 39.375 79.0312 39.5469C78.7031 39.7031 78.1406 40.1094 77.7812 40.4375C77.4219 40.7656 76.9062 41.4375 76.6406 41.9219C76.3906 42.4062 76.1094 42.7969 76.0156 42.8125C75.9375 42.8125 75.4219 42.6719 74.8906 42.5C74.1719 42.2656 73.9219 42.1094 73.9219 41.9062C73.9219 41.75 74.1562 41.2188 74.4219 40.7031C74.7031 40.1875 75.3594 39.3438 75.875 38.8281C76.3906 38.3125 77.2031 37.6719 77.6719 37.4219C78.1406 37.1719 79.0469 36.7969 79.6875 36.6094C80.3281 36.4219 80.8594 36.2812 80.8906 36.2969Z" fill="#16191C"/>
</svg>
