<svg width="120" height="120" viewBox="0 0 120 120" fill="none" xmlns="http://www.w3.org/2000/svg">
<path opacity="0.3" fill-rule="evenodd" clip-rule="evenodd" d="M44.0857 67L29.0007 67L66.7131 29.2876L74.2556 36.8301L74.2538 36.8319L67.0399 74.2131L104.424 66.9985L104.424 67.0005L111.967 74.5425L74.2541 112.255L74.2541 97.1699L90.9806 80.4435L62.9409 85.8547L62.9411 85.8562L55.3987 78.3138L55.3979 78.3137L60.8085 50.2772L44.0857 67Z" fill="#36AF42"/>
<g clip-path="url(#clip0_181_1515)">
<path fill-rule="evenodd" clip-rule="evenodd" d="M70.3125 20H72.9688V25.1562H75.4688V27.8125H72.9688V30.3125H75.4688V32.9688H72.9688V38.6719L81.8594 40.8594L81.875 28.8281L81.0625 28.2812C80.4688 27.8906 80.125 27.5 79.7969 26.875C79.3906 26.0938 79.3594 25.9062 79.4219 24.9219C79.4844 24.0938 79.6094 23.6562 79.9531 23.1406C80.1875 22.75 80.6719 22.2344 81.0156 22C81.3594 21.7656 82.0312 21.4844 82.5 21.375C83.2031 21.2344 83.5156 21.25 84.2188 21.4531C84.6875 21.5938 85.3594 21.9375 85.7031 22.2344C86.0469 22.5156 86.4844 23.0938 86.6875 23.4844C86.9219 24 87.0312 24.5 87.0312 25.1562C87.0312 25.8125 86.9219 26.3125 86.6875 26.8281C86.4844 27.2188 86.0938 27.75 85.8281 28C85.5469 28.2344 85.1406 28.5312 84.5156 28.8281L84.5312 41.5625L85.125 41.8594C85.4375 42.0312 85.8906 42.3594 86.125 42.6094C86.3594 42.8438 86.6562 43.3125 86.7812 43.6406C86.9531 44.0156 87.0312 44.7188 87.0312 47.1094L88.4844 47.3906C89.2656 47.5469 90.4844 47.9062 91.1719 48.1719C91.8594 48.4531 92.9531 49.0312 93.5938 49.4531C94.2344 49.875 95.2188 50.6875 95.7812 51.25C96.3438 51.8125 97.125 52.7188 97.5 53.2812C97.875 53.8438 98.4219 54.8281 98.7188 55.4688C99.0156 56.1094 99.3906 57.1719 99.5625 57.8125C99.7188 58.4531 99.9062 59.6875 99.9531 60.5469C100 61.4688 99.9688 62.5938 99.8594 63.2812C99.75 63.9219 99.4688 65.0938 99.2031 65.8594C98.9531 66.625 98.375 67.8594 97.9375 68.5938C97.4844 69.3281 96.625 70.4375 96.0156 71.0781C95.4219 71.7031 94.2812 72.6406 93.5156 73.1406C92.75 73.6562 91.5156 74.2812 90.7812 74.5469C90.0469 74.8125 88.9219 75.125 88.2812 75.25C87.6406 75.3594 87.0938 75.4531 87.0781 75.4688C87.0469 75.4688 87.0312 80.3906 87.0312 97.3438H100V100H20V97.3438H66.4062V94.8438H48.4375V79.375H43.2812V67.8125H45.7812V76.7188H48.4375V70.3125H50.9375V79.375H53.5938V65.1562H56.0938V81.875L51.0156 81.9531L50.9375 87.0312H66.4062V48.4375H62.9688L55.5 54.0312C51.4062 57.1094 47.8906 59.7188 47.6875 59.8125C47.5 59.9219 47.2031 60 47.0312 60C46.8594 60 46.5156 59.7969 45.7812 59.0625V45.7812H43.0469L42.7344 46.3438C42.5625 46.6562 42.1406 47.1562 41.7969 47.4531C41.4375 47.75 40.7969 48.0938 40.3125 48.2188C39.75 48.375 39.2344 48.4219 38.8281 48.3594C38.4844 48.2969 37.9531 48.125 37.6562 47.9688C37.3594 47.8125 36.9062 47.4844 36.6562 47.25C36.4219 47 36.0781 46.5312 35.9219 46.2188C35.7656 45.8906 35.5781 45.3281 35.5312 44.9688C35.4688 44.5469 35.5312 43.9688 35.6875 43.4062C35.875 42.7344 36.1094 42.3281 36.6406 41.7969C37.1719 41.2656 37.5781 41.0312 38.25 40.8438C38.8125 40.6875 39.3906 40.625 39.7969 40.6875C40.1719 40.7344 40.7344 40.9062 41.0469 41.0781C41.375 41.2344 41.8906 41.6406 42.2031 41.9688C42.5 42.3125 42.7969 42.7344 42.8594 42.9375C42.9688 43.2656 43.0469 43.2812 45.7812 43.2812V36.7188C45.7812 31.5 45.8281 30.0625 46 29.7344C46.1094 29.4844 46.3281 29.25 46.4688 29.1875C46.6094 29.1094 46.9062 29.0625 47.1406 29.0625C47.4688 29.0625 49.4531 30.4688 62.9688 40.625H64.8438C66.6562 40.625 66.7188 40.6094 66.7969 40.2812C66.8281 40.0781 67.0625 39.6719 67.3125 39.375C67.5625 39.0781 68.0625 38.6719 68.4531 38.4844C68.8281 38.2812 69.4062 38.125 70.3125 38.125V32.9688H67.8125V30.3125H70.3125V27.8125H67.8125V25.1562H70.3125V20ZM81.9531 25.1562C81.9531 25.4219 82.1094 25.7656 82.3438 26C82.5938 26.2656 82.9062 26.4219 83.2031 26.4219C83.4531 26.4219 83.8438 26.2812 84.0625 26.1094C84.375 25.875 84.4531 25.6719 84.4531 25.1562C84.4531 24.6406 84.375 24.4375 84.0625 24.2031C83.8438 24.0312 83.4531 23.8906 83.1875 23.9062C82.875 23.9062 82.5781 24.0469 82.3281 24.3125C82.1094 24.5469 81.9531 24.9062 81.9531 25.1562ZM48.4375 56.0938L61.25 46.4844L61.3281 42.5312C52.125 35.6875 49.2344 33.5312 48.9844 33.3125L48.5 32.9375L48.4375 56.0938ZM69.0938 42.375L69.1406 43.5C80.7656 45.9844 84.2344 46.7031 84.3438 46.7031C84.4844 46.7188 84.5469 46.4062 84.5469 45.7344C84.5469 45.0156 84.4688 44.6719 84.2656 44.4062C84.0312 44.125 82.8125 43.7656 77.0781 42.3438C73.2812 41.3906 70.0625 40.625 69.9219 40.625C69.7969 40.625 69.5469 40.7656 69.3594 40.9375C69.0781 41.2188 69.0312 41.3906 69.0938 42.375ZM38.0938 44.5781C38.125 45 38.25 45.2344 38.5625 45.4688C38.7969 45.6406 39.1875 45.7812 39.4219 45.7812C39.6875 45.7812 40.0313 45.6094 40.25 45.3906C40.4844 45.1406 40.625 44.8125 40.625 44.5312C40.625 44.2344 40.4844 43.9062 40.2344 43.6719C39.974 43.4115 39.6719 43.2812 39.3281 43.2812C39 43.2812 38.6719 43.4062 38.4375 43.6406C38.1719 43.9062 38.0781 44.1562 38.0938 44.5781ZM63.9062 45.7812H66.4062V43.2812H63.9062V45.7812ZM74.0312 48.9531L76.0156 50.9688C77.3594 49.9062 78.1406 49.375 78.6406 49.0938C79.1406 48.8125 79.5312 48.5312 79.5312 48.4688C79.5469 48.4062 78.7812 48.1875 77.8594 48C76.9375 47.7969 75.2344 47.4375 74.0781 47.1875C72.9375 46.9531 72 46.7969 72.0156 46.8438C72.0312 46.9062 72.9375 47.8594 74.0312 48.9531ZM69.0625 61.25H71.5625C71.7031 59.8594 71.875 58.8125 72.0469 58.0469C72.2344 57.2188 72.6406 56.0469 73.0469 55.2344C73.4219 54.4531 73.8594 53.625 74.0156 53.3906L74.2969 52.9531L69.0625 47.7344V61.25ZM80.7031 50.9219C79.5625 51.4844 78.8438 51.9688 78 52.75C77.3594 53.3438 76.5469 54.2812 76.1719 54.8438C75.8125 55.3906 75.3281 56.2812 75.125 56.7969C74.9062 57.3125 74.6094 58.2969 74.4531 58.9844C74.25 59.9219 74.2031 60.625 74.2656 61.875C74.3281 62.9062 74.4844 63.9219 74.6875 64.6094C74.875 65.2031 75.2812 66.1562 75.5625 66.7188C75.8594 67.2656 76.4375 68.1406 76.8438 68.625C77.25 69.125 77.9688 69.8438 78.4375 70.2344C78.9219 70.625 79.8281 71.2031 80.4688 71.5469C81.125 71.875 82.0312 72.2656 82.5 72.4062C82.9844 72.5312 83.8906 72.7188 84.5312 72.7969C85.2812 72.8906 86.1875 72.8906 87.0312 72.7969C87.7656 72.7188 88.8906 72.4844 89.5312 72.2656C90.1875 72.0469 91.2031 71.5625 91.7969 71.2031C92.4062 70.8438 93.3906 70.0625 94 69.4531C94.6094 68.8438 95.3906 67.8594 95.75 67.2656C96.1094 66.6562 96.5781 65.6094 96.8125 64.9219C97.1719 63.8906 97.25 63.3125 97.3125 61.7188C97.3594 60.2656 97.3125 59.4844 97.125 58.6719C96.9844 58.0625 96.5625 56.9375 96.1875 56.1719C95.6875 55.125 95.2031 54.4375 94.3438 53.5156C93.7031 52.8281 92.7344 51.9688 92.1719 51.6094C91.625 51.2344 90.7188 50.7656 90.1562 50.5312C89.6094 50.2969 88.6406 50.0156 88.0156 49.9062C87.3906 49.7812 86.3281 49.6875 85.6719 49.6875C85 49.7031 83.9688 49.8125 83.3594 49.9375C82.7656 50.0625 81.5625 50.5 80.7031 50.9219ZM69.0625 77.4219C74.1562 72.3281 75.4062 70.9531 75.3281 70.8594C75.2656 70.7656 74.9062 70.3125 74.5469 69.8438C74.1719 69.3594 73.6406 68.5625 73.3594 68.0469C73.0781 67.5312 72.6719 66.5781 72.4531 65.9375C72.2344 65.2812 72.0156 64.5625 71.9688 64.3281L71.875 63.9062H69.0625V77.4219ZM71.0625 79.25C71.0781 79.3125 74.125 79.375 77.8125 79.375H84.5312C84.5312 75.5156 84.5312 75.4688 84.1875 75.4062C84 75.3594 83.2031 75.1875 82.4219 75C81.6562 74.8281 80.5625 74.4688 80 74.2031C79.4531 73.9375 78.6719 73.5156 78.2812 73.2656C77.9062 73.0156 77.5469 72.8125 77.5 72.8125C77.4688 72.8125 75.9844 74.2344 74.2188 75.9688C72.4688 77.7188 71.0469 79.1875 71.0625 79.25ZM73.9531 84.9531L76.7969 87.8125C81.2188 83.3906 82.5 82.0469 82.5 81.9844C82.5 81.9219 79.9375 81.875 76.7969 81.875C73.6719 81.875 71.0938 81.9219 71.0938 81.9844C71.0938 82.0469 72.3906 83.3906 73.9531 84.9531ZM69.0625 95.5469L74.9219 89.6875L69.0625 83.8281V95.5469ZM78.5938 89.6094C83.0156 94.0156 84.3594 95.3125 84.4219 95.3125C84.4844 95.3125 84.5469 92.7812 84.5469 89.6875C84.5625 86.1875 84.5156 84.0469 84.4219 84C84.3281 83.9531 82.9844 85.2031 81.4375 86.7656L78.5938 89.6094ZM50.9375 92.1875H66.4062V89.6875H50.9375V92.1875ZM70.8594 97.3438H82.5781C78.0938 92.8594 76.75 91.5625 76.7188 91.5625C76.6719 91.5625 75.3281 92.8594 73.75 94.4531L70.8594 97.3438ZM24.125 34.5156L25.9062 36.3281L25.1406 37.2656C24.7188 37.7812 24.125 38.6875 23.8281 39.2969C23.5312 39.8906 23.1406 40.9531 22.9688 41.6406C22.75 42.5 22.6406 43.3906 22.6406 44.5312C22.6406 45.625 22.75 46.5625 22.9375 47.3438C23.1094 47.9844 23.4844 49 23.7812 49.6094C24.0781 50.2031 24.6875 51.1562 25.9062 52.7344L24.0938 54.6094L23.2031 53.5156C22.7188 52.9062 21.9688 51.7188 21.5469 50.8594C21.125 50 20.625 48.7344 20.4375 48.0469C20.1719 47.0625 20.0938 46.3281 20.0938 44.6094C20.0938 43.0156 20.1562 42.125 20.3594 41.3281C20.5156 40.7188 20.8438 39.7031 21.1094 39.0625C21.375 38.4062 21.8906 37.4062 22.2656 36.8281C22.6562 36.25 23.2188 35.4844 23.5469 35.1406L24.125 34.5156ZM27.7812 38.2812C27.8281 38.2812 28.25 38.6562 29.5469 39.9219L29 40.7031C28.6875 41.1406 28.2969 41.8906 28.125 42.3906C27.9062 43 27.7969 43.6719 27.7969 44.5312C27.7969 45.4375 27.8906 46.0312 28.1406 46.6875C28.3281 47.1719 28.7188 47.9375 29.5312 49.1406L27.7812 50.8594L27.2188 50.2344C26.9219 49.8906 26.4062 49.0469 26.0781 48.3594C25.75 47.6719 25.4062 46.6875 25.3125 46.1719C25.2188 45.6562 25.1406 44.8906 25.1406 44.4531C25.1563 44.0312 25.2656 43.1875 25.3906 42.5781C25.5156 41.9844 25.8438 41.0312 26.125 40.4844C26.4062 39.9375 26.8594 39.2188 27.1562 38.8906C27.4375 38.5625 27.7188 38.2812 27.7812 38.2812ZM31.375 41.875C31.4219 41.875 31.8906 42.2969 32.4062 42.7969C33.0312 43.4062 33.2812 43.75 33.1562 43.8125C33.0469 43.8594 32.9531 44.1719 32.9531 44.5C32.9531 44.8125 33.0312 45.1562 33.1094 45.2344C33.2188 45.3438 32.9531 45.7031 32.3281 46.3281C31.4375 47.2344 31.3906 47.2656 31.1719 46.9531C31.0469 46.7812 30.8281 46.3906 30.6875 46.0938C30.5312 45.7969 30.3906 45.2344 30.3438 44.8438C30.2969 44.4531 30.3438 43.8594 30.4531 43.5156C30.5625 43.1719 30.7969 42.6719 30.9531 42.3906C31.125 42.1094 31.3125 41.875 31.375 41.875ZM85.7344 57.5C86.2656 57.5 86.9688 57.6094 87.2969 57.75C87.6094 57.875 88.1094 58.2188 88.4062 58.4844C88.6875 58.7656 89.0625 59.2656 89.2344 59.6094C89.4062 59.9531 89.5938 60.5469 89.6406 60.9375C89.6875 61.3906 89.625 61.9219 89.4531 62.4219C89.3125 62.8594 89.0156 63.4375 88.8125 63.7188C88.5938 64 88.125 64.3906 87.7656 64.6094C87.3906 64.8281 86.7188 65.0469 86.2344 65.1094C85.6406 65.1719 85.1406 65.125 84.5938 64.9531C84.1719 64.8125 83.5469 64.4531 83.2344 64.1562C82.9063 63.8438 82.5 63.2969 82.3125 62.9375C82.0781 62.4844 81.9844 61.9688 81.9688 61.3281C81.9688 60.8125 82.0781 60.1406 82.2031 59.8438C82.3281 59.5469 82.6562 59.0469 82.9062 58.75C83.1719 58.4531 83.6875 58.0469 84.0625 57.8594C84.5625 57.5938 85.0312 57.5 85.7344 57.5ZM84.5156 61.2031C84.5156 61.4531 84.6562 61.8438 84.8281 62.0781C85.0781 62.4062 85.2812 62.5 85.7344 62.5C86.1406 62.5156 86.4219 62.4062 86.6719 62.1562C86.875 61.9375 87.0156 61.6094 87.0156 61.2969C87.0156 60.9531 86.8906 60.6562 86.625 60.3906C86.3906 60.1406 86.0625 60 85.7656 60C85.4688 60 85.1562 60.1406 84.9062 60.3906C84.7031 60.5938 84.5312 60.9688 84.5156 61.2031Z" fill="#16191C"/>
</g>
<defs>
<clipPath id="clip0_181_1515">
<rect width="80" height="80" fill="white" transform="translate(20 20)"/>
</clipPath>
</defs>
</svg>
