<svg width="120" height="120" viewBox="0 0 120 120" fill="none" xmlns="http://www.w3.org/2000/svg">
<path opacity="0.3" fill-rule="evenodd" clip-rule="evenodd" d="M44.085 67L29 67L66.7124 29.2876L74.2548 36.8301L74.2548 36.8301L67.0406 74.2128L104.423 66.9985L104.424 67.0011L104.425 67L111.967 74.5425L74.2548 112.255L74.2548 97.1699L90.9816 80.4431L62.9409 85.8545L62.9411 85.8562L55.3986 78.3137L55.4052 78.3146L55.3986 78.3137L60.8095 50.2755L44.085 67Z" fill="#36AF42"/>
<path fill-rule="evenodd" clip-rule="evenodd" d="M38.7188 21.2656C40.6875 21.25 41 21.2813 41.5312 21.5781C41.8438 21.75 42.3438 22.125 42.625 22.3906C42.9062 22.6719 43.2188 23.0938 43.5156 23.7656L73.6719 23.75L74.4531 23.0156C74.9062 22.5937 75.7188 22.0625 76.375 21.7656C77.3437 21.3125 77.6719 21.25 78.75 21.25C79.8281 21.25 80.1562 21.3125 81.1406 21.7656C81.7812 22.0625 82.5938 22.5938 83.8281 23.75H98.75V31.25H83.8281L83.0469 31.9844C82.625 32.3906 81.8438 32.9062 81.3281 33.1562C80.8125 33.3906 80.2969 33.5938 80.2031 33.5938C80.0469 33.5938 80 34.0938 80 37.5H83.0469L89.0469 43.5156L87 47.5781C85.875 49.8125 84.9375 51.6719 84.9062 51.7188C84.8594 51.7656 84.3438 51.5469 83.75 51.25C83.1406 50.9531 82.6562 50.6875 82.6562 50.6719C82.6562 50.6406 83.4062 49.125 85.9531 43.9844L81.9531 40H80V51.25H77.5V40H75.4375L71.5469 43.9844L73.1875 47.2969C74.0938 49.125 74.8438 50.6406 74.8438 50.6562C74.8438 50.6875 74.3594 50.9531 73.75 51.25C73.1562 51.5469 72.6406 51.7656 72.5938 51.7188C72.5625 51.6719 71.625 49.8125 68.4531 43.5156L74.5 37.5H77.5V35.5469C77.5 34.0938 77.4531 33.5938 77.3125 33.5938C77.2031 33.5938 76.6875 33.3906 76.1719 33.1562C75.6562 32.9062 74.875 32.3906 73.6719 31.25H43.75L43.7344 43.9844L44.2344 44.2188C44.5156 44.3438 45 44.7344 45.2969 45.0938C45.6094 45.4375 45.9531 46 46.0469 46.3438C46.1875 46.7812 46.25 48.6094 46.25 58.75H49.6562C52.5 58.75 53.1719 58.7969 53.8125 59.0156C54.3333 59.2031 54.8021 59.5365 55.2188 60.0156C55.5781 60.4062 55.9531 61 56.0469 61.3438C56.1875 61.7812 56.25 63.875 56.25 76.25H63.8281L63.7812 66.6875C63.75 59.4375 63.7812 56.9375 63.9375 56.4062C64.0625 55.9219 64.3594 55.4688 64.9062 54.9219C65.3906 54.4375 65.9531 54.0625 66.3281 53.9375C66.7969 53.7969 70.0469 53.75 78.75 53.75C89.625 53.75 90.6094 53.7656 91.3125 54.0156C91.8281 54.2031 92.2969 54.5312 92.7188 55C93.0781 55.3906 93.4531 56.0312 93.5625 56.4062C93.7188 56.9531 93.75 59.2031 93.6719 76.4062L94.1406 76.5C94.3906 76.5469 95.0312 76.8125 95.5312 77.0938C96.0469 77.3594 96.7344 77.8906 97.0781 78.2812C97.4219 78.6719 97.9375 79.5 98.75 81.25V83.75C98.75 86.25 98.75 86.25 98.2344 87.375C97.9531 88 97.4062 88.8594 97.0312 89.2656C96.5938 89.7344 95.9219 90.2344 95.2344 90.5625C94.625 90.8594 94.0469 91.0938 93.9375 91.0938C93.7969 91.0938 93.75 91.9688 93.75 98.75H24.0625L23.4219 98.3906C23.0625 98.2031 22.5156 97.7656 22.2031 97.4062C21.8906 97.0625 21.5469 96.5 21.4531 96.1562C21.2969 95.6875 21.25 91.625 21.25 78.75C21.25 66.1406 21.2969 61.7969 21.4375 61.3281C21.5625 60.9531 21.9375 60.3906 22.4219 59.9219C22.8906 59.4375 23.4531 59.0625 23.8281 58.9375C24.2344 58.8281 25.6719 58.75 31.25 58.75V52.8438C31.25 48.6094 31.3125 46.7812 31.4531 46.3438C31.5469 46 31.8906 45.4375 32.2031 45.0938C32.5 44.7344 32.9844 44.3438 33.7656 43.9844V34.2188C33.75 26.9062 33.7969 24.2969 33.9531 23.8438C34.0469 23.5 34.4219 22.9219 34.7656 22.5469C35.1094 22.1875 35.6406 21.75 35.9375 21.5781C36.4062 21.3125 36.7969 21.2656 38.7031 21.2656H38.7188ZM36.2812 24.5156L36.2656 43.75H41.2656V24.5312C40.5 23.7656 40.3906 23.75 38.7656 23.75C37.125 23.75 37.0156 23.7656 36.6562 24.1406L36.2812 24.5156ZM76.1875 24.9062C75.7031 25.3906 75.3281 25.9375 75.2031 26.3125C75.1094 26.6563 75.0156 27.1875 75.0156 27.4844C75.0156 27.7969 75.1094 28.3125 75.2031 28.6562C75.3281 29.0469 75.7031 29.5938 76.1875 30.0781C76.6719 30.5625 77.2188 30.9375 77.5938 31.0469C77.9375 31.1562 78.4688 31.2344 78.7656 31.2344C79.0625 31.2344 79.5938 31.1562 79.9375 31.0469C80.3281 30.9375 80.875 30.5625 81.3438 30.0781C81.8281 29.5938 82.2031 29.0469 82.3281 28.6562C82.4219 28.3125 82.5156 27.7969 82.5156 27.4844C82.5156 27.1875 82.4219 26.6563 82.3281 26.3125C82.2031 25.9375 81.8281 25.3906 81.3438 24.9062C80.875 24.4219 80.3281 24.0469 79.9375 23.9375C79.5938 23.8281 79.0312 23.75 78.6875 23.7656C78.3438 23.7656 77.8125 23.8438 77.5156 23.9531C77.2188 24.0469 76.6094 24.4688 76.1875 24.9062ZM43.7656 28.7344H72.5938V26.2344H43.7656V28.7344ZM84.9375 28.7344H96.2656V26.2344H84.9375V28.7344ZM34.1562 46.625C33.7812 47 33.7812 47.0312 33.7812 50.375L33.7656 53.7344H41.2656V56.2344H33.7656V58.7344H43.7656V51.2344H36.2656V48.7344H43.7656C43.7656 47.1719 43.7031 46.9531 43.375 46.625L42.9844 46.2344H34.5312L34.1562 46.625ZM66.2812 57.0156L66.2656 75.4688L67.0469 76.25H73.7656C73.7656 69.1562 73.8125 68.2969 73.9688 68.3438C74.0781 68.3594 75.2031 68.7344 76.4688 69.1562L78.7656 69.9219C82.3438 68.7344 83.4688 68.3594 83.5781 68.3438C83.7188 68.2969 83.7656 69.1562 83.7656 72.2656V76.25H90.5L91.2656 75.4688V57.0312L90.4844 56.25H83.7656C83.7656 63.3438 83.7188 64.2031 83.5781 64.1562C83.4688 64.125 82.3438 63.7656 81.0781 63.3438L78.7656 62.5781C75.2031 63.7656 74.0781 64.125 73.9688 64.1562C73.8125 64.2031 73.7656 63.3438 73.7656 60.2344V56.25H67.0312L66.2812 57.0156ZM76.2656 60.7812L78.7656 59.9219L81.2656 60.7812V56.25H76.2656V60.7812ZM23.7812 62.0156L23.7656 95.4688L24.5469 96.25H53L53.7656 95.4688V62.0312L52.9844 61.25H24.5312L23.7812 62.0156ZM76.2812 76.25H81.2812V71.7188L78.7812 72.5781L76.2344 71.75L76.2812 76.25ZM59.5469 79.4844C59.9375 79.8906 60.4688 80.6875 60.7188 81.25C61.1562 82.1562 61.2031 82.4062 61.2031 83.75C61.2031 85.0781 61.1562 85.3281 60.7188 86.25C60.4688 86.7969 59.9375 87.5938 59.5469 88L58.8594 88.7344H68.7031C67.625 87.5938 67.0938 86.7969 66.8438 86.25C66.4062 85.3281 66.3594 85.0781 66.3594 83.75C66.3594 82.4062 66.4062 82.1562 66.8438 81.25C67.0938 80.6875 67.625 79.8906 68.0156 79.4844L68.7031 78.75H58.8594L59.5469 79.4844ZM77.0469 79.4844C77.4219 79.8906 77.9375 80.6406 78.1719 81.1562C78.4219 81.6719 78.625 82.2188 78.625 82.375C78.625 82.5156 78.6875 82.6406 78.7812 82.6406C78.8594 82.6406 78.9375 82.5156 78.9375 82.375C78.9375 82.2188 79.125 81.6719 79.375 81.1562C79.6094 80.6406 80.125 79.8906 80.5 79.4844L81.2031 78.75H76.3594L77.0469 79.4844ZM89.5469 79.4844C89.9219 79.8906 90.4531 80.6719 90.7188 81.2344C91.1406 82.1406 91.1875 82.4062 91.1875 83.7344C91.1875 85.0625 91.1406 85.3281 90.7188 86.2344C90.4531 86.7969 89.9219 87.5781 89.5469 87.9844L88.8438 88.7344C92.1562 88.7344 93.3438 88.6562 93.6875 88.5469C94.0781 88.4219 94.625 88.0469 95.1094 87.5625C95.5781 87.0938 95.9688 86.5469 96.0781 86.1562C96.1875 85.8125 96.2656 84.7188 96.2656 83.7344C96.2656 82.75 96.1875 81.6562 96.0781 81.3125C95.9688 80.9375 95.5781 80.375 95.1094 79.9062C94.625 79.4219 94.0781 79.0469 93.6875 78.9219C93.3438 78.8281 92.1562 78.7344 90.9531 78.7344L88.8438 78.75L89.5469 79.4844ZM69.9531 81.1406C69.4688 81.625 69.0938 82.1719 68.9688 82.5625C68.875 82.9062 68.7812 83.4375 68.7812 83.7344C68.7812 84.0312 68.875 84.5625 68.9688 84.9062C69.0938 85.2812 69.4688 85.8281 69.9531 86.3125C70.4219 86.7969 70.9688 87.1719 71.3594 87.2812C71.7031 87.3906 72.2344 87.4688 72.5312 87.4688C72.8281 87.4688 73.3594 87.3906 73.7031 87.2812C74.0781 87.1719 74.625 86.7969 75.1094 86.3125C75.5938 85.8281 75.9688 85.2812 76.0938 84.9062C76.1875 84.5625 76.2812 84.0312 76.2812 83.7344C76.2812 83.4375 76.1875 82.9062 76.0938 82.5625C75.9688 82.1719 75.5938 81.625 75.1094 81.1406C74.625 80.6719 74.0781 80.2812 73.7031 80.1719C73.3594 80.0781 72.7969 80 72.4531 80C72.1094 80 71.5781 80.0938 71.2812 80.1875C70.9844 80.2813 70.375 80.7187 69.9531 81.1406ZM82.4531 81.1406C81.9688 81.625 81.5938 82.1719 81.4688 82.5625C81.375 82.9062 81.2812 83.4375 81.2812 83.7344C81.2812 84.0312 81.375 84.5625 81.4688 84.9062C81.5938 85.2812 81.9688 85.8281 82.4531 86.3125C82.9219 86.7969 83.4688 87.1719 83.8594 87.2812C84.2031 87.3906 84.7344 87.4688 85.0312 87.4688C85.3281 87.4688 85.8594 87.3906 86.2031 87.2812C86.5781 87.1719 87.125 86.7969 87.6094 86.3125C88.0938 85.8281 88.4688 85.2812 88.5938 84.9062C88.6875 84.5625 88.7812 84.0312 88.7812 83.7344C88.7812 83.4375 88.6875 82.9062 88.5938 82.5625C88.4688 82.1719 88.0938 81.625 87.6094 81.1406C87.125 80.6719 86.5781 80.2812 86.2031 80.1719C85.8594 80.0781 85.2969 80 84.9531 80C84.6094 80 84.0781 80.0938 83.7812 80.1875C83.4844 80.2813 82.875 80.7187 82.4531 81.1406ZM56.3594 87.1719C56.4062 87.1719 56.625 87.0781 56.8594 86.9531C57.1094 86.8438 57.5469 86.4688 57.8438 86.125C58.1406 85.7812 58.4688 85.2187 58.5781 84.8906C58.6875 84.5469 58.7812 84.0312 58.7812 83.7344C58.7812 83.4375 58.6875 82.9062 58.5781 82.5781C58.4688 82.2344 58.1406 81.6875 57.8438 81.3438C57.5469 81 57.1094 80.625 56.8594 80.5C56.625 80.3906 56.4062 80.2969 56.3594 80.2969C56.3125 80.2969 56.2812 81.8438 56.2812 83.7344C56.2812 85.625 56.3125 87.1719 56.3594 87.1719ZM78.1875 86.3125C77.9375 86.8281 77.4375 87.5781 77.0469 87.9844L76.3594 88.7188H81.2031C80.125 87.5781 79.625 86.8281 79.375 86.3125C79.1406 85.7969 78.9375 85.25 78.9375 85.0938C78.9375 84.9531 78.8594 84.8281 78.7812 84.8281C78.6875 84.8281 78.625 84.9531 78.625 85.0938C78.625 85.25 78.4219 85.7969 78.1875 86.3125ZM56.2812 93.375C56.2812 94.5625 56.2344 95.6875 56.2031 95.875L56.125 96.2344H91.2812V91.2344H56.2812V93.375ZM78.7812 26.2188C79.0781 26.2188 79.3906 26.375 79.6406 26.6094C79.8906 26.8594 80.0312 27.1875 80.0312 27.4688C80.0312 27.7656 79.8906 28.0938 79.6406 28.3281C79.4062 28.5781 79.0938 28.7188 78.7812 28.7188C78.4844 28.7188 78.1719 28.5781 77.9219 28.3281C77.6719 28.0781 77.5312 27.7656 77.5312 27.4688C77.5469 27.1875 77.7031 26.8438 77.9219 26.6094C78.1562 26.3594 78.4688 26.2188 78.7812 26.2188ZM26.2812 63.7188H51.2812V78.7188H26.2812V63.7188ZM28.7812 76.2188H48.7812V66.2188H28.7812V76.2188ZM33.7031 81.2344C34.0469 81.2344 34.6719 81.3438 35.0938 81.5C35.6146 81.6771 36.0833 82.0052 36.5 82.4844C36.8594 82.875 37.2344 83.4688 37.3281 83.8125C37.4375 84.1562 37.5312 84.6719 37.5312 84.9688C37.5312 85.2812 37.4375 85.7969 37.3438 86.1406C37.2188 86.5312 36.8437 87.0781 36.3594 87.5625C35.8906 88.0312 35.3281 88.4219 34.9531 88.5312C34.6094 88.6406 34.0781 88.7188 33.7812 88.7188C33.4844 88.7188 32.9531 88.6406 32.6094 88.5312C32.2344 88.4219 31.6719 88.0312 31.2031 87.5625C30.7188 87.0781 30.3438 86.5312 30.2188 86.1406C30.125 85.7969 30.0312 85.2812 30.0312 84.9688C30.0312 84.6719 30.125 84.1406 30.2188 83.7969C30.3438 83.4219 30.7188 82.875 31.2031 82.3906C31.625 81.9531 32.2344 81.5156 32.5312 81.4219C32.8281 81.3281 33.3594 81.25 33.7031 81.2344ZM32.5312 84.9688C32.5312 85.2656 32.6719 85.5781 32.9219 85.8281C33.1719 86.0781 33.4844 86.2188 33.7812 86.2188C34.0938 86.2188 34.4062 86.0781 34.6406 85.8281C34.8906 85.5938 35.0312 85.2656 35.0312 84.9688C35.0312 84.6875 34.8906 84.3594 34.6406 84.1094C34.3906 83.875 34.0781 83.7188 33.7812 83.7188C33.4688 83.7188 33.1562 83.8594 32.9219 84.1094C32.7031 84.3438 32.5469 84.6875 32.5312 84.9688ZM43.7031 81.2344C44.0469 81.2344 44.6719 81.3438 45.0938 81.5C45.6146 81.6771 46.0833 82.0052 46.5 82.4844C46.8594 82.875 47.2344 83.4688 47.3281 83.8125C47.4375 84.1562 47.5312 84.6719 47.5312 84.9688C47.5312 85.2812 47.4375 85.7969 47.3438 86.1406C47.2188 86.5312 46.8438 87.0781 46.3594 87.5625C45.8906 88.0312 45.3281 88.4219 44.9531 88.5312C44.6094 88.6406 44.0781 88.7188 43.7812 88.7188C43.4844 88.7188 42.9531 88.6406 42.6094 88.5312C42.2344 88.4219 41.6719 88.0312 41.2031 87.5625C40.7188 87.0781 40.3438 86.5312 40.2188 86.1406C40.125 85.7969 40.0312 85.2812 40.0312 84.9688C40.0312 84.6719 40.125 84.1406 40.2188 83.7969C40.3438 83.4219 40.7188 82.875 41.2031 82.3906C41.625 81.9531 42.2344 81.5156 42.5312 81.4219C42.8281 81.3281 43.3594 81.25 43.7031 81.2344ZM42.5312 84.9688C42.5312 85.2656 42.6719 85.5781 42.9219 85.8281C43.1719 86.0781 43.4844 86.2188 43.7812 86.2188C44.0938 86.2188 44.4062 86.0781 44.6406 85.8281C44.8906 85.5938 45.0312 85.2656 45.0312 84.9688C45.0312 84.6875 44.8906 84.3594 44.6406 84.1094C44.3906 83.875 44.0781 83.7188 43.7812 83.7188C43.4688 83.7188 43.1562 83.8594 42.9219 84.1094C42.7031 84.3438 42.5469 84.6875 42.5312 84.9688ZM72.5312 82.4688C72.8281 82.4688 73.1406 82.625 73.3906 82.8594C73.6406 83.1094 73.7812 83.4375 73.7812 83.7188C73.7812 84.0156 73.6406 84.3438 73.3906 84.5781C73.1562 84.8281 72.8438 84.9688 72.5312 84.9688C72.2344 84.9688 71.9219 84.8281 71.6719 84.5781C71.4219 84.3281 71.2812 84.0156 71.2812 83.7188C71.2969 83.4375 71.4531 83.0938 71.6719 82.8594C71.9062 82.6094 72.2188 82.4688 72.5312 82.4688ZM85.0312 82.4688C85.3281 82.4688 85.6406 82.625 85.8906 82.8594C86.1406 83.1094 86.2812 83.4375 86.2812 83.7188C86.2812 84.0156 86.1406 84.3438 85.8906 84.5781C85.6562 84.8281 85.3438 84.9688 85.0312 84.9688C84.7344 84.9688 84.4219 84.8281 84.1719 84.5781C83.9219 84.3281 83.7812 84.0156 83.7812 83.7188C83.7969 83.4375 83.9531 83.0938 84.1719 82.8594C84.4062 82.6094 84.7188 82.4688 85.0312 82.4688ZM27.5312 91.2188H30.0312V93.7188H27.5312V91.2188ZM32.5312 91.2188H35.0312V93.7188H32.5312V91.2188ZM37.5312 91.2188H40.0312V93.7188H37.5312V91.2188ZM42.5312 91.2188H45.0312V93.7188H42.5312V91.2188ZM47.5312 91.2188H50.0312V93.7188H47.5312V91.2188Z" fill="#16191C"/>
</svg>
